<svg version="1.1" viewBox="0.0 0.0 960.0 960.0" fill="none" stroke="none" stroke-linecap="square" stroke-miterlimit="10" xmlns:xlink="http://www.w3.org/1999/xlink" xmlns="http://www.w3.org/2000/svg"><clipPath id="g319477ced3c_0_34.0"><path d="m0 0l960.0 0l0 960.0l-960.0 0l0 -960.0z" clip-rule="nonzero"/></clipPath><g clip-path="url(#g319477ced3c_0_34.0)"><path fill="#000000" fill-opacity="0.0" d="m0 0l960.0 0l0 960.0l-960.0 0z" fill-rule="evenodd"/><path fill="#6aa84f" d="m891.3884 648.7559l0 0c0 -6.140381 7.6569824 -11.118103 17.102356 -11.118103l0 0c9.445374 0 17.102417 4.977722 17.102417 11.118103l0 0c0 6.14032 -7.6570435 11.118103 -17.102417 11.118103l0 0c-9.445374 0 -17.102356 -4.977783 -17.102356 -11.118103z" fill-rule="evenodd"/><path fill="#eeeeee" d="m807.34503 649.7056l0 0c-0.25091553 -31.376465 11.877686 -60.52899 31.77948 -76.38556c19.901733 -15.856506 44.523254 -15.984314 64.51337 -0.33483887c19.990051 15.649414 32.28186 44.67517 32.20691 76.053345l-8.329529 -0.0368042c0.062683105 -28.38324 -10.634033 -54.637512 -28.028992 -68.79462c-17.394958 -14.157166 -38.82025 -14.045898 -56.141235 0.29138184c-17.320984 14.337341 -27.881165 40.701965 -27.671143 69.0838z" fill-rule="evenodd"/><path stroke="#000000" stroke-width="3.0" stroke-linejoin="round" stroke-linecap="butt" d="m807.34503 649.7056l0 0c-0.25091553 -31.376465 11.877686 -60.52899 31.77948 -76.38556c19.901733 -15.856506 44.523254 -15.984314 64.51337 -0.33483887c19.990051 15.649414 32.28186 44.67517 32.20691 76.053345l-8.329529 -0.0368042c0.062683105 -28.38324 -10.634033 -54.637512 -28.028992 -68.79462c-17.394958 -14.157166 -38.82025 -14.045898 -56.141235 0.29138184c-17.320984 14.337341 -27.881165 40.701965 -27.671143 69.0838z" fill-rule="evenodd"/><path fill="#ff9900" d="m856.90027 641.4068l0 0c0 -6.14032 7.6569824 -11.118103 17.102356 -11.118103l0 0c9.445374 0 17.102356 4.977783 17.102356 11.118103l0 0c0 6.140381 -7.6569824 11.118164 -17.102356 11.118164l0 0c-9.445374 0 -17.102356 -4.977783 -17.102356 -11.118164z" fill-rule="evenodd"/><path fill="#00ffff" d="m822.41205 648.7559l0 0c0 -6.140381 7.6570435 -11.118103 17.102417 -11.118103l0 0c9.445374 0 17.102356 4.977722 17.102356 11.118103l0 0c0 6.14032 -7.6569824 11.118103 -17.102356 11.118103l0 0c-9.445374 0 -17.102417 -4.977783 -17.102417 -11.118103z" fill-rule="evenodd"/><path fill="#ff9900" d="m335.8378 704.8793l-41.308228 64.492676l17.039185 7.6054688l-52.0307 55.264282l17.039185 9.228394l-64.32524 92.52789l109.088394 -70.910095l-20.804749 -9.843628l67.78015 -45.420654l-24.287872 -14.033569l71.564545 -47.648193z" fill-rule="evenodd"/><path stroke="#000000" stroke-width="8.0" stroke-linejoin="round" stroke-linecap="butt" d="m335.8378 704.8793l-41.308228 64.492676l17.039185 7.6054688l-52.0307 55.264282l17.039185 9.228394l-64.32524 92.52789l109.088394 -70.910095l-20.804749 -9.843628l67.78015 -45.420654l-24.287872 -14.033569l71.564545 -47.648193z" fill-rule="evenodd"/><path fill="#ff9900" d="m637.0119 704.8793l38.901184 64.492676l-16.046265 7.6054688l48.99878 55.264282l-16.046265 9.228394l60.576965 92.52789l-102.73175 -70.910095l19.592468 -9.843628l-63.830566 -45.420654l22.87262 -14.033569l-67.39441 -47.648193z" fill-rule="evenodd"/><path stroke="#000000" stroke-width="8.0" stroke-linejoin="round" stroke-linecap="butt" d="m637.0119 704.8793l38.901184 64.492676l-16.046265 7.6054688l48.99878 55.264282l-16.046265 9.228394l60.576965 92.52789l-102.73175 -70.910095l19.592468 -9.843628l-63.830566 -45.420654l22.87262 -14.033569l-67.39441 -47.648193z" fill-rule="evenodd"/><path fill="#ff9900" d="m908.2218 558.6428l0 0c0 6.743469 -5.466736 12.210205 -12.210205 12.210205l-48.839417 0l0 0c-3.2383423 0 -6.344116 -1.286438 -8.633972 -3.576294c-2.289856 -2.289856 -3.576294 -5.395569 -3.576294 -8.633911l0 -64.65045c0 -6.7435303 5.466736 -12.210205 12.210266 -12.210205l48.839417 0c6.743469 0 12.210205 5.466675 12.210205 12.210205z" fill-rule="evenodd"/><path stroke="#000000" stroke-width="8.0" stroke-linejoin="round" stroke-linecap="butt" d="m908.2218 558.6428l0 0c0 6.743469 -5.466736 12.210205 -12.210205 12.210205l-48.839417 0l0 0c-3.2383423 0 -6.344116 -1.286438 -8.633972 -3.576294c-2.289856 -2.289856 -3.576294 -5.395569 -3.576294 -8.633911l0 -64.65045c0 -6.7435303 5.466736 -12.210205 12.210266 -12.210205l48.839417 0c6.743469 0 12.210205 5.466675 12.210205 12.210205z" fill-rule="evenodd"/><path fill="#ff9900" d="m908.2218 482.77692c0 8.20163 -37.66449 14.850372 -84.12598 14.850372l0 0c-46.461548 0 -84.12604 -6.6487427 -84.12604 -14.850372l0 0c0 -8.20166 37.66449 -14.850403 84.12604 -14.850403l0 0c46.461487 0 84.12598 6.6487427 84.12598 14.850403z" fill-rule="evenodd"/><path stroke="#000000" stroke-width="8.0" stroke-linejoin="round" stroke-linecap="butt" d="m908.2218 482.77692c0 8.20163 -37.66449 14.850372 -84.12598 14.850372l0 0c-46.461548 0 -84.12604 -6.6487427 -84.12604 -14.850372l0 0c0 -8.20166 37.66449 -14.850403 84.12604 -14.850403l0 0c46.461487 0 84.12598 6.6487427 84.12598 14.850403z" fill-rule="evenodd"/><path fill="#ff9900" d="m63.03281 406.911l0 0c0 -6.7435303 5.4667015 -12.210236 12.2102165 -12.210236l48.83941 0l0 0c3.23835 0 6.344063 1.286438 8.633919 3.576294c2.2898712 2.289856 3.576294 5.3955994 3.576294 8.633942l0 64.65042c0 6.7435303 -5.4667053 12.210236 -12.210213 12.210236l-48.83941 0c-6.743515 0 -12.2102165 -5.4667053 -12.2102165 -12.210236z" fill-rule="evenodd"/><path stroke="#000000" stroke-width="8.0" stroke-linejoin="round" stroke-linecap="butt" d="m63.03281 406.911l0 0c0 -6.7435303 5.4667015 -12.210236 12.2102165 -12.210236l48.83941 0l0 0c3.23835 0 6.344063 1.286438 8.633919 3.576294c2.2898712 2.289856 3.576294 5.3955994 3.576294 8.633942l0 64.65042c0 6.7435303 -5.4667053 12.210236 -12.210213 12.210236l-48.83941 0c-6.743515 0 -12.2102165 -5.4667053 -12.2102165 -12.210236z" fill-rule="evenodd"/><path fill="#ff9900" d="m63.03281 482.77692c0 -8.20166 37.664486 -14.850403 84.12599 -14.850403l0 0c46.461487 0 84.12598 6.6487427 84.12598 14.850403l0 0c0 8.20163 -37.66449 14.850372 -84.12598 14.850372l0 0c-46.461502 0 -84.12599 -6.6487427 -84.12599 -14.850372z" fill-rule="evenodd"/><path stroke="#000000" stroke-width="8.0" stroke-linejoin="round" stroke-linecap="butt" d="m63.03281 482.77692c0 -8.20166 37.664486 -14.850403 84.12599 -14.850403l0 0c46.461487 0 84.12598 6.6487427 84.12598 14.850403l0 0c0 8.20163 -37.66449 14.850372 -84.12598 14.850372l0 0c-46.461502 0 -84.12599 -6.6487427 -84.12599 -14.850372z" fill-rule="evenodd"/><path fill="#ff9900" d="m201.35173 464.10236l0 0c0 -174.55676 124.78212 -316.063 278.70868 -316.063l0 0c73.91812 0 144.80875 33.299408 197.07681 92.57271c52.268005 59.2733 81.631836 139.66518 81.631836 223.49028l0 0c0 174.55676 -124.782104 316.063 -278.70865 316.063l0 0c-153.92654 0 -278.70868 -141.50623 -278.70868 -316.063z" fill-rule="evenodd"/><path stroke="#000000" stroke-width="8.0" stroke-linejoin="round" stroke-linecap="butt" d="m201.35173 464.10236l0 0c0 -174.55676 124.78212 -316.063 278.70868 -316.063l0 0c73.91812 0 144.80875 33.299408 197.07681 92.57271c52.268005 59.2733 81.631836 139.66518 81.631836 223.49028l0 0c0 174.55676 -124.782104 316.063 -278.70865 316.063l0 0c-153.92654 0 -278.70868 -141.50623 -278.70868 -316.063z" fill-rule="evenodd"/><path fill="#000000" d="m271.2139 341.8596l0 0c0 -35.267944 41.15457 -63.858276 91.921265 -63.858276l0 0c50.766724 0 91.921265 28.590332 91.921265 63.858276l0 0c0 35.267944 -41.15454 63.858246 -91.921265 63.858246l0 0c-50.766693 0 -91.921265 -28.590302 -91.921265 -63.858246z" fill-rule="evenodd"/><path stroke="#000000" stroke-width="8.0" stroke-linejoin="round" stroke-linecap="butt" d="m271.2139 341.8596l0 0c0 -35.267944 41.15457 -63.858276 91.921265 -63.858276l0 0c50.766724 0 91.921265 28.590332 91.921265 63.858276l0 0c0 35.267944 -41.15454 63.858246 -91.921265 63.858246l0 0c-50.766693 0 -91.921265 -28.590302 -91.921265 -63.858246z" fill-rule="evenodd"/><path fill="#eeeeee" d="m311.13388 341.84586l0 0c0 -28.014313 23.76767 -50.724396 53.08661 -50.724396l0 0c14.079437 0 27.582245 5.3441467 37.537903 14.856842c9.955688 9.512665 15.548706 22.414612 15.548706 35.867554l0 0c0 28.014313 -23.76767 50.724426 -53.08661 50.724426l0 0c-29.31894 0 -53.08661 -22.710114 -53.08661 -50.724426z" fill-rule="evenodd"/><path stroke="#000000" stroke-width="8.0" stroke-linejoin="round" stroke-linecap="butt" d="m311.13388 341.84586l0 0c0 -28.014313 23.76767 -50.724396 53.08661 -50.724396l0 0c14.079437 0 27.582245 5.3441467 37.537903 14.856842c9.955688 9.512665 15.548706 22.414612 15.548706 35.867554l0 0c0 28.014313 -23.76767 50.724426 -53.08661 50.724426l0 0c-29.31894 0 -53.08661 -22.710114 -53.08661 -50.724426z" fill-rule="evenodd"/><path fill="#000000" d="m336.37668 341.86276l0 0c0 -13.115692 12.458466 -23.748047 27.826752 -23.748047l0 0c15.368317 0 27.826782 10.632355 27.826782 23.748047l0 0c0 13.115662 -12.458466 23.748016 -27.826782 23.748016l0 0c-15.368286 0 -27.826752 -10.632355 -27.826752 -23.748016z" fill-rule="evenodd"/><path stroke="#000000" stroke-width="8.0" stroke-linejoin="round" stroke-linecap="butt" d="m336.37668 341.86276l0 0c0 -13.115692 12.458466 -23.748047 27.826752 -23.748047l0 0c15.368317 0 27.826782 10.632355 27.826782 23.748047l0 0c0 13.115662 -12.458466 23.748016 -27.826782 23.748016l0 0c-15.368286 0 -27.826752 -10.632355 -27.826752 -23.748016z" fill-rule="evenodd"/><path fill="#000000" d="m504.9462 341.8491l0 0c0 -35.267944 41.15457 -63.858276 91.921234 -63.858276l0 0c50.766724 0 91.921265 28.590332 91.921265 63.858276l0 0c0 35.267944 -41.15454 63.858246 -91.921265 63.858246l0 0c-50.766663 0 -91.921234 -28.590302 -91.921234 -63.858246z" fill-rule="evenodd"/><path stroke="#000000" stroke-width="8.0" stroke-linejoin="round" stroke-linecap="butt" d="m504.9462 341.8491l0 0c0 -35.267944 41.15457 -63.858276 91.921234 -63.858276l0 0c50.766724 0 91.921265 28.590332 91.921265 63.858276l0 0c0 35.267944 -41.15454 63.858246 -91.921265 63.858246l0 0c-50.766663 0 -91.921234 -28.590302 -91.921234 -63.858246z" fill-rule="evenodd"/><path fill="#eeeeee" d="m549.41736 341.82748l0 0c0 -28.014313 23.76764 -50.724396 53.08661 -50.724396l0 0c14.079407 0 27.582214 5.3441467 37.537903 14.856842c9.955688 9.512665 15.548706 22.414612 15.548706 35.867554l0 0c0 28.014313 -23.7677 50.724426 -53.08661 50.724426l0 0c-29.31897 0 -53.08661 -22.710114 -53.08661 -50.724426z" fill-rule="evenodd"/><path stroke="#000000" stroke-width="8.0" stroke-linejoin="round" stroke-linecap="butt" d="m549.41736 341.82748l0 0c0 -28.014313 23.76764 -50.724396 53.08661 -50.724396l0 0c14.079407 0 27.582214 5.3441467 37.537903 14.856842c9.955688 9.512665 15.548706 22.414612 15.548706 35.867554l0 0c0 28.014313 -23.7677 50.724426 -53.08661 50.724426l0 0c-29.31897 0 -53.08661 -22.710114 -53.08661 -50.724426z" fill-rule="evenodd"/><path fill="#000000" d="m574.66016 341.8444l0 0c0 -13.115692 12.458435 -23.748047 27.826721 -23.748047l0 0c15.368347 0 27.826782 10.632355 27.826782 23.748047l0 0c0 13.115662 -12.458435 23.748016 -27.826782 23.748016l0 0c-15.368286 0 -27.826721 -10.632355 -27.826721 -23.748016z" fill-rule="evenodd"/><path stroke="#000000" stroke-width="8.0" stroke-linejoin="round" stroke-linecap="butt" d="m574.66016 341.8444l0 0c0 -13.115692 12.458435 -23.748047 27.826721 -23.748047l0 0c15.368347 0 27.826782 10.632355 27.826782 23.748047l0 0c0 13.115662 -12.458435 23.748016 -27.826782 23.748016l0 0c-15.368286 0 -27.826721 -10.632355 -27.826721 -23.748016z" fill-rule="evenodd"/><path fill="#ffffff" d="m628.6522 464.10104l0 0c0 32.185486 -63.12036 58.30246 -141.12729 58.393463c-78.00693 0.09106445 -141.48431 -25.878204 -141.92557 -58.06317l141.5253 -0.33029175z" fill-rule="evenodd"/><path stroke="#000000" stroke-width="8.0" stroke-linejoin="round" stroke-linecap="butt" d="m628.6522 464.10104l0 0c0 32.185486 -63.12036 58.30246 -141.12729 58.393463c-78.00693 0.09106445 -141.48431 -25.878204 -141.92557 -58.06317l141.5253 -0.33029175z" fill-rule="evenodd"/><path fill="#000000" fill-opacity="0.0" d="m517.8583 538.6378l-95.0105 25.729614l87.09448 33.65094l-65.32022 33.648315l63.341217 17.816223l15.832031 3.9580078" fill-rule="evenodd"/><path stroke="#000000" stroke-width="8.0" stroke-linejoin="round" stroke-linecap="butt" d="m517.8583 538.6378l-95.0105 25.729614l87.09448 33.65094l-65.32022 33.648315l63.341217 17.816223l15.832031 3.9580078" fill-rule="evenodd"/><path fill="#ff9900" d="m454.32678 427.29004l11.385803 -45.543335l28.692932 0l11.385834 45.543335z" fill-rule="evenodd"/><path stroke="#000000" stroke-width="8.0" stroke-linejoin="round" stroke-linecap="butt" d="m454.32678 427.29004l11.385803 -45.543335l28.692932 0l11.385834 45.543335z" fill-rule="evenodd"/><path fill="#000000" fill-opacity="0.0" d="m509.62335 467.51312l0.8189087 55.874023" fill-rule="evenodd"/><path stroke="#000000" stroke-width="8.0" stroke-linejoin="round" stroke-linecap="butt" d="m509.62335 467.51312l0.8189087 55.874023" fill-rule="evenodd"/><path fill="#000000" fill-opacity="0.0" d="m460.437 462.89108l1.4803162 60.062958" fill-rule="evenodd"/><path stroke="#000000" stroke-width="8.0" stroke-linejoin="round" stroke-linecap="butt" d="m460.437 462.89108l1.4803162 60.062958" fill-rule="evenodd"/><path fill="#000000" fill-opacity="0.0" d="m422.84647 464.70996l0.88186646 50.960632" fill-rule="evenodd"/><path stroke="#000000" stroke-width="8.0" stroke-linejoin="round" stroke-linecap="butt" d="m422.84647 464.70996l0.88186646 50.960632" fill-rule="evenodd"/><path fill="#000000" fill-opacity="0.0" d="m547.6706 467.44226l0.881897 50.960632" fill-rule="evenodd"/><path stroke="#000000" stroke-width="8.0" stroke-linejoin="round" stroke-linecap="butt" d="m547.6706 467.44226l0.881897 50.960632" fill-rule="evenodd"/><path fill="#000000" fill-opacity="0.0" d="m384.24802 467.51312l2.8031616 38.960632" fill-rule="evenodd"/><path stroke="#000000" stroke-width="8.0" stroke-linejoin="round" stroke-linecap="butt" d="m384.24802 467.51312l2.8031616 38.960632" fill-rule="evenodd"/><path fill="#000000" fill-opacity="0.0" d="m585.11945 466.3084l2.456665 40.15747" fill-rule="evenodd"/><path stroke="#000000" stroke-width="8.0" stroke-linejoin="round" stroke-linecap="butt" d="m585.11945 466.3084l2.456665 40.15747" fill-rule="evenodd"/><path fill="#000000" d="m417.31625 286.08267l132.09451 0l0 60.06299l-132.09451 0z" fill-rule="evenodd"/><path stroke="#000000" stroke-width="1.0" stroke-linejoin="round" stroke-linecap="butt" d="m417.31625 286.08267l132.09451 0l0 60.06299l-132.09451 0z" fill-rule="evenodd"/><path fill="#000000" d="m450.72046 311.82285l73.25983 0l0 60.06299l-73.25983 0z" fill-rule="evenodd"/><path stroke="#000000" stroke-width="1.0" stroke-linejoin="round" stroke-linecap="butt" d="m450.72046 311.82285l73.25983 0l0 60.06299l-73.25983 0z" fill-rule="evenodd"/><path fill="#000000" d="m367.12598 274.66666l232.47247 0l0 13.039368l-232.47247 0z" fill-rule="evenodd"/><path stroke="#000000" stroke-width="1.0" stroke-linejoin="round" stroke-linecap="butt" d="m367.12598 274.66666l232.47247 0l0 13.039368l-232.47247 0z" fill-rule="evenodd"/><path fill="#000000" d="m266.44882 261.23883l32.217834 43.427826l-26.335938 51.643066l-48.33072 -14.976379z" fill-rule="evenodd"/><path stroke="#000000" stroke-width="8.0" stroke-linejoin="round" stroke-linecap="butt" d="m266.44882 261.23883l32.217834 43.427826l-26.335938 51.643066l-48.33072 -14.976379z" fill-rule="evenodd"/><path fill="#000000" d="m376.24146 278.00262l232.47247 0l0 13.039368l-232.47247 0z" fill-rule="evenodd"/><path stroke="#000000" stroke-width="1.0" stroke-linejoin="round" stroke-linecap="butt" d="m376.24146 278.00262l232.47247 0l0 13.039368l-232.47247 0z" fill-rule="evenodd"/><path fill="#000000" d="m694.8189 261.23883l-32.217834 43.427826l26.335938 51.643066l48.33069 -14.976379z" fill-rule="evenodd"/><path stroke="#000000" stroke-width="8.0" stroke-linejoin="round" stroke-linecap="butt" d="m694.8189 261.23883l-32.217834 43.427826l26.335938 51.643066l48.33069 -14.976379z" fill-rule="evenodd"/><path fill="#ffff00" d="m937.64044 652.52496l0 34.881836l0 0c0 19.26477 -29.570374 34.881897 -66.04724 34.881897c-36.47693 0 -66.04724 -15.617126 -66.04724 -34.881897l0 -34.881836z" fill-rule="evenodd"/><path stroke="#000000" stroke-width="8.0" stroke-linejoin="round" stroke-linecap="butt" d="m937.64044 652.52496l0 34.881836l0 0c0 19.26477 -29.570374 34.881897 -66.04724 34.881897c-36.47693 0 -66.04724 -15.617126 -66.04724 -34.881897l0 -34.881836z" fill-rule="evenodd"/><path fill="#00ff00" d="m829.79004 626.5197l0 0c0 -6.140381 7.6569824 -11.118164 17.102356 -11.118164l0 0c9.445374 0 17.102356 4.977783 17.102356 11.118164l0 0c0 6.14032 -7.6569824 11.118103 -17.102356 11.118103l0 0c-9.445374 0 -17.102356 -4.977783 -17.102356 -11.118103z" fill-rule="evenodd"/><path fill="#ff0000" d="m884.5827 626.5197l0 0c0 -6.140381 7.6569824 -11.118164 17.102356 -11.118164l0 0c9.445374 0 17.102356 4.977783 17.102356 11.118164l0 0c0 6.14032 -7.6569824 11.118103 -17.102356 11.118103l0 0c-9.445374 0 -17.102356 -4.977783 -17.102356 -11.118103z" fill-rule="evenodd"/><path fill="#9900ff" d="m856.90027 611.68896l0 0c0 -6.140381 7.6569824 -11.118103 17.102356 -11.118103l0 0c9.445374 0 17.102356 4.977722 17.102356 11.118103l0 0c0 6.140381 -7.6569824 11.118103 -17.102356 11.118103l0 0c-9.445374 0 -17.102356 -4.977722 -17.102356 -11.118103z" fill-rule="evenodd"/><path fill="#eeeeee" d="m523.47534 69.37515l0 0c16.977295 -34.609016 40.0047 -58.75025 51.433044 -53.920956l0 0c5.488098 2.31911 7.5127563 11.14544 5.62854 24.537296c-1.8842163 13.391861 -7.522949 30.25225 -15.675781 46.872093l0 0c-16.977295 34.609016 -40.0047 58.750244 -51.433044 53.92096l0 0c-5.4881287 -2.319107 -7.5127563 -11.145447 -5.62854 -24.5373c1.8842468 -13.391861 7.522949 -30.25225 15.675781 -46.872093z" fill-rule="evenodd"/><path stroke="#595959" stroke-width="8.0" stroke-linejoin="round" stroke-linecap="butt" d="m523.47534 69.37515l0 0c16.977295 -34.609016 40.0047 -58.75025 51.433044 -53.920956l0 0c5.488098 2.31911 7.5127563 11.14544 5.62854 24.537296c-1.8842163 13.391861 -7.522949 30.25225 -15.675781 46.872093l0 0c-16.977295 34.609016 -40.0047 58.750244 -51.433044 53.92096l0 0c-5.4881287 -2.319107 -7.5127563 -11.145447 -5.62854 -24.5373c1.8842468 -13.391861 7.522949 -30.25225 15.675781 -46.872093z" fill-rule="evenodd"/><path fill="#f4cccc" d="m528.8979 79.53805l0 0c15.463989 -31.52816 33.49951 -54.762447 40.28351 -51.895226l0 0c3.2577515 1.3768864 3.432129 8.711863 0.48468018 20.391321c-2.9473877 11.679455 -8.7751465 26.746666 -16.201233 41.887024l0 0c-15.463989 31.528168 -33.49951 54.76246 -40.283447 51.89524l0 0c-3.2578125 -1.3768921 -3.4321594 -8.711868 -0.4847412 -20.391327c2.9474487 -11.679459 8.7752075 -26.746674 16.201233 -41.88703z" fill-rule="evenodd"/><path stroke="#595959" stroke-width="8.0" stroke-linejoin="round" stroke-linecap="butt" d="m528.8979 79.53805l0 0c15.463989 -31.52816 33.49951 -54.762447 40.28351 -51.895226l0 0c3.2577515 1.3768864 3.432129 8.711863 0.48468018 20.391321c-2.9473877 11.679455 -8.7751465 26.746666 -16.201233 41.887024l0 0c-15.463989 31.528168 -33.49951 54.76246 -40.283447 51.89524l0 0c-3.2578125 -1.3768921 -3.4321594 -8.711868 -0.4847412 -20.391327c2.9474487 -11.679459 8.7752075 -26.746674 16.201233 -41.88703z" fill-rule="evenodd"/><path fill="#eeeeee" d="m401.50287 87.63443l0 0c-16.777283 -34.69897 -21.275604 -67.08478 -10.047241 -72.335724l0 0c5.392029 -2.521593 13.763733 1.6794558 23.273468 11.678964c9.509705 9.99951 19.378448 24.978369 27.43518 41.641403l0 0c16.777283 34.698975 21.275574 67.08477 10.047241 72.33572l0 0c-5.392029 2.5216064 -13.763763 -1.6794434 -23.273468 -11.678955c-9.509735 -9.999512 -19.378448 -24.97837 -27.43518 -41.641403z" fill-rule="evenodd"/><path stroke="#595959" stroke-width="8.0" stroke-linejoin="round" stroke-linecap="butt" d="m401.50287 87.63443l0 0c-16.777283 -34.69897 -21.275604 -67.08478 -10.047241 -72.335724l0 0c5.392029 -2.521593 13.763733 1.6794558 23.273468 11.678964c9.509705 9.99951 19.378448 24.978369 27.43518 41.641403l0 0c16.777283 34.698975 21.275574 67.08477 10.047241 72.33572l0 0c-5.392029 2.5216064 -13.763763 -1.6794434 -23.273468 -11.678955c-9.509735 -9.999512 -19.378448 -24.97837 -27.43518 -41.641403z" fill-rule="evenodd"/><path fill="#f4cccc" d="m413.12146 90.20796l0 0c-15.281342 -31.606873 -22.268524 -59.75873 -15.606293 -62.87894l0 0c3.1992798 -1.4983768 9.182709 3.0941143 16.633972 12.767178c7.451233 9.673065 15.759949 23.634335 23.098297 38.812485l0 0c15.281342 31.606873 22.268494 59.758736 15.606293 62.878944l0 0c-3.1993103 1.4983826 -9.182709 -3.0941162 -16.633972 -12.767181c-7.451233 -9.673058 -15.759949 -23.63433 -23.098297 -38.812485z" fill-rule="evenodd"/><path stroke="#595959" stroke-width="8.0" stroke-linejoin="round" stroke-linecap="butt" d="m413.12146 90.20796l0 0c-15.281342 -31.606873 -22.268524 -59.75873 -15.606293 -62.87894l0 0c3.1992798 -1.4983768 9.182709 3.0941143 16.633972 12.767178c7.451233 9.673065 15.759949 23.634335 23.098297 38.812485l0 0c15.281342 31.606873 22.268494 59.758736 15.606293 62.878944l0 0c-3.1993103 1.4983826 -9.182709 -3.0941162 -16.633972 -12.767181c-7.451233 -9.673058 -15.759949 -23.63433 -23.098297 -38.812485z" fill-rule="evenodd"/><path fill="#eeeeee" d="m401.18155 160.57144l0 0c1.0500183 -9.923233 33.753876 -18.090332 76.080505 -18.999496c42.32663 -0.90914917 80.861176 5.727768 89.644684 15.439789l-9.648865 0.47590637l0 0c-11.230591 -5.419464 -46.079376 -8.810211 -82.61853 -8.038666c-36.539154 0.7715454 -64.200714 5.4822235 -65.579254 11.167938z" fill-rule="evenodd"/><path stroke="#595959" stroke-width="4.0" stroke-linejoin="round" stroke-linecap="butt" d="m401.18155 160.57144l0 0c1.0500183 -9.923233 33.753876 -18.090332 76.080505 -18.999496c42.32663 -0.90914917 80.861176 5.727768 89.644684 15.439789l-9.648865 0.47590637l0 0c-11.230591 -5.419464 -46.079376 -8.810211 -82.61853 -8.038666c-36.539154 0.7715454 -64.200714 5.4822235 -65.579254 11.167938z" fill-rule="evenodd"/><path fill="#000000" fill-opacity="0.0" d="m814.8478 708.3333l74.99213 -56.06299" fill-rule="evenodd"/><path stroke="#f1c232" stroke-width="12.0" stroke-linejoin="round" stroke-linecap="butt" d="m814.8478 708.3333l74.99213 -56.06299" fill-rule="evenodd"/><path fill="#000000" fill-opacity="0.0" d="m837.5748 718.93964l87.49603 -65.165344" fill-rule="evenodd"/><path stroke="#f1c232" stroke-width="12.0" stroke-linejoin="round" stroke-linecap="butt" d="m837.5748 718.93964l87.49603 -65.165344" fill-rule="evenodd"/><path fill="#000000" fill-opacity="0.0" d="m871.5932 722.2887l66.04724 -48.75586" fill-rule="evenodd"/><path stroke="#f1c232" stroke-width="12.0" stroke-linejoin="round" stroke-linecap="butt" d="m871.5932 722.2887l66.04724 -48.75586" fill-rule="evenodd"/><path fill="#000000" fill-opacity="0.0" d="m805.54596 687.4068l45.66925 -34.362183" fill-rule="evenodd"/><path stroke="#f1c232" stroke-width="12.0" stroke-linejoin="round" stroke-linecap="butt" d="m805.54596 687.4068l45.66925 -34.362183" fill-rule="evenodd"/><path fill="#000000" fill-opacity="0.0" d="m937.64044 652.5276l0 34.881836l0 0c0 19.26477 -29.570374 34.881897 -66.04724 34.881897c-36.47693 0 -66.04724 -15.617126 -66.04724 -34.881897l0 -34.881836z" fill-rule="evenodd"/><path stroke="#000000" stroke-width="8.0" stroke-linejoin="round" stroke-linecap="butt" d="m937.64044 652.5276l0 34.881836l0 0c0 19.26477 -29.570374 34.881897 -66.04724 34.881897c-36.47693 0 -66.04724 -15.617126 -66.04724 -34.881897l0 -34.881836z" fill-rule="evenodd"/></g></svg>