<svg version="1.1" viewBox="0.0 0.0 960.0 960.0" fill="none" stroke="none" stroke-linecap="square" stroke-miterlimit="10" xmlns:xlink="http://www.w3.org/1999/xlink" xmlns="http://www.w3.org/2000/svg"><clipPath id="g30ef9dd4849_0_40.0"><path d="m0 0l960.0 0l0 960.0l-960.0 0l0 -960.0z" clip-rule="nonzero"/></clipPath><g clip-path="url(#g30ef9dd4849_0_40.0)"><path fill="#000000" fill-opacity="0.0" d="m0 0l960.0 0l0 960.0l-960.0 0z" fill-rule="evenodd"/><path fill="#ff9900" d="m344.4427 731.32184l-37.38321 58.364807l15.4201355 6.8828125l-47.086792 50.013245l15.4201355 8.351501l-58.213165 83.736206l98.72299 -64.172485l-18.827911 -8.908264l61.339783 -41.10498l-21.980103 -12.700073l64.76462 -43.12085z" fill-rule="evenodd"/><path stroke="#000000" stroke-width="8.0" stroke-linejoin="round" stroke-linecap="butt" d="m344.4427 731.32184l-37.38321 58.364807l15.4201355 6.8828125l-47.086792 50.013245l15.4201355 8.351501l-58.213165 83.736206l98.72299 -64.172485l-18.827911 -8.908264l61.339783 -41.10498l-21.980103 -12.700073l64.76462 -43.12085z" fill-rule="evenodd"/><path fill="#ff9900" d="m616.99884 731.32184l35.204407 58.364807l-14.521423 6.8828125l44.34253 50.013245l-14.521423 8.351501l54.820374 83.736206l-92.96918 -64.172485l17.73053 -8.908264l-57.76477 -41.10498l20.699036 -12.700073l-60.98999 -43.12085z" fill-rule="evenodd"/><path stroke="#000000" stroke-width="8.0" stroke-linejoin="round" stroke-linecap="butt" d="m616.99884 731.32184l35.204407 58.364807l-14.521423 6.8828125l44.34253 50.013245l-14.521423 8.351501l54.820374 83.736206l-92.96918 -64.172485l17.73053 -8.908264l-57.76477 -41.10498l20.699036 -12.700073l-60.98999 -43.12085z" fill-rule="evenodd"/><path fill="#ff9900" d="m862.4395 598.98114l0 0c0 6.102356 -4.9469604 11.049316 -11.049377 11.049316l-44.195984 0l0 0c-2.930481 0 -5.740906 -1.1641235 -7.8130493 -3.236267c-2.0721436 -2.0721436 -3.236267 -4.8826294 -3.236267 -7.8130493l0 -58.506042c0 -6.102356 4.9469604 -11.049316 11.049316 -11.049316l44.195984 0c6.102417 0 11.049377 4.9469604 11.049377 11.049316z" fill-rule="evenodd"/><path stroke="#000000" stroke-width="8.0" stroke-linejoin="round" stroke-linecap="butt" d="m862.4395 598.98114l0 0c0 6.102356 -4.9469604 11.049316 -11.049377 11.049316l-44.195984 0l0 0c-2.930481 0 -5.740906 -1.1641235 -7.8130493 -3.236267c-2.0721436 -2.0721436 -3.236267 -4.8826294 -3.236267 -7.8130493l0 -58.506042c0 -6.102356 4.9469604 -11.049316 11.049316 -11.049316l44.195984 0c6.102417 0 11.049377 4.9469604 11.049377 11.049316z" fill-rule="evenodd"/><path fill="#ff9900" d="m862.4395 530.32245c0 7.4227295 -34.08484 13.440002 -76.130554 13.440002l0 0c-42.045776 0 -76.130615 -6.017273 -76.130615 -13.440002l0 0c0 -7.4227295 34.08484 -13.440063 76.130615 -13.440063l0 0c42.045715 0 76.130554 6.017334 76.130554 13.440063z" fill-rule="evenodd"/><path stroke="#000000" stroke-width="8.0" stroke-linejoin="round" stroke-linecap="butt" d="m862.4395 530.32245c0 7.4227295 -34.08484 13.440002 -76.130554 13.440002l0 0c-42.045776 0 -76.130615 -6.017273 -76.130615 -13.440002l0 0c0 -7.4227295 34.08484 -13.440063 76.130615 -13.440063l0 0c42.045715 0 76.130554 6.017334 76.130554 13.440063z" fill-rule="evenodd"/><path fill="#ff9900" d="m97.55926 461.66513l0 0c0 -6.1023865 4.9469604 -11.049347 11.049339 -11.049347l44.196 0l0 0c2.9304657 0 5.740906 1.1641235 7.8130646 3.236267c2.0721436 2.072174 3.236267 4.882599 3.236267 7.81308l0 58.506012c0 6.102356 -4.946945 11.049316 -11.049332 11.049316l-44.196 0c-6.102379 0 -11.049339 -4.9469604 -11.049339 -11.049316z" fill-rule="evenodd"/><path stroke="#000000" stroke-width="8.0" stroke-linejoin="round" stroke-linecap="butt" d="m97.55926 461.66513l0 0c0 -6.1023865 4.9469604 -11.049347 11.049339 -11.049347l44.196 0l0 0c2.9304657 0 5.740906 1.1641235 7.8130646 3.236267c2.0721436 2.072174 3.236267 4.882599 3.236267 7.81308l0 58.506012c0 6.102356 -4.946945 11.049316 -11.049332 11.049316l-44.196 0c-6.102379 0 -11.049339 -4.9469604 -11.049339 -11.049316z" fill-rule="evenodd"/><path fill="#ff9900" d="m97.55926 530.3238c0 -7.4227295 34.084816 -13.440002 76.13058 -13.440002l0 0c42.045746 0 76.13057 6.017273 76.13057 13.440002l0 0c0 7.4227295 -34.084824 13.440063 -76.13057 13.440063l0 0c-42.04576 0 -76.13058 -6.017334 -76.13058 -13.440063z" fill-rule="evenodd"/><path stroke="#000000" stroke-width="8.0" stroke-linejoin="round" stroke-linecap="butt" d="m97.55926 530.3238c0 -7.4227295 34.084816 -13.440002 76.13058 -13.440002l0 0c42.045746 0 76.13057 6.017273 76.13057 13.440002l0 0c0 7.4227295 -34.084824 13.440063 -76.13057 13.440063l0 0c-42.04576 0 -76.13058 -6.017334 -76.13058 -13.440063z" fill-rule="evenodd"/><path fill="#ff9900" d="m222.7353 513.4316l0 0c0 -157.97556 112.92186 -286.04004 252.21803 -286.04004l0 0c66.892365 0 131.04501 30.136276 178.34506 83.77919c47.30005 53.642914 73.872925 126.398315 73.872925 202.26083l0 0c0 157.97552 -112.921814 286.04004 -252.21799 286.04004l0 0c-139.29617 0 -252.21803 -128.06451 -252.21803 -286.04004z" fill-rule="evenodd"/><path stroke="#000000" stroke-width="8.0" stroke-linejoin="round" stroke-linecap="butt" d="m222.7353 513.4316l0 0c0 -157.97556 112.92186 -286.04004 252.21803 -286.04004l0 0c66.892365 0 131.04501 30.136276 178.34506 83.77919c47.30005 53.642914 73.872925 126.398315 73.872925 202.26083l0 0c0 157.97552 -112.921814 286.04004 -252.21799 286.04004l0 0c-139.29617 0 -252.21803 -128.06451 -252.21803 -286.04004z" fill-rule="evenodd"/><path fill="#000000" d="m285.95926 402.79517l0 0c0 -31.916718 37.24054 -57.790344 83.17905 -57.790344l0 0c45.938507 0 83.17905 25.873627 83.17905 57.790344l0 0c0 31.916718 -37.24054 57.790344 -83.17905 57.790344l0 0c-45.938507 0 -83.17905 -25.873627 -83.17905 -57.790344z" fill-rule="evenodd"/><path stroke="#000000" stroke-width="8.0" stroke-linejoin="round" stroke-linecap="butt" d="m285.95926 402.79517l0 0c0 -31.916718 37.24054 -57.790344 83.17905 -57.790344l0 0c45.938507 0 83.17905 25.873627 83.17905 57.790344l0 0c0 31.916718 -37.24054 57.790344 -83.17905 57.790344l0 0c-45.938507 0 -83.17905 -25.873627 -83.17905 -57.790344z" fill-rule="evenodd"/><path fill="#eeeeee" d="m322.0861 402.79102l0 0c0 -25.356873 21.509674 -45.91269 48.043213 -45.91269l0 0c12.741852 0 24.961853 4.837219 33.97168 13.44751c9.009857 8.610291 14.071533 20.288391 14.071533 32.46518l0 0c0 25.356903 -21.509674 45.91272 -48.043213 45.91272l0 0c-26.533539 0 -48.043213 -20.555817 -48.043213 -45.91272z" fill-rule="evenodd"/><path stroke="#000000" stroke-width="8.0" stroke-linejoin="round" stroke-linecap="butt" d="m322.0861 402.79102l0 0c0 -25.356873 21.509674 -45.91269 48.043213 -45.91269l0 0c12.741852 0 24.961853 4.837219 33.97168 13.44751c9.009857 8.610291 14.071533 20.288391 14.071533 32.46518l0 0c0 25.356903 -21.509674 45.91272 -48.043213 45.91272l0 0c-26.533539 0 -48.043213 -20.555817 -48.043213 -45.91272z" fill-rule="evenodd"/><path fill="#000000" d="m344.93036 402.7895l0 0c0 -11.8645935 11.271515 -21.482727 25.175629 -21.482727l0 0c13.904114 0 25.175629 9.618134 25.175629 21.482727l0 0c0 11.8645935 -11.271515 21.482758 -25.175629 21.482758l0 0c-13.904114 0 -25.175629 -9.618164 -25.175629 -21.482758z" fill-rule="evenodd"/><path stroke="#000000" stroke-width="8.0" stroke-linejoin="round" stroke-linecap="butt" d="m344.93036 402.7895l0 0c0 -11.8645935 11.271515 -21.482727 25.175629 -21.482727l0 0c13.904114 0 25.175629 9.618134 25.175629 21.482727l0 0c0 11.8645935 -11.271515 21.482758 -25.175629 21.482758l0 0c-13.904114 0 -25.175629 -9.618164 -25.175629 -21.482758z" fill-rule="evenodd"/><path fill="#000000" d="m497.4826 402.78568l0 0c0 -31.916748 37.24054 -57.790344 83.17908 -57.790344l0 0c45.938477 0 83.179016 25.873596 83.179016 57.790344l0 0c0 31.916718 -37.24054 57.790344 -83.179016 57.790344l0 0c-45.938538 0 -83.17908 -25.873627 -83.17908 -57.790344z" fill-rule="evenodd"/><path stroke="#000000" stroke-width="8.0" stroke-linejoin="round" stroke-linecap="butt" d="m497.4826 402.78568l0 0c0 -31.916748 37.24054 -57.790344 83.17908 -57.790344l0 0c45.938477 0 83.179016 25.873596 83.179016 57.790344l0 0c0 31.916718 -37.24054 57.790344 -83.179016 57.790344l0 0c-45.938538 0 -83.17908 -25.873627 -83.17908 -57.790344z" fill-rule="evenodd"/><path fill="#eeeeee" d="m537.72815 402.77438l0 0c0 -25.356873 21.509705 -45.91269 48.043274 -45.91269l0 0c12.741821 0 24.961792 4.837219 33.97168 13.44751c9.009827 8.610321 14.071533 20.288391 14.071533 32.46518l0 0c0 25.356903 -21.509705 45.91272 -48.043213 45.91272l0 0c-26.53357 0 -48.043274 -20.555817 -48.043274 -45.91272z" fill-rule="evenodd"/><path stroke="#000000" stroke-width="8.0" stroke-linejoin="round" stroke-linecap="butt" d="m537.72815 402.77438l0 0c0 -25.356873 21.509705 -45.91269 48.043274 -45.91269l0 0c12.741821 0 24.961792 4.837219 33.97168 13.44751c9.009827 8.610321 14.071533 20.288391 14.071533 32.46518l0 0c0 25.356903 -21.509705 45.91272 -48.043213 45.91272l0 0c-26.53357 0 -48.043274 -20.555817 -48.043274 -45.91272z" fill-rule="evenodd"/><path fill="#000000" d="m560.57245 402.77286l0 0c0 -11.864563 11.271484 -21.482727 25.175598 -21.482727l0 0c13.904175 0 25.17566 9.618164 25.17566 21.482727l0 0c0 11.8645935 -11.271484 21.482758 -25.17566 21.482758l0 0c-13.904114 0 -25.175598 -9.618164 -25.175598 -21.482758z" fill-rule="evenodd"/><path stroke="#000000" stroke-width="8.0" stroke-linejoin="round" stroke-linecap="butt" d="m560.57245 402.77286l0 0c0 -11.864563 11.271484 -21.482727 25.175598 -21.482727l0 0c13.904175 0 25.17566 9.618164 25.17566 21.482727l0 0c0 11.8645935 -11.271484 21.482758 -25.17566 21.482758l0 0c-13.904114 0 -25.175598 -9.618164 -25.175598 -21.482758z" fill-rule="evenodd"/><path fill="#ffffff" d="m609.43414 513.41345l0 0c0 29.12262 -57.12268 52.754272 -127.71744 52.83667c-70.59476 0.082336426 -128.04062 -23.415588 -128.43997 -52.53778l128.0777 -0.29888916z" fill-rule="evenodd"/><path stroke="#000000" stroke-width="8.0" stroke-linejoin="round" stroke-linecap="butt" d="m609.43414 513.41345l0 0c0 29.12262 -57.12268 52.754272 -127.71744 52.83667c-70.59476 0.082336426 -128.04062 -23.415588 -128.43997 -52.53778l128.0777 -0.29888916z" fill-rule="evenodd"/><path fill="#000000" fill-opacity="0.0" d="m509.16617 580.8762l-85.98108 23.284424l78.81735 30.45288l-59.112427 30.4505l57.321503 16.123108l14.327423 3.5818481" fill-rule="evenodd"/><path stroke="#000000" stroke-width="8.0" stroke-linejoin="round" stroke-linecap="butt" d="m509.16617 580.8762l-85.98108 23.284424l78.81735 30.45288l-59.112427 30.4505l57.321503 16.123108l14.327423 3.5818481" fill-rule="evenodd"/><path fill="#ff9900" d="m451.673 480.11813l10.306366 -41.225555l25.974579 0l10.3063965 41.225555z" fill-rule="evenodd"/><path stroke="#000000" stroke-width="8.0" stroke-linejoin="round" stroke-linecap="butt" d="m451.673 480.11813l10.306366 -41.225555l25.974579 0l10.3063965 41.225555z" fill-rule="evenodd"/><path fill="#000000" fill-opacity="0.0" d="m501.71536 516.50964l0.745697 50.564392" fill-rule="evenodd"/><path stroke="#000000" stroke-width="8.0" stroke-linejoin="round" stroke-linecap="butt" d="m501.71536 516.50964l0.745697 50.564392" fill-rule="evenodd"/><path fill="#000000" fill-opacity="0.0" d="m457.20264 512.3268l1.3493347 54.36377" fill-rule="evenodd"/><path stroke="#000000" stroke-width="8.0" stroke-linejoin="round" stroke-linecap="butt" d="m457.20264 512.3268l1.3493347 54.36377" fill-rule="evenodd"/><path fill="#000000" fill-opacity="0.0" d="m423.1839 513.9729l0.78118896 46.125732" fill-rule="evenodd"/><path stroke="#000000" stroke-width="8.0" stroke-linejoin="round" stroke-linecap="butt" d="m423.1839 513.9729l0.78118896 46.125732" fill-rule="evenodd"/><path fill="#000000" fill-opacity="0.0" d="m536.1474 516.44556l0.78118896 46.125732" fill-rule="evenodd"/><path stroke="#000000" stroke-width="8.0" stroke-linejoin="round" stroke-linecap="butt" d="m536.1474 516.44556l0.78118896 46.125732" fill-rule="evenodd"/><path fill="#000000" fill-opacity="0.0" d="m388.25305 516.50964l2.5210876 35.26013" fill-rule="evenodd"/><path stroke="#000000" stroke-width="8.0" stroke-linejoin="round" stroke-linecap="butt" d="m388.25305 516.50964l2.5210876 35.26013" fill-rule="evenodd"/><path fill="#000000" fill-opacity="0.0" d="m570.0379 515.41943l2.2370605 36.325317" fill-rule="evenodd"/><path stroke="#000000" stroke-width="8.0" stroke-linejoin="round" stroke-linecap="butt" d="m570.0379 515.41943l2.2370605 36.325317" fill-rule="evenodd"/><path fill="#000000" d="m418.17917 352.31833l119.55765 0l0 54.36374l-119.55765 0z" fill-rule="evenodd"/><path stroke="#000000" stroke-width="1.0" stroke-linejoin="round" stroke-linecap="butt" d="m418.17917 352.31833l119.55765 0l0 54.36374l-119.55765 0z" fill-rule="evenodd"/><path fill="#000000" d="m448.40936 375.6127l66.29468 0l0 54.36377l-66.29468 0z" fill-rule="evenodd"/><path stroke="#000000" stroke-width="1.0" stroke-linejoin="round" stroke-linecap="butt" d="m448.40936 375.6127l66.29468 0l0 54.36377l-66.29468 0z" fill-rule="evenodd"/><path fill="#000000" d="m372.7579 341.98703l210.38882 0l0 11.788879l-210.38882 0z" fill-rule="evenodd"/><path stroke="#000000" stroke-width="1.0" stroke-linejoin="round" stroke-linecap="butt" d="m372.7579 341.98703l210.38882 0l0 11.788879l-210.38882 0z" fill-rule="evenodd"/><path fill="#000000" d="m281.6462 329.83508l29.156006 39.30063l-23.8331 46.735077l-43.73755 -13.55307z" fill-rule="evenodd"/><path stroke="#000000" stroke-width="8.0" stroke-linejoin="round" stroke-linecap="butt" d="m281.6462 329.83508l29.156006 39.30063l-23.8331 46.735077l-43.73755 -13.55307z" fill-rule="evenodd"/><path fill="#000000" d="m381.00726 345.006l210.3888 0l0 11.788879l-210.3888 0z" fill-rule="evenodd"/><path stroke="#000000" stroke-width="1.0" stroke-linejoin="round" stroke-linecap="butt" d="m381.00726 345.006l210.3888 0l0 11.788879l-210.3888 0z" fill-rule="evenodd"/><path fill="#000000" d="m669.31464 329.83508l-29.156006 39.30063l23.833069 46.735077l43.73755 -13.55307z" fill-rule="evenodd"/><path stroke="#000000" stroke-width="8.0" stroke-linejoin="round" stroke-linecap="butt" d="m669.31464 329.83508l-29.156006 39.30063l23.833069 46.735077l43.73755 -13.55307z" fill-rule="evenodd"/><path fill="#38761d" d="m388.32224 229.98135l7.589447 -187.106l168.5849 0l7.5894165 187.106z" fill-rule="evenodd"/><path stroke="#000000" stroke-width="8.0" stroke-linejoin="round" stroke-linecap="butt" d="m388.32224 229.98135l7.589447 -187.106l168.5849 0l7.5894165 187.106z" fill-rule="evenodd"/><path fill="#783f04" d="m566.54675 139.44995l0 0c-48.05237 40.415695 -121.95865 43.37961 -173.8714 6.972885l27.628387 -31.440498l0 0c34.962006 21.94114 83.34915 20.123375 115.86948 -4.3528976z" fill-rule="evenodd"/><path stroke="#783f04" stroke-width="8.0" stroke-linejoin="round" stroke-linecap="butt" d="m566.54675 139.44995l0 0c-48.05237 40.415695 -121.95865 43.37961 -173.8714 6.972885l27.628387 -31.440498l0 0c34.962006 21.94114 83.34915 20.123375 115.86948 -4.3528976z" fill-rule="evenodd"/><path fill="#000000" fill-opacity="0.0" d="m452.60938 126.92704l52.460846 0l0 40.373863l-52.460846 0z" fill-rule="evenodd"/><path stroke="#f1c232" stroke-width="8.0" stroke-linejoin="round" stroke-linecap="butt" d="m452.60938 126.92704l52.460846 0l0 40.373863l-52.460846 0z" fill-rule="evenodd"/><path fill="#38761d" d="m335.82266 243.42197l0 0c0 -3.5651398 14.658539 -6.984268 40.750916 -9.5052185c26.092377 -2.520935 61.48123 -3.9371948 98.38141 -3.9371948l0 0c76.84067 0 139.1323 6.0183716 139.1323 13.442413l0 0c0 7.4240417 -62.291626 13.442413 -139.1323 13.442413l0 0c-76.84067 0 -139.13232 -6.0183716 -139.13232 -13.442413z" fill-rule="evenodd"/><path stroke="#000000" stroke-width="8.0" stroke-linejoin="round" stroke-linecap="butt" d="m335.82266 243.42197l0 0c0 -3.5651398 14.658539 -6.984268 40.750916 -9.5052185c26.092377 -2.520935 61.48123 -3.9371948 98.38141 -3.9371948l0 0c76.84067 0 139.1323 6.0183716 139.1323 13.442413l0 0c0 7.4240417 -62.291626 13.442413 -139.1323 13.442413l0 0c-76.84067 0 -139.13232 -6.0183716 -139.13232 -13.442413z" fill-rule="evenodd"/><path fill="#666666" d="m758.68506 744.67847l0 0c0 -41.39093 33.553955 -74.944885 74.944885 -74.944885l0 0c19.876587 0 38.939148 7.895996 52.99402 21.950867c14.054871 14.054871 21.950867 33.11743 21.950867 52.99402l0 0c0 41.39093 -33.554016 74.944885 -74.944885 74.944885l0 0c-41.39093 0 -74.944885 -33.553955 -74.944885 -74.944885z" fill-rule="evenodd"/><path stroke="#000000" stroke-width="8.0" stroke-linejoin="round" stroke-linecap="butt" d="m758.68506 744.67847l0 0c0 -41.39093 33.553955 -74.944885 74.944885 -74.944885l0 0c19.876587 0 38.939148 7.895996 52.99402 21.950867c14.054871 14.054871 21.950867 33.11743 21.950867 52.99402l0 0c0 41.39093 -33.554016 74.944885 -74.944885 74.944885l0 0c-41.39093 0 -74.944885 -33.553955 -74.944885 -74.944885z" fill-rule="evenodd"/><path fill="#000000" d="m769.3779 693.6063l0 0c0 -8.149475 27.687866 -14.75592 61.84253 -14.75592l0 0c34.154724 0 61.84253 6.6064453 61.84253 14.75592l0 0c0 8.149414 -27.687805 14.755859 -61.84253 14.755859l0 0c-34.154663 0 -61.84253 -6.6064453 -61.84253 -14.755859z" fill-rule="evenodd"/><path stroke="#000000" stroke-width="8.0" stroke-linejoin="round" stroke-linecap="butt" d="m769.3779 693.6063l0 0c0 -8.149475 27.687866 -14.75592 61.84253 -14.75592l0 0c34.154724 0 61.84253 6.6064453 61.84253 14.75592l0 0c0 8.149414 -27.687805 14.755859 -61.84253 14.755859l0 0c-34.154663 0 -61.84253 -6.6064453 -61.84253 -14.755859z" fill-rule="evenodd"/><path fill="#666666" d="m773.86615 691.6483l0 0c0 -4.9401245 25.530334 -8.944885 57.02362 -8.944885l0 0c31.493286 0 57.02362 4.0047607 57.02362 8.944885l0 0c0 4.9401245 -25.530334 8.944885 -57.02362 8.944885l0 0c-31.493286 0 -57.02362 -4.0047607 -57.02362 -8.944885z" fill-rule="evenodd"/><path fill="#f1c232" d="m810.00494 629.96875l11.965759 0l0 0c1.5675049 0 2.8382568 0.94421387 2.8382568 2.1089478c0 1.1647949 -1.270752 2.1090088 -2.8382568 2.1090088l-11.965759 0l0 0c-1.5675659 0 -2.8382568 -0.94421387 -2.8382568 -2.1090088c0 -1.1647339 1.2706909 -2.1089478 2.8382568 -2.1089478z" fill-rule="evenodd"/><path stroke="#595959" stroke-width="1.0" stroke-linejoin="round" stroke-linecap="butt" d="m810.00494 629.96875l11.965759 0l0 0c1.5675049 0 2.8382568 0.94421387 2.8382568 2.1089478c0 1.1647949 -1.270752 2.1090088 -2.8382568 2.1090088l-11.965759 0l0 0c-1.5675659 0 -2.8382568 -0.94421387 -2.8382568 -2.1090088c0 -1.1647339 1.2706909 -2.1089478 2.8382568 -2.1089478z" fill-rule="evenodd"/><path fill="#f1c232" d="m810.005 634.1866l11.965759 0l0 0c1.5675049 0 2.8382568 0.94421387 2.8382568 2.1089478c0 1.1647949 -1.270752 2.1090088 -2.8382568 2.1090088l-11.965759 0l0 0c-1.5675659 0 -2.8383179 -0.94421387 -2.8383179 -2.1090088c0 -1.1647339 1.270752 -2.1089478 2.8383179 -2.1089478z" fill-rule="evenodd"/><path stroke="#595959" stroke-width="1.0" stroke-linejoin="round" stroke-linecap="butt" d="m810.005 634.1866l11.965759 0l0 0c1.5675049 0 2.8382568 0.94421387 2.8382568 2.1089478c0 1.1647949 -1.270752 2.1090088 -2.8382568 2.1090088l-11.965759 0l0 0c-1.5675659 0 -2.8383179 -0.94421387 -2.8383179 -2.1090088c0 -1.1647339 1.270752 -2.1089478 2.8383179 -2.1089478z" fill-rule="evenodd"/><path fill="#f1c232" d="m810.00507 638.4044l11.965759 0l0 0c1.5675049 0 2.8382568 0.94421387 2.8382568 2.1090088c0 1.1647339 -1.270752 2.1089478 -2.8382568 2.1089478l-11.965759 0l0 0c-1.5675659 0 -2.8383179 -0.94421387 -2.8383179 -2.1089478c0 -1.1647949 1.270752 -2.1090088 2.8383179 -2.1090088z" fill-rule="evenodd"/><path stroke="#595959" stroke-width="1.0" stroke-linejoin="round" stroke-linecap="butt" d="m810.00507 638.4044l11.965759 0l0 0c1.5675049 0 2.8382568 0.94421387 2.8382568 2.1090088c0 1.1647339 -1.270752 2.1089478 -2.8382568 2.1089478l-11.965759 0l0 0c-1.5675659 0 -2.8383179 -0.94421387 -2.8383179 -2.1089478c0 -1.1647949 1.270752 -2.1090088 2.8383179 -2.1090088z" fill-rule="evenodd"/><path fill="#f1c232" d="m810.0051 642.6223l11.965698 0l0 0c1.5675659 0 2.8383179 0.94421387 2.8383179 2.1089478c0 1.1647339 -1.270752 2.1089478 -2.8383179 2.1089478l-11.965698 0l0 0c-1.5675659 0 -2.8383179 -0.94421387 -2.8383179 -2.1089478c0 -1.1647339 1.270752 -2.1089478 2.8383179 -2.1089478z" fill-rule="evenodd"/><path stroke="#595959" stroke-width="1.0" stroke-linejoin="round" stroke-linecap="butt" d="m810.0051 642.6223l11.965698 0l0 0c1.5675659 0 2.8383179 0.94421387 2.8383179 2.1089478c0 1.1647339 -1.270752 2.1089478 -2.8383179 2.1089478l-11.965698 0l0 0c-1.5675659 0 -2.8383179 -0.94421387 -2.8383179 -2.1089478c0 -1.1647339 1.270752 -2.1089478 2.8383179 -2.1089478z" fill-rule="evenodd"/><path fill="#f1c232" d="m810.0052 646.84015l11.965698 0l0 0c1.5675659 0 2.8383179 0.94421387 2.8383179 2.1089478c0 1.1647949 -1.270752 2.1090088 -2.8383179 2.1090088l-11.965698 0l0 0c-1.5675659 0 -2.8383179 -0.94421387 -2.8383179 -2.1090088c0 -1.1647339 1.270752 -2.1089478 2.8383179 -2.1089478z" fill-rule="evenodd"/><path stroke="#595959" stroke-width="1.0" stroke-linejoin="round" stroke-linecap="butt" d="m810.0052 646.84015l11.965698 0l0 0c1.5675659 0 2.8383179 0.94421387 2.8383179 2.1089478c0 1.1647949 -1.270752 2.1090088 -2.8383179 2.1090088l-11.965698 0l0 0c-1.5675659 0 -2.8383179 -0.94421387 -2.8383179 -2.1090088c0 -1.1647339 1.270752 -2.1089478 2.8383179 -2.1089478z" fill-rule="evenodd"/><path fill="#f1c232" d="m810.0052 651.058l11.965759 0l0 0c1.5675659 0 2.8383179 0.94421387 2.8383179 2.1089478c0 1.1647949 -1.270752 2.1090088 -2.8383179 2.1090088l-11.965759 0l0 0c-1.5675049 0 -2.8382568 -0.94421387 -2.8382568 -2.1090088c0 -1.1647339 1.270752 -2.1089478 2.8382568 -2.1089478z" fill-rule="evenodd"/><path stroke="#595959" stroke-width="1.0" stroke-linejoin="round" stroke-linecap="butt" d="m810.0052 651.058l11.965759 0l0 0c1.5675659 0 2.8383179 0.94421387 2.8383179 2.1089478c0 1.1647949 -1.270752 2.1090088 -2.8383179 2.1090088l-11.965759 0l0 0c-1.5675049 0 -2.8382568 -0.94421387 -2.8382568 -2.1090088c0 -1.1647339 1.270752 -2.1089478 2.8382568 -2.1089478z" fill-rule="evenodd"/><path fill="#f1c232" d="m810.00525 655.2758l11.965759 0l0 0c1.5675659 0 2.8383179 0.94421387 2.8383179 2.1090088c0 1.1647339 -1.270752 2.1089478 -2.8383179 2.1089478l-11.965759 0l0 0c-1.5675049 0 -2.8382568 -0.94421387 -2.8382568 -2.1089478c0 -1.1647949 1.270752 -2.1090088 2.8382568 -2.1090088z" fill-rule="evenodd"/><path stroke="#595959" stroke-width="1.0" stroke-linejoin="round" stroke-linecap="butt" d="m810.00525 655.2758l11.965759 0l0 0c1.5675659 0 2.8383179 0.94421387 2.8383179 2.1090088c0 1.1647339 -1.270752 2.1089478 -2.8383179 2.1089478l-11.965759 0l0 0c-1.5675049 0 -2.8382568 -0.94421387 -2.8382568 -2.1089478c0 -1.1647949 1.270752 -2.1090088 2.8382568 -2.1090088z" fill-rule="evenodd"/><path fill="#f1c232" d="m810.0053 659.49365l11.965759 0l0 0c1.5675049 0 2.8382568 0.9442749 2.8382568 2.1090088c0 1.1647339 -1.270752 2.1089478 -2.8382568 2.1089478l-11.965759 0l0 0c-1.5675659 0 -2.8382568 -0.94421387 -2.8382568 -2.1089478c0 -1.1647339 1.2706909 -2.1090088 2.8382568 -2.1090088z" fill-rule="evenodd"/><path stroke="#595959" stroke-width="1.0" stroke-linejoin="round" stroke-linecap="butt" d="m810.0053 659.49365l11.965759 0l0 0c1.5675049 0 2.8382568 0.9442749 2.8382568 2.1090088c0 1.1647339 -1.270752 2.1089478 -2.8382568 2.1089478l-11.965759 0l0 0c-1.5675659 0 -2.8382568 -0.94421387 -2.8382568 -2.1089478c0 -1.1647339 1.2706909 -2.1090088 2.8382568 -2.1090088z" fill-rule="evenodd"/><path fill="#f1c232" d="m810.0054 663.71155l11.965759 0l0 0c1.5675049 0 2.8382568 0.94421387 2.8382568 2.1089478c0 1.1647949 -1.270752 2.1090088 -2.8382568 2.1090088l-11.965759 0l0 0c-1.5675659 0 -2.8383179 -0.94421387 -2.8383179 -2.1090088c0 -1.1647339 1.270752 -2.1089478 2.8383179 -2.1089478z" fill-rule="evenodd"/><path stroke="#595959" stroke-width="1.0" stroke-linejoin="round" stroke-linecap="butt" d="m810.0054 663.71155l11.965759 0l0 0c1.5675049 0 2.8382568 0.94421387 2.8382568 2.1089478c0 1.1647949 -1.270752 2.1090088 -2.8382568 2.1090088l-11.965759 0l0 0c-1.5675659 0 -2.8383179 -0.94421387 -2.8383179 -2.1090088c0 -1.1647339 1.270752 -2.1089478 2.8383179 -2.1089478z" fill-rule="evenodd"/><path fill="#f1c232" d="m810.00543 667.9294l11.965759 0l0 0c1.5675049 0 2.8382568 0.94421387 2.8382568 2.1089478c0 1.1647949 -1.270752 2.1090088 -2.8382568 2.1090088l-11.965759 0l0 0c-1.5675659 0 -2.8383179 -0.94421387 -2.8383179 -2.1090088c0 -1.1647339 1.270752 -2.1089478 2.8383179 -2.1089478z" fill-rule="evenodd"/><path stroke="#595959" stroke-width="1.0" stroke-linejoin="round" stroke-linecap="butt" d="m810.00543 667.9294l11.965759 0l0 0c1.5675049 0 2.8382568 0.94421387 2.8382568 2.1089478c0 1.1647949 -1.270752 2.1090088 -2.8382568 2.1090088l-11.965759 0l0 0c-1.5675659 0 -2.8383179 -0.94421387 -2.8383179 -2.1090088c0 -1.1647339 1.270752 -2.1089478 2.8383179 -2.1089478z" fill-rule="evenodd"/><path fill="#f1c232" d="m810.0055 672.1472l11.965698 0l0 0c1.5675659 0 2.8383179 0.94421387 2.8383179 2.1090088c0 1.1647339 -1.270752 2.1089478 -2.8383179 2.1089478l-11.965698 0l0 0c-1.5675659 0 -2.8383179 -0.94421387 -2.8383179 -2.1089478c0 -1.1647949 1.270752 -2.1090088 2.8383179 -2.1090088z" fill-rule="evenodd"/><path stroke="#595959" stroke-width="1.0" stroke-linejoin="round" stroke-linecap="butt" d="m810.0055 672.1472l11.965698 0l0 0c1.5675659 0 2.8383179 0.94421387 2.8383179 2.1090088c0 1.1647339 -1.270752 2.1089478 -2.8383179 2.1089478l-11.965698 0l0 0c-1.5675659 0 -2.8383179 -0.94421387 -2.8383179 -2.1089478c0 -1.1647949 1.270752 -2.1090088 2.8383179 -2.1090088z" fill-rule="evenodd"/><path fill="#f1c232" d="m810.0055 676.36505l11.965759 0l0 0c1.5675659 0 2.8383179 0.9442749 2.8383179 2.1090088c0 1.1647339 -1.270752 2.1089478 -2.8383179 2.1089478l-11.965759 0l0 0c-1.5675049 0 -2.8382568 -0.94421387 -2.8382568 -2.1089478c0 -1.1647339 1.270752 -2.1090088 2.8382568 -2.1090088z" fill-rule="evenodd"/><path stroke="#595959" stroke-width="1.0" stroke-linejoin="round" stroke-linecap="butt" d="m810.0055 676.36505l11.965759 0l0 0c1.5675659 0 2.8383179 0.9442749 2.8383179 2.1090088c0 1.1647339 -1.270752 2.1089478 -2.8383179 2.1089478l-11.965759 0l0 0c-1.5675049 0 -2.8382568 -0.94421387 -2.8382568 -2.1089478c0 -1.1647339 1.270752 -2.1090088 2.8382568 -2.1090088z" fill-rule="evenodd"/><path fill="#f1c232" d="m810.00555 680.58295l11.965759 0l0 0c1.5675659 0 2.8383179 0.94421387 2.8383179 2.1089478c0 1.1647949 -1.270752 2.1090088 -2.8383179 2.1090088l-11.965759 0l0 0c-1.5675049 0 -2.8382568 -0.94421387 -2.8382568 -2.1090088c0 -1.1647339 1.270752 -2.1089478 2.8382568 -2.1089478z" fill-rule="evenodd"/><path stroke="#595959" stroke-width="1.0" stroke-linejoin="round" stroke-linecap="butt" d="m810.00555 680.58295l11.965759 0l0 0c1.5675659 0 2.8383179 0.94421387 2.8383179 2.1089478c0 1.1647949 -1.270752 2.1090088 -2.8383179 2.1090088l-11.965759 0l0 0c-1.5675049 0 -2.8382568 -0.94421387 -2.8382568 -2.1090088c0 -1.1647339 1.270752 -2.1089478 2.8382568 -2.1089478z" fill-rule="evenodd"/><path fill="#eeeeee" d="m766.9723 686.9261l0 0c-0.25091553 -31.376465 11.877747 -60.52899 31.77948 -76.3855c19.901733 -15.856567 44.523254 -15.984375 64.51337 -0.3348999c19.990112 15.649475 32.28192 44.675232 32.20697 76.053345l-8.32959 -0.0368042c0.06274414 -28.383179 -10.634033 -54.637512 -28.02893 -68.79462c-17.394958 -14.1571045 -38.82025 -14.045898 -56.141235 0.29144287c-17.320984 14.337341 -27.881226 40.701965 -27.671143 69.08374z" fill-rule="evenodd"/><path stroke="#000000" stroke-width="3.0" stroke-linejoin="round" stroke-linecap="butt" d="m766.9723 686.9261l0 0c-0.25091553 -31.376465 11.877747 -60.52899 31.77948 -76.3855c19.901733 -15.856567 44.523254 -15.984375 64.51337 -0.3348999c19.990112 15.649475 32.28192 44.675232 32.20697 76.053345l-8.32959 -0.0368042c0.06274414 -28.383179 -10.634033 -54.637512 -28.02893 -68.79462c-17.394958 -14.1571045 -38.82025 -14.045898 -56.141235 0.29144287c-17.320984 14.337341 -27.881226 40.701965 -27.671143 69.08374z" fill-rule="evenodd"/><path fill="#f1c232" d="m827.648 629.96875l11.965698 0l0 0c1.5675659 0 2.8383179 0.94421387 2.8383179 2.1089478c0 1.1647949 -1.270752 2.1090088 -2.8383179 2.1090088l-11.965698 0l0 0c-1.5675659 0 -2.8383179 -0.94421387 -2.8383179 -2.1090088c0 -1.1647339 1.270752 -2.1089478 2.8383179 -2.1089478z" fill-rule="evenodd"/><path stroke="#595959" stroke-width="1.0" stroke-linejoin="round" stroke-linecap="butt" d="m827.648 629.96875l11.965698 0l0 0c1.5675659 0 2.8383179 0.94421387 2.8383179 2.1089478c0 1.1647949 -1.270752 2.1090088 -2.8383179 2.1090088l-11.965698 0l0 0c-1.5675659 0 -2.8383179 -0.94421387 -2.8383179 -2.1090088c0 -1.1647339 1.270752 -2.1089478 2.8383179 -2.1089478z" fill-rule="evenodd"/><path fill="#f1c232" d="m827.6481 634.1866l11.965698 0l0 0c1.5675659 0 2.8383179 0.94421387 2.8383179 2.1089478c0 1.1647949 -1.270752 2.1090088 -2.8383179 2.1090088l-11.965698 0l0 0c-1.5675659 0 -2.8383179 -0.94421387 -2.8383179 -2.1090088c0 -1.1647339 1.270752 -2.1089478 2.8383179 -2.1089478z" fill-rule="evenodd"/><path stroke="#595959" stroke-width="1.0" stroke-linejoin="round" stroke-linecap="butt" d="m827.6481 634.1866l11.965698 0l0 0c1.5675659 0 2.8383179 0.94421387 2.8383179 2.1089478c0 1.1647949 -1.270752 2.1090088 -2.8383179 2.1090088l-11.965698 0l0 0c-1.5675659 0 -2.8383179 -0.94421387 -2.8383179 -2.1090088c0 -1.1647339 1.270752 -2.1089478 2.8383179 -2.1089478z" fill-rule="evenodd"/><path fill="#f1c232" d="m827.6481 638.4044l11.965759 0l0 0c1.5675659 0 2.8383179 0.94421387 2.8383179 2.1090088c0 1.1647339 -1.270752 2.1089478 -2.8383179 2.1089478l-11.965759 0l0 0c-1.5675049 0 -2.8382568 -0.94421387 -2.8382568 -2.1089478c0 -1.1647949 1.270752 -2.1090088 2.8382568 -2.1090088z" fill-rule="evenodd"/><path stroke="#595959" stroke-width="1.0" stroke-linejoin="round" stroke-linecap="butt" d="m827.6481 638.4044l11.965759 0l0 0c1.5675659 0 2.8383179 0.94421387 2.8383179 2.1090088c0 1.1647339 -1.270752 2.1089478 -2.8383179 2.1089478l-11.965759 0l0 0c-1.5675049 0 -2.8382568 -0.94421387 -2.8382568 -2.1089478c0 -1.1647949 1.270752 -2.1090088 2.8382568 -2.1090088z" fill-rule="evenodd"/><path fill="#f1c232" d="m827.64813 642.6223l11.965759 0l0 0c1.5675659 0 2.8383179 0.94421387 2.8383179 2.1089478c0 1.1647339 -1.270752 2.1089478 -2.8383179 2.1089478l-11.965759 0l0 0c-1.5675049 0 -2.8382568 -0.94421387 -2.8382568 -2.1089478c0 -1.1647339 1.270752 -2.1089478 2.8382568 -2.1089478z" fill-rule="evenodd"/><path stroke="#595959" stroke-width="1.0" stroke-linejoin="round" stroke-linecap="butt" d="m827.64813 642.6223l11.965759 0l0 0c1.5675659 0 2.8383179 0.94421387 2.8383179 2.1089478c0 1.1647339 -1.270752 2.1089478 -2.8383179 2.1089478l-11.965759 0l0 0c-1.5675049 0 -2.8382568 -0.94421387 -2.8382568 -2.1089478c0 -1.1647339 1.270752 -2.1089478 2.8382568 -2.1089478z" fill-rule="evenodd"/><path fill="#f1c232" d="m827.6482 646.84015l11.965759 0l0 0c1.5675659 0 2.8382568 0.94421387 2.8382568 2.1089478c0 1.1647949 -1.2706909 2.1090088 -2.8382568 2.1090088l-11.965759 0l0 0c-1.5675659 0 -2.8382568 -0.94421387 -2.8382568 -2.1090088c0 -1.1647339 1.2706909 -2.1089478 2.8382568 -2.1089478z" fill-rule="evenodd"/><path stroke="#595959" stroke-width="1.0" stroke-linejoin="round" stroke-linecap="butt" d="m827.6482 646.84015l11.965759 0l0 0c1.5675659 0 2.8382568 0.94421387 2.8382568 2.1089478c0 1.1647949 -1.2706909 2.1090088 -2.8382568 2.1090088l-11.965759 0l0 0c-1.5675659 0 -2.8382568 -0.94421387 -2.8382568 -2.1090088c0 -1.1647339 1.2706909 -2.1089478 2.8382568 -2.1089478z" fill-rule="evenodd"/><path fill="#f1c232" d="m827.64825 651.058l11.965759 0l0 0c1.5675049 0 2.8382568 0.94421387 2.8382568 2.1089478c0 1.1647949 -1.270752 2.1090088 -2.8382568 2.1090088l-11.965759 0l0 0c-1.5675659 0 -2.8383179 -0.94421387 -2.8383179 -2.1090088c0 -1.1647339 1.270752 -2.1089478 2.8383179 -2.1089478z" fill-rule="evenodd"/><path stroke="#595959" stroke-width="1.0" stroke-linejoin="round" stroke-linecap="butt" d="m827.64825 651.058l11.965759 0l0 0c1.5675049 0 2.8382568 0.94421387 2.8382568 2.1089478c0 1.1647949 -1.270752 2.1090088 -2.8382568 2.1090088l-11.965759 0l0 0c-1.5675659 0 -2.8383179 -0.94421387 -2.8383179 -2.1090088c0 -1.1647339 1.270752 -2.1089478 2.8383179 -2.1089478z" fill-rule="evenodd"/><path fill="#f1c232" d="m827.6483 655.2758l11.965759 0l0 0c1.5675049 0 2.8382568 0.94421387 2.8382568 2.1090088c0 1.1647339 -1.270752 2.1089478 -2.8382568 2.1089478l-11.965759 0l0 0c-1.5675659 0 -2.8383179 -0.94421387 -2.8383179 -2.1089478c0 -1.1647949 1.270752 -2.1090088 2.8383179 -2.1090088z" fill-rule="evenodd"/><path stroke="#595959" stroke-width="1.0" stroke-linejoin="round" stroke-linecap="butt" d="m827.6483 655.2758l11.965759 0l0 0c1.5675049 0 2.8382568 0.94421387 2.8382568 2.1090088c0 1.1647339 -1.270752 2.1089478 -2.8382568 2.1089478l-11.965759 0l0 0c-1.5675659 0 -2.8383179 -0.94421387 -2.8383179 -2.1089478c0 -1.1647949 1.270752 -2.1090088 2.8383179 -2.1090088z" fill-rule="evenodd"/><path fill="#f1c232" d="m827.6484 659.49365l11.965698 0l0 0c1.5675659 0 2.8383179 0.9442749 2.8383179 2.1090088c0 1.1647339 -1.270752 2.1089478 -2.8383179 2.1089478l-11.965698 0l0 0c-1.5675659 0 -2.8383179 -0.94421387 -2.8383179 -2.1089478c0 -1.1647339 1.270752 -2.1090088 2.8383179 -2.1090088z" fill-rule="evenodd"/><path stroke="#595959" stroke-width="1.0" stroke-linejoin="round" stroke-linecap="butt" d="m827.6484 659.49365l11.965698 0l0 0c1.5675659 0 2.8383179 0.9442749 2.8383179 2.1090088c0 1.1647339 -1.270752 2.1089478 -2.8383179 2.1089478l-11.965698 0l0 0c-1.5675659 0 -2.8383179 -0.94421387 -2.8383179 -2.1089478c0 -1.1647339 1.270752 -2.1090088 2.8383179 -2.1090088z" fill-rule="evenodd"/><path fill="#f1c232" d="m827.64844 663.71155l11.965698 0l0 0c1.5675659 0 2.8383179 0.94421387 2.8383179 2.1089478c0 1.1647949 -1.270752 2.1090088 -2.8383179 2.1090088l-11.965698 0l0 0c-1.5675659 0 -2.8383179 -0.94421387 -2.8383179 -2.1090088c0 -1.1647339 1.270752 -2.1089478 2.8383179 -2.1089478z" fill-rule="evenodd"/><path stroke="#595959" stroke-width="1.0" stroke-linejoin="round" stroke-linecap="butt" d="m827.64844 663.71155l11.965698 0l0 0c1.5675659 0 2.8383179 0.94421387 2.8383179 2.1089478c0 1.1647949 -1.270752 2.1090088 -2.8383179 2.1090088l-11.965698 0l0 0c-1.5675659 0 -2.8383179 -0.94421387 -2.8383179 -2.1090088c0 -1.1647339 1.270752 -2.1089478 2.8383179 -2.1089478z" fill-rule="evenodd"/><path fill="#f1c232" d="m827.64844 667.9294l11.965759 0l0 0c1.5675659 0 2.8383179 0.94421387 2.8383179 2.1089478c0 1.1647949 -1.270752 2.1090088 -2.8383179 2.1090088l-11.965759 0l0 0c-1.5675049 0 -2.8382568 -0.94421387 -2.8382568 -2.1090088c0 -1.1647339 1.270752 -2.1089478 2.8382568 -2.1089478z" fill-rule="evenodd"/><path stroke="#595959" stroke-width="1.0" stroke-linejoin="round" stroke-linecap="butt" d="m827.64844 667.9294l11.965759 0l0 0c1.5675659 0 2.8383179 0.94421387 2.8383179 2.1089478c0 1.1647949 -1.270752 2.1090088 -2.8383179 2.1090088l-11.965759 0l0 0c-1.5675049 0 -2.8382568 -0.94421387 -2.8382568 -2.1090088c0 -1.1647339 1.270752 -2.1089478 2.8382568 -2.1089478z" fill-rule="evenodd"/><path fill="#f1c232" d="m827.6485 672.1472l11.965759 0l0 0c1.5675659 0 2.8383179 0.94421387 2.8383179 2.1090088c0 1.1647339 -1.270752 2.1089478 -2.8383179 2.1089478l-11.965759 0l0 0c-1.5675049 0 -2.8382568 -0.94421387 -2.8382568 -2.1089478c0 -1.1647949 1.270752 -2.1090088 2.8382568 -2.1090088z" fill-rule="evenodd"/><path stroke="#595959" stroke-width="1.0" stroke-linejoin="round" stroke-linecap="butt" d="m827.6485 672.1472l11.965759 0l0 0c1.5675659 0 2.8383179 0.94421387 2.8383179 2.1090088c0 1.1647339 -1.270752 2.1089478 -2.8383179 2.1089478l-11.965759 0l0 0c-1.5675049 0 -2.8382568 -0.94421387 -2.8382568 -2.1089478c0 -1.1647949 1.270752 -2.1090088 2.8382568 -2.1090088z" fill-rule="evenodd"/><path fill="#f1c232" d="m827.64856 676.36505l11.965759 0l0 0c1.5675659 0 2.8382568 0.9442749 2.8382568 2.1090088c0 1.1647339 -1.2706909 2.1089478 -2.8382568 2.1089478l-11.965759 0l0 0c-1.5675659 0 -2.8382568 -0.94421387 -2.8382568 -2.1089478c0 -1.1647339 1.2706909 -2.1090088 2.8382568 -2.1090088z" fill-rule="evenodd"/><path stroke="#595959" stroke-width="1.0" stroke-linejoin="round" stroke-linecap="butt" d="m827.64856 676.36505l11.965759 0l0 0c1.5675659 0 2.8382568 0.9442749 2.8382568 2.1090088c0 1.1647339 -1.2706909 2.1089478 -2.8382568 2.1089478l-11.965759 0l0 0c-1.5675659 0 -2.8382568 -0.94421387 -2.8382568 -2.1089478c0 -1.1647339 1.2706909 -2.1090088 2.8382568 -2.1090088z" fill-rule="evenodd"/><path fill="#f1c232" d="m827.6486 680.58295l11.965759 0l0 0c1.5675049 0 2.8382568 0.94421387 2.8382568 2.1089478c0 1.1647949 -1.270752 2.1090088 -2.8382568 2.1090088l-11.965759 0l0 0c-1.5675659 0 -2.8383179 -0.94421387 -2.8383179 -2.1090088c0 -1.1647339 1.270752 -2.1089478 2.8383179 -2.1089478z" fill-rule="evenodd"/><path stroke="#595959" stroke-width="1.0" stroke-linejoin="round" stroke-linecap="butt" d="m827.6486 680.58295l11.965759 0l0 0c1.5675049 0 2.8382568 0.94421387 2.8382568 2.1089478c0 1.1647949 -1.270752 2.1090088 -2.8382568 2.1090088l-11.965759 0l0 0c-1.5675659 0 -2.8383179 -0.94421387 -2.8383179 -2.1090088c0 -1.1647339 1.270752 -2.1089478 2.8383179 -2.1089478z" fill-rule="evenodd"/><path fill="#f1c232" d="m845.291 629.96875l11.965759 0l0 0c1.5675659 0 2.8383179 0.94421387 2.8383179 2.1089478c0 1.1647949 -1.270752 2.1090088 -2.8383179 2.1090088l-11.965759 0l0 0c-1.5675049 0 -2.8382568 -0.94421387 -2.8382568 -2.1090088c0 -1.1647339 1.270752 -2.1089478 2.8382568 -2.1089478z" fill-rule="evenodd"/><path stroke="#595959" stroke-width="1.0" stroke-linejoin="round" stroke-linecap="butt" d="m845.291 629.96875l11.965759 0l0 0c1.5675659 0 2.8383179 0.94421387 2.8383179 2.1089478c0 1.1647949 -1.270752 2.1090088 -2.8383179 2.1090088l-11.965759 0l0 0c-1.5675049 0 -2.8382568 -0.94421387 -2.8382568 -2.1090088c0 -1.1647339 1.270752 -2.1089478 2.8382568 -2.1089478z" fill-rule="evenodd"/><path fill="#f1c232" d="m845.2911 634.1866l11.965759 0l0 0c1.5675659 0 2.8383179 0.94421387 2.8383179 2.1089478c0 1.1647949 -1.270752 2.1090088 -2.8383179 2.1090088l-11.965759 0l0 0c-1.5675049 0 -2.8382568 -0.94421387 -2.8382568 -2.1090088c0 -1.1647339 1.270752 -2.1089478 2.8382568 -2.1089478z" fill-rule="evenodd"/><path stroke="#595959" stroke-width="1.0" stroke-linejoin="round" stroke-linecap="butt" d="m845.2911 634.1866l11.965759 0l0 0c1.5675659 0 2.8383179 0.94421387 2.8383179 2.1089478c0 1.1647949 -1.270752 2.1090088 -2.8383179 2.1090088l-11.965759 0l0 0c-1.5675049 0 -2.8382568 -0.94421387 -2.8382568 -2.1090088c0 -1.1647339 1.270752 -2.1089478 2.8382568 -2.1089478z" fill-rule="evenodd"/><path fill="#f1c232" d="m845.29114 638.4044l11.965759 0l0 0c1.5675049 0 2.8382568 0.94421387 2.8382568 2.1090088c0 1.1647339 -1.270752 2.1089478 -2.8382568 2.1089478l-11.965759 0l0 0c-1.5675659 0 -2.8382568 -0.94421387 -2.8382568 -2.1089478c0 -1.1647949 1.2706909 -2.1090088 2.8382568 -2.1090088z" fill-rule="evenodd"/><path stroke="#595959" stroke-width="1.0" stroke-linejoin="round" stroke-linecap="butt" d="m845.29114 638.4044l11.965759 0l0 0c1.5675049 0 2.8382568 0.94421387 2.8382568 2.1090088c0 1.1647339 -1.270752 2.1089478 -2.8382568 2.1089478l-11.965759 0l0 0c-1.5675659 0 -2.8382568 -0.94421387 -2.8382568 -2.1089478c0 -1.1647949 1.2706909 -2.1090088 2.8382568 -2.1090088z" fill-rule="evenodd"/><path fill="#f1c232" d="m845.2912 642.6223l11.965759 0l0 0c1.5675049 0 2.8382568 0.94421387 2.8382568 2.1089478c0 1.1647339 -1.270752 2.1089478 -2.8382568 2.1089478l-11.965759 0l0 0c-1.5675659 0 -2.8383179 -0.94421387 -2.8383179 -2.1089478c0 -1.1647339 1.270752 -2.1089478 2.8383179 -2.1089478z" fill-rule="evenodd"/><path stroke="#595959" stroke-width="1.0" stroke-linejoin="round" stroke-linecap="butt" d="m845.2912 642.6223l11.965759 0l0 0c1.5675049 0 2.8382568 0.94421387 2.8382568 2.1089478c0 1.1647339 -1.270752 2.1089478 -2.8382568 2.1089478l-11.965759 0l0 0c-1.5675659 0 -2.8383179 -0.94421387 -2.8383179 -2.1089478c0 -1.1647339 1.270752 -2.1089478 2.8383179 -2.1089478z" fill-rule="evenodd"/><path fill="#f1c232" d="m845.29126 646.84015l11.965759 0l0 0c1.5675049 0 2.8382568 0.94421387 2.8382568 2.1089478c0 1.1647949 -1.270752 2.1090088 -2.8382568 2.1090088l-11.965759 0l0 0c-1.5675659 0 -2.8383179 -0.94421387 -2.8383179 -2.1090088c0 -1.1647339 1.270752 -2.1089478 2.8383179 -2.1089478z" fill-rule="evenodd"/><path stroke="#595959" stroke-width="1.0" stroke-linejoin="round" stroke-linecap="butt" d="m845.29126 646.84015l11.965759 0l0 0c1.5675049 0 2.8382568 0.94421387 2.8382568 2.1089478c0 1.1647949 -1.270752 2.1090088 -2.8382568 2.1090088l-11.965759 0l0 0c-1.5675659 0 -2.8383179 -0.94421387 -2.8383179 -2.1090088c0 -1.1647339 1.270752 -2.1089478 2.8383179 -2.1089478z" fill-rule="evenodd"/><path fill="#f1c232" d="m845.2913 651.058l11.965698 0l0 0c1.5675659 0 2.8383179 0.94421387 2.8383179 2.1089478c0 1.1647949 -1.270752 2.1090088 -2.8383179 2.1090088l-11.965698 0l0 0c-1.5675659 0 -2.8383179 -0.94421387 -2.8383179 -2.1090088c0 -1.1647339 1.270752 -2.1089478 2.8383179 -2.1089478z" fill-rule="evenodd"/><path stroke="#595959" stroke-width="1.0" stroke-linejoin="round" stroke-linecap="butt" d="m845.2913 651.058l11.965698 0l0 0c1.5675659 0 2.8383179 0.94421387 2.8383179 2.1089478c0 1.1647949 -1.270752 2.1090088 -2.8383179 2.1090088l-11.965698 0l0 0c-1.5675659 0 -2.8383179 -0.94421387 -2.8383179 -2.1090088c0 -1.1647339 1.270752 -2.1089478 2.8383179 -2.1089478z" fill-rule="evenodd"/><path fill="#f1c232" d="m845.2913 655.2758l11.965759 0l0 0c1.5675659 0 2.8383179 0.94421387 2.8383179 2.1090088c0 1.1647339 -1.270752 2.1089478 -2.8383179 2.1089478l-11.965759 0l0 0c-1.5675049 0 -2.8382568 -0.94421387 -2.8382568 -2.1089478c0 -1.1647949 1.270752 -2.1090088 2.8382568 -2.1090088z" fill-rule="evenodd"/><path stroke="#595959" stroke-width="1.0" stroke-linejoin="round" stroke-linecap="butt" d="m845.2913 655.2758l11.965759 0l0 0c1.5675659 0 2.8383179 0.94421387 2.8383179 2.1090088c0 1.1647339 -1.270752 2.1089478 -2.8383179 2.1089478l-11.965759 0l0 0c-1.5675049 0 -2.8382568 -0.94421387 -2.8382568 -2.1089478c0 -1.1647949 1.270752 -2.1090088 2.8382568 -2.1090088z" fill-rule="evenodd"/><path fill="#f1c232" d="m845.2914 659.49365l11.965759 0l0 0c1.5675659 0 2.8383179 0.9442749 2.8383179 2.1090088c0 1.1647339 -1.270752 2.1089478 -2.8383179 2.1089478l-11.965759 0l0 0c-1.5675049 0 -2.8382568 -0.94421387 -2.8382568 -2.1089478c0 -1.1647339 1.270752 -2.1090088 2.8382568 -2.1090088z" fill-rule="evenodd"/><path stroke="#595959" stroke-width="1.0" stroke-linejoin="round" stroke-linecap="butt" d="m845.2914 659.49365l11.965759 0l0 0c1.5675659 0 2.8383179 0.9442749 2.8383179 2.1090088c0 1.1647339 -1.270752 2.1089478 -2.8383179 2.1089478l-11.965759 0l0 0c-1.5675049 0 -2.8382568 -0.94421387 -2.8382568 -2.1089478c0 -1.1647339 1.270752 -2.1090088 2.8382568 -2.1090088z" fill-rule="evenodd"/><path fill="#f1c232" d="m845.29144 663.71155l11.965759 0l0 0c1.5675659 0 2.8383179 0.94421387 2.8383179 2.1089478c0 1.1647949 -1.270752 2.1090088 -2.8383179 2.1090088l-11.965759 0l0 0c-1.5675049 0 -2.8382568 -0.94421387 -2.8382568 -2.1090088c0 -1.1647339 1.270752 -2.1089478 2.8382568 -2.1089478z" fill-rule="evenodd"/><path stroke="#595959" stroke-width="1.0" stroke-linejoin="round" stroke-linecap="butt" d="m845.29144 663.71155l11.965759 0l0 0c1.5675659 0 2.8383179 0.94421387 2.8383179 2.1089478c0 1.1647949 -1.270752 2.1090088 -2.8383179 2.1090088l-11.965759 0l0 0c-1.5675049 0 -2.8382568 -0.94421387 -2.8382568 -2.1090088c0 -1.1647339 1.270752 -2.1089478 2.8382568 -2.1089478z" fill-rule="evenodd"/><path fill="#f1c232" d="m845.2915 667.9294l11.965759 0l0 0c1.5675049 0 2.8382568 0.94421387 2.8382568 2.1089478c0 1.1647949 -1.270752 2.1090088 -2.8382568 2.1090088l-11.965759 0l0 0c-1.5675659 0 -2.8383179 -0.94421387 -2.8383179 -2.1090088c0 -1.1647339 1.270752 -2.1089478 2.8383179 -2.1089478z" fill-rule="evenodd"/><path stroke="#595959" stroke-width="1.0" stroke-linejoin="round" stroke-linecap="butt" d="m845.2915 667.9294l11.965759 0l0 0c1.5675049 0 2.8382568 0.94421387 2.8382568 2.1089478c0 1.1647949 -1.270752 2.1090088 -2.8382568 2.1090088l-11.965759 0l0 0c-1.5675659 0 -2.8383179 -0.94421387 -2.8383179 -2.1090088c0 -1.1647339 1.270752 -2.1089478 2.8383179 -2.1089478z" fill-rule="evenodd"/><path fill="#f1c232" d="m845.29156 672.1472l11.965759 0l0 0c1.5675049 0 2.8382568 0.94421387 2.8382568 2.1090088c0 1.1647339 -1.270752 2.1089478 -2.8382568 2.1089478l-11.965759 0l0 0c-1.5675659 0 -2.8383179 -0.94421387 -2.8383179 -2.1089478c0 -1.1647949 1.270752 -2.1090088 2.8383179 -2.1090088z" fill-rule="evenodd"/><path stroke="#595959" stroke-width="1.0" stroke-linejoin="round" stroke-linecap="butt" d="m845.29156 672.1472l11.965759 0l0 0c1.5675049 0 2.8382568 0.94421387 2.8382568 2.1090088c0 1.1647339 -1.270752 2.1089478 -2.8382568 2.1089478l-11.965759 0l0 0c-1.5675659 0 -2.8383179 -0.94421387 -2.8383179 -2.1089478c0 -1.1647949 1.270752 -2.1090088 2.8383179 -2.1090088z" fill-rule="evenodd"/><path fill="#f1c232" d="m845.2916 676.36505l11.965759 0l0 0c1.5675049 0 2.8382568 0.9442749 2.8382568 2.1090088c0 1.1647339 -1.270752 2.1089478 -2.8382568 2.1089478l-11.965759 0l0 0c-1.5675659 0 -2.8383179 -0.94421387 -2.8383179 -2.1089478c0 -1.1647339 1.270752 -2.1090088 2.8383179 -2.1090088z" fill-rule="evenodd"/><path stroke="#595959" stroke-width="1.0" stroke-linejoin="round" stroke-linecap="butt" d="m845.2916 676.36505l11.965759 0l0 0c1.5675049 0 2.8382568 0.9442749 2.8382568 2.1090088c0 1.1647339 -1.270752 2.1089478 -2.8382568 2.1089478l-11.965759 0l0 0c-1.5675659 0 -2.8383179 -0.94421387 -2.8383179 -2.1089478c0 -1.1647339 1.270752 -2.1090088 2.8383179 -2.1090088z" fill-rule="evenodd"/><path fill="#f1c232" d="m845.2917 680.58295l11.965698 0l0 0c1.5675659 0 2.8383179 0.94421387 2.8383179 2.1089478c0 1.1647949 -1.270752 2.1090088 -2.8383179 2.1090088l-11.965698 0l0 0c-1.5675659 0 -2.8383179 -0.94421387 -2.8383179 -2.1090088c0 -1.1647339 1.270752 -2.1089478 2.8383179 -2.1089478z" fill-rule="evenodd"/><path stroke="#595959" stroke-width="1.0" stroke-linejoin="round" stroke-linecap="butt" d="m845.2917 680.58295l11.965698 0l0 0c1.5675659 0 2.8383179 0.94421387 2.8383179 2.1089478c0 1.1647949 -1.270752 2.1090088 -2.8383179 2.1090088l-11.965698 0l0 0c-1.5675659 0 -2.8383179 -0.94421387 -2.8383179 -2.1090088c0 -1.1647339 1.270752 -2.1089478 2.8383179 -2.1089478z" fill-rule="evenodd"/><path fill="#f1c232" d="m862.9318 659.49365l11.965759 0l0 0c1.5675049 0 2.8382568 0.9442749 2.8382568 2.1090088c0 1.1647339 -1.270752 2.1089478 -2.8382568 2.1089478l-11.965759 0l0 0c-1.5675659 0 -2.8383179 -0.94421387 -2.8383179 -2.1089478c0 -1.1647339 1.270752 -2.1090088 2.8383179 -2.1090088z" fill-rule="evenodd"/><path stroke="#595959" stroke-width="1.0" stroke-linejoin="round" stroke-linecap="butt" d="m862.9318 659.49365l11.965759 0l0 0c1.5675049 0 2.8382568 0.9442749 2.8382568 2.1090088c0 1.1647339 -1.270752 2.1089478 -2.8382568 2.1089478l-11.965759 0l0 0c-1.5675659 0 -2.8383179 -0.94421387 -2.8383179 -2.1089478c0 -1.1647339 1.270752 -2.1090088 2.8383179 -2.1090088z" fill-rule="evenodd"/><path fill="#f1c232" d="m862.9319 663.71155l11.965759 0l0 0c1.5675049 0 2.8382568 0.94421387 2.8382568 2.1089478c0 1.1647949 -1.270752 2.1090088 -2.8382568 2.1090088l-11.965759 0l0 0c-1.5675659 0 -2.8383179 -0.94421387 -2.8383179 -2.1090088c0 -1.1647339 1.270752 -2.1089478 2.8383179 -2.1089478z" fill-rule="evenodd"/><path stroke="#595959" stroke-width="1.0" stroke-linejoin="round" stroke-linecap="butt" d="m862.9319 663.71155l11.965759 0l0 0c1.5675049 0 2.8382568 0.94421387 2.8382568 2.1089478c0 1.1647949 -1.270752 2.1090088 -2.8382568 2.1090088l-11.965759 0l0 0c-1.5675659 0 -2.8383179 -0.94421387 -2.8383179 -2.1090088c0 -1.1647339 1.270752 -2.1089478 2.8383179 -2.1089478z" fill-rule="evenodd"/><path fill="#f1c232" d="m862.93195 667.9294l11.965698 0l0 0c1.5675659 0 2.8383179 0.94421387 2.8383179 2.1089478c0 1.1647949 -1.270752 2.1090088 -2.8383179 2.1090088l-11.965698 0l0 0c-1.5675659 0 -2.8383179 -0.94421387 -2.8383179 -2.1090088c0 -1.1647339 1.270752 -2.1089478 2.8383179 -2.1089478z" fill-rule="evenodd"/><path stroke="#595959" stroke-width="1.0" stroke-linejoin="round" stroke-linecap="butt" d="m862.93195 667.9294l11.965698 0l0 0c1.5675659 0 2.8383179 0.94421387 2.8383179 2.1089478c0 1.1647949 -1.270752 2.1090088 -2.8383179 2.1090088l-11.965698 0l0 0c-1.5675659 0 -2.8383179 -0.94421387 -2.8383179 -2.1090088c0 -1.1647339 1.270752 -2.1089478 2.8383179 -2.1089478z" fill-rule="evenodd"/><path fill="#f1c232" d="m862.932 672.1472l11.965698 0l0 0c1.5675659 0 2.8383179 0.94421387 2.8383179 2.1090088c0 1.1647339 -1.270752 2.1089478 -2.8383179 2.1089478l-11.965698 0l0 0c-1.5675659 0 -2.8383179 -0.94421387 -2.8383179 -2.1089478c0 -1.1647949 1.270752 -2.1090088 2.8383179 -2.1090088z" fill-rule="evenodd"/><path stroke="#595959" stroke-width="1.0" stroke-linejoin="round" stroke-linecap="butt" d="m862.932 672.1472l11.965698 0l0 0c1.5675659 0 2.8383179 0.94421387 2.8383179 2.1090088c0 1.1647339 -1.270752 2.1089478 -2.8383179 2.1089478l-11.965698 0l0 0c-1.5675659 0 -2.8383179 -0.94421387 -2.8383179 -2.1089478c0 -1.1647949 1.270752 -2.1090088 2.8383179 -2.1090088z" fill-rule="evenodd"/><path fill="#f1c232" d="m862.932 676.36505l11.965759 0l0 0c1.5675659 0 2.8383179 0.9442749 2.8383179 2.1090088c0 1.1647339 -1.270752 2.1089478 -2.8383179 2.1089478l-11.965759 0l0 0c-1.5675049 0 -2.8382568 -0.94421387 -2.8382568 -2.1089478c0 -1.1647339 1.270752 -2.1090088 2.8382568 -2.1090088z" fill-rule="evenodd"/><path stroke="#595959" stroke-width="1.0" stroke-linejoin="round" stroke-linecap="butt" d="m862.932 676.36505l11.965759 0l0 0c1.5675659 0 2.8383179 0.9442749 2.8383179 2.1090088c0 1.1647339 -1.270752 2.1089478 -2.8383179 2.1089478l-11.965759 0l0 0c-1.5675049 0 -2.8382568 -0.94421387 -2.8382568 -2.1089478c0 -1.1647339 1.270752 -2.1090088 2.8382568 -2.1090088z" fill-rule="evenodd"/><path fill="#f1c232" d="m862.93207 680.58295l11.965759 0l0 0c1.5675659 0 2.8383179 0.94421387 2.8383179 2.1089478c0 1.1647949 -1.270752 2.1090088 -2.8383179 2.1090088l-11.965759 0l0 0c-1.5675049 0 -2.8382568 -0.94421387 -2.8382568 -2.1090088c0 -1.1647339 1.270752 -2.1089478 2.8382568 -2.1089478z" fill-rule="evenodd"/><path stroke="#595959" stroke-width="1.0" stroke-linejoin="round" stroke-linecap="butt" d="m862.93207 680.58295l11.965759 0l0 0c1.5675659 0 2.8383179 0.94421387 2.8383179 2.1089478c0 1.1647949 -1.270752 2.1090088 -2.8383179 2.1090088l-11.965759 0l0 0c-1.5675049 0 -2.8382568 -0.94421387 -2.8382568 -2.1090088c0 -1.1647339 1.270752 -2.1089478 2.8382568 -2.1089478z" fill-rule="evenodd"/><path fill="#f1c232" d="m792.35974 659.49365l11.966064 0l0 0c1.567627 0 2.838379 0.9442749 2.838379 2.1090088c0 1.1647339 -1.270752 2.1089478 -2.838379 2.1089478l-11.966064 0l0 0c-1.567627 0 -2.838379 -0.94421387 -2.838379 -2.1089478c0 -1.1647339 1.270752 -2.1090088 2.838379 -2.1090088z" fill-rule="evenodd"/><path stroke="#595959" stroke-width="1.0" stroke-linejoin="round" stroke-linecap="butt" d="m792.35974 659.49365l11.966064 0l0 0c1.567627 0 2.838379 0.9442749 2.838379 2.1090088c0 1.1647339 -1.270752 2.1089478 -2.838379 2.1089478l-11.966064 0l0 0c-1.567627 0 -2.838379 -0.94421387 -2.838379 -2.1089478c0 -1.1647339 1.270752 -2.1090088 2.838379 -2.1090088z" fill-rule="evenodd"/><path fill="#f1c232" d="m792.3598 663.71155l11.966064 0l0 0c1.5675659 0 2.838379 0.94421387 2.838379 2.1089478c0 1.1647949 -1.270813 2.1090088 -2.838379 2.1090088l-11.966064 0l0 0c-1.567627 0 -2.838379 -0.94421387 -2.838379 -2.1090088c0 -1.1647339 1.270752 -2.1089478 2.838379 -2.1089478z" fill-rule="evenodd"/><path stroke="#595959" stroke-width="1.0" stroke-linejoin="round" stroke-linecap="butt" d="m792.3598 663.71155l11.966064 0l0 0c1.5675659 0 2.838379 0.94421387 2.838379 2.1089478c0 1.1647949 -1.270813 2.1090088 -2.838379 2.1090088l-11.966064 0l0 0c-1.567627 0 -2.838379 -0.94421387 -2.838379 -2.1090088c0 -1.1647339 1.270752 -2.1089478 2.838379 -2.1089478z" fill-rule="evenodd"/><path fill="#f1c232" d="m792.3598 667.9294l11.9661255 0l0 0c1.5675659 0 2.838379 0.94421387 2.838379 2.1089478c0 1.1647949 -1.270813 2.1090088 -2.838379 2.1090088l-11.9661255 0l0 0c-1.5675659 0 -2.8383179 -0.94421387 -2.8383179 -2.1090088c0 -1.1647339 1.270752 -2.1089478 2.8383179 -2.1089478z" fill-rule="evenodd"/><path stroke="#595959" stroke-width="1.0" stroke-linejoin="round" stroke-linecap="butt" d="m792.3598 667.9294l11.9661255 0l0 0c1.5675659 0 2.838379 0.94421387 2.838379 2.1089478c0 1.1647949 -1.270813 2.1090088 -2.838379 2.1090088l-11.9661255 0l0 0c-1.5675659 0 -2.8383179 -0.94421387 -2.8383179 -2.1090088c0 -1.1647339 1.270752 -2.1089478 2.8383179 -2.1089478z" fill-rule="evenodd"/><path fill="#f1c232" d="m792.35986 672.1472l11.9661255 0l0 0c1.5675659 0 2.838379 0.94421387 2.838379 2.1090088c0 1.1647339 -1.270813 2.1089478 -2.838379 2.1089478l-11.9661255 0l0 0c-1.5675659 0 -2.838379 -0.94421387 -2.838379 -2.1089478c0 -1.1647949 1.270813 -2.1090088 2.838379 -2.1090088z" fill-rule="evenodd"/><path stroke="#595959" stroke-width="1.0" stroke-linejoin="round" stroke-linecap="butt" d="m792.35986 672.1472l11.9661255 0l0 0c1.5675659 0 2.838379 0.94421387 2.838379 2.1090088c0 1.1647339 -1.270813 2.1089478 -2.838379 2.1089478l-11.9661255 0l0 0c-1.5675659 0 -2.838379 -0.94421387 -2.838379 -2.1089478c0 -1.1647949 1.270813 -2.1090088 2.838379 -2.1090088z" fill-rule="evenodd"/><path fill="#f1c232" d="m792.3599 676.36505l11.9661255 0l0 0c1.5675659 0 2.8383179 0.9442749 2.8383179 2.1090088c0 1.1647339 -1.270752 2.1089478 -2.8383179 2.1089478l-11.9661255 0l0 0c-1.5675659 0 -2.838379 -0.94421387 -2.838379 -2.1089478c0 -1.1647339 1.270813 -2.1090088 2.838379 -2.1090088z" fill-rule="evenodd"/><path stroke="#595959" stroke-width="1.0" stroke-linejoin="round" stroke-linecap="butt" d="m792.3599 676.36505l11.9661255 0l0 0c1.5675659 0 2.8383179 0.9442749 2.8383179 2.1090088c0 1.1647339 -1.270752 2.1089478 -2.8383179 2.1089478l-11.9661255 0l0 0c-1.5675659 0 -2.838379 -0.94421387 -2.838379 -2.1089478c0 -1.1647339 1.270813 -2.1090088 2.838379 -2.1090088z" fill-rule="evenodd"/><path fill="#f1c232" d="m792.36 680.58295l11.966064 0l0 0c1.567627 0 2.838379 0.94421387 2.838379 2.1089478c0 1.1647949 -1.270752 2.1090088 -2.838379 2.1090088l-11.966064 0l0 0c-1.5675659 0 -2.838379 -0.94421387 -2.838379 -2.1090088c0 -1.1647339 1.270813 -2.1089478 2.838379 -2.1089478z" fill-rule="evenodd"/><path stroke="#595959" stroke-width="1.0" stroke-linejoin="round" stroke-linecap="butt" d="m792.36 680.58295l11.966064 0l0 0c1.567627 0 2.838379 0.94421387 2.838379 2.1089478c0 1.1647949 -1.270752 2.1090088 -2.838379 2.1090088l-11.966064 0l0 0c-1.5675659 0 -2.838379 -0.94421387 -2.838379 -2.1090088c0 -1.1647339 1.270813 -2.1089478 2.838379 -2.1089478z" fill-rule="evenodd"/></g></svg>