<svg version="1.1" viewBox="0.0 0.0 960.0 960.0" fill="none" stroke="none" stroke-linecap="square" stroke-miterlimit="10" xmlns:xlink="http://www.w3.org/1999/xlink" xmlns="http://www.w3.org/2000/svg"><clipPath id="g30ef1989ea2_1_69.0"><path d="m0 0l960.0 0l0 960.0l-960.0 0l0 -960.0z" clip-rule="nonzero"/></clipPath><g clip-path="url(#g30ef1989ea2_1_69.0)"><path fill="#000000" fill-opacity="0.0" d="m0 0l960.0 0l0 960.0l-960.0 0z" fill-rule="evenodd"/><path fill="#ff9900" d="m356.6717 744.11475l-34.010956 53.099792l14.029114 6.261963l-42.839203 45.501648l14.029114 7.5982056l-52.9619 76.182495l89.81743 -58.383606l-17.129486 -8.104675l55.806488 -37.396973l-19.997345 -11.554443l58.922363 -39.231018z" fill-rule="evenodd"/><path stroke="#000000" stroke-width="8.0" stroke-linejoin="round" stroke-linecap="butt" d="m356.6717 744.11475l-34.010956 53.099792l14.029114 6.261963l-42.839203 45.501648l14.029114 7.5982056l-52.9619 76.182495l89.81743 -58.383606l-17.129486 -8.104675l55.806488 -37.396973l-19.997345 -11.554443l58.922363 -39.231018z" fill-rule="evenodd"/><path fill="#ff9900" d="m604.64124 744.11475l32.028687 53.099792l-13.211426 6.261963l40.342407 45.501648l-13.211426 7.5982056l49.875122 76.182495l-84.58264 -58.383606l16.131104 -8.104675l-52.553955 -37.396973l18.831848 -11.554443l-55.48822 -39.231018z" fill-rule="evenodd"/><path stroke="#000000" stroke-width="8.0" stroke-linejoin="round" stroke-linecap="butt" d="m604.64124 744.11475l32.028687 53.099792l-13.211426 6.261963l40.342407 45.501648l-13.211426 7.5982056l49.875122 76.182495l-84.58264 -58.383606l16.131104 -8.104675l-52.553955 -37.396973l18.831848 -11.554443l-55.48822 -39.231018z" fill-rule="evenodd"/><path fill="#ff9900" d="m827.9413 623.7121l0 0c0 5.551941 -4.5007324 10.052612 -10.052612 10.052612l-40.209167 0l0 0c-2.6661377 0 -5.2230835 -1.059082 -7.1082764 -2.944336c-1.8852539 -1.8851929 -2.944336 -4.4421387 -2.944336 -7.1082764l0 -53.22827c0 -5.551941 4.5006714 -10.052612 10.052612 -10.052612l40.209167 0c5.55188 0 10.052612 4.5006714 10.052612 10.052612z" fill-rule="evenodd"/><path stroke="#000000" stroke-width="8.0" stroke-linejoin="round" stroke-linecap="butt" d="m827.9413 623.7121l0 0c0 5.551941 -4.5007324 10.052612 -10.052612 10.052612l-40.209167 0l0 0c-2.6661377 0 -5.2230835 -1.059082 -7.1082764 -2.944336c-1.8852539 -1.8851929 -2.944336 -4.4421387 -2.944336 -7.1082764l0 -53.22827c0 -5.551941 4.5006714 -10.052612 10.052612 -10.052612l40.209167 0c5.55188 0 10.052612 4.5006714 10.052612 10.052612z" fill-rule="evenodd"/><path fill="#ff9900" d="m827.9413 561.24695c0 6.753174 -31.010132 12.227661 -69.263 12.227661l0 0c-38.25293 0 -69.26306 -5.4744873 -69.26306 -12.227661l0 0c0 -6.753113 31.010132 -12.2276 69.26306 -12.2276l0 0c38.25287 0 69.263 5.4744873 69.263 12.2276z" fill-rule="evenodd"/><path stroke="#000000" stroke-width="8.0" stroke-linejoin="round" stroke-linecap="butt" d="m827.9413 561.24695c0 6.753174 -31.010132 12.227661 -69.263 12.227661l0 0c-38.25293 0 -69.26306 -5.4744873 -69.26306 -12.227661l0 0c0 -6.753113 31.010132 -12.2276 69.26306 -12.2276l0 0c38.25287 0 69.263 5.4744873 69.263 12.2276z" fill-rule="evenodd"/><path fill="#ff9900" d="m132.05902 498.78308l0 0c0 -5.5519104 4.500702 -10.052612 10.052597 -10.052612l40.209183 0l0 0c2.6661224 0 5.2230377 1.0591125 7.108261 2.944336c1.8852386 1.8852234 2.944336 4.4421387 2.944336 7.1082764l0 53.22827c0 5.551941 -4.500702 10.052612 -10.052597 10.052612l-40.209183 0c-5.551895 0 -10.052597 -4.5006714 -10.052597 -10.052612z" fill-rule="evenodd"/><path stroke="#000000" stroke-width="8.0" stroke-linejoin="round" stroke-linecap="butt" d="m132.05902 498.78308l0 0c0 -5.5519104 4.500702 -10.052612 10.052597 -10.052612l40.209183 0l0 0c2.6661224 0 5.2230377 1.0591125 7.108261 2.944336c1.8852386 1.8852234 2.944336 4.4421387 2.944336 7.1082764l0 53.22827c0 5.551941 -4.500702 10.052612 -10.052597 10.052612l-40.209183 0c-5.551895 0 -10.052597 -4.5006714 -10.052597 -10.052612z" fill-rule="evenodd"/><path fill="#ff9900" d="m132.05902 561.2482c0 -6.753174 31.010101 -12.227661 69.263016 -12.227661l0 0c38.2529 0 69.263016 5.4744873 69.263016 12.227661l0 0c0 6.753113 -31.010117 12.2276 -69.263016 12.2276l0 0c-38.252914 0 -69.263016 -5.4744873 -69.263016 -12.2276z" fill-rule="evenodd"/><path stroke="#000000" stroke-width="8.0" stroke-linejoin="round" stroke-linecap="butt" d="m132.05902 561.2482c0 -6.753174 31.010101 -12.227661 69.263016 -12.227661l0 0c38.2529 0 69.263016 5.4744873 69.263016 12.227661l0 0c0 6.753113 -31.010117 12.2276 -69.263016 12.2276l0 0c-38.252914 0 -69.263016 -5.4744873 -69.263016 -12.2276z" fill-rule="evenodd"/><path fill="#ff9900" d="m245.94324 545.8798l0 0c0 -143.72498 102.73544 -260.23706 229.46603 -260.23706l0 0c60.858185 0 119.223785 27.417725 162.25699 76.22165c43.033264 48.803925 67.209045 114.996216 67.209045 184.01541l0 0c0 143.72491 -102.73541 260.237 -229.46603 260.237l0 0c-126.73059 0 -229.46603 -116.512085 -229.46603 -260.237z" fill-rule="evenodd"/><path stroke="#000000" stroke-width="8.0" stroke-linejoin="round" stroke-linecap="butt" d="m245.94324 545.8798l0 0c0 -143.72498 102.73544 -260.23706 229.46603 -260.23706l0 0c60.858185 0 119.223785 27.417725 162.25699 76.22165c43.033264 48.803925 67.209045 114.996216 67.209045 184.01541l0 0c0 143.72491 -102.73541 260.237 -229.46603 260.237l0 0c-126.73059 0 -229.46603 -116.512085 -229.46603 -260.237z" fill-rule="evenodd"/><path fill="#000000" d="m303.46393 445.22363l0 0c0 -29.037598 33.881134 -52.57721 75.67566 -52.57721l0 0c41.794495 0 75.67566 23.539612 75.67566 52.57721l0 0c0 29.037598 -33.881165 52.57721 -75.67566 52.57721l0 0c-41.794525 0 -75.67566 -23.539612 -75.67566 -52.57721z" fill-rule="evenodd"/><path stroke="#000000" stroke-width="8.0" stroke-linejoin="round" stroke-linecap="butt" d="m303.46393 445.22363l0 0c0 -29.037598 33.881134 -52.57721 75.67566 -52.57721l0 0c41.794495 0 75.67566 23.539612 75.67566 52.57721l0 0c0 29.037598 -33.881165 52.57721 -75.67566 52.57721l0 0c-41.794525 0 -75.67566 -23.539612 -75.67566 -52.57721z" fill-rule="evenodd"/><path fill="#eeeeee" d="m336.33182 445.21985l0 0c0 -23.069489 19.569366 -41.771027 43.70938 -41.771027l0 0c11.592438 0 22.710083 4.400879 30.907166 12.234467c8.197113 7.8335876 12.802185 18.45819 12.802185 29.53656l0 0c0 23.069519 -19.569336 41.771027 -43.70935 41.771027l0 0c-24.140015 0 -43.70938 -18.701508 -43.70938 -41.771027z" fill-rule="evenodd"/><path stroke="#000000" stroke-width="8.0" stroke-linejoin="round" stroke-linecap="butt" d="m336.33182 445.21985l0 0c0 -23.069489 19.569366 -41.771027 43.70938 -41.771027l0 0c11.592438 0 22.710083 4.400879 30.907166 12.234467c8.197113 7.8335876 12.802185 18.45819 12.802185 29.53656l0 0c0 23.069519 -19.569336 41.771027 -43.70935 41.771027l0 0c-24.140015 0 -43.70938 -18.701508 -43.70938 -41.771027z" fill-rule="evenodd"/><path fill="#000000" d="m357.11536 445.21848l0 0c0 -10.794312 10.254761 -19.54483 22.904602 -19.54483l0 0c12.649872 0 22.904633 8.750519 22.904633 19.54483l0 0c0 10.794312 -10.254761 19.54483 -22.904633 19.54483l0 0c-12.649841 0 -22.904602 -8.750519 -22.904602 -19.54483z" fill-rule="evenodd"/><path stroke="#000000" stroke-width="8.0" stroke-linejoin="round" stroke-linecap="butt" d="m357.11536 445.21848l0 0c0 -10.794312 10.254761 -19.54483 22.904602 -19.54483l0 0c12.649872 0 22.904633 8.750519 22.904633 19.54483l0 0c0 10.794312 -10.254761 19.54483 -22.904633 19.54483l0 0c-12.649841 0 -22.904602 -8.750519 -22.904602 -19.54483z" fill-rule="evenodd"/><path fill="#000000" d="m495.90625 445.215l0 0c0 -29.037598 33.881165 -52.57724 75.67566 -52.57724l0 0c41.794556 0 75.67566 23.539642 75.67566 52.57724l0 0c0 29.037598 -33.881104 52.57721 -75.67566 52.57721l0 0c-41.794495 0 -75.67566 -23.539612 -75.67566 -52.57721z" fill-rule="evenodd"/><path stroke="#000000" stroke-width="8.0" stroke-linejoin="round" stroke-linecap="butt" d="m495.90625 445.215l0 0c0 -29.037598 33.881165 -52.57724 75.67566 -52.57724l0 0c41.794556 0 75.67566 23.539642 75.67566 52.57724l0 0c0 29.037598 -33.881104 52.57721 -75.67566 52.57721l0 0c-41.794495 0 -75.67566 -23.539612 -75.67566 -52.57721z" fill-rule="evenodd"/><path fill="#eeeeee" d="m532.52136 445.20474l0 0c0 -23.069519 19.569336 -41.771057 43.70935 -41.771057l0 0c11.592468 0 22.710083 4.400879 30.907227 12.234467c8.1970825 7.8335876 12.802124 18.458221 12.802124 29.53659l0 0c0 23.069489 -19.569336 41.771027 -43.70935 41.771027l0 0c-24.140015 0 -43.70935 -18.701538 -43.70935 -41.771027z" fill-rule="evenodd"/><path stroke="#000000" stroke-width="8.0" stroke-linejoin="round" stroke-linecap="butt" d="m532.52136 445.20474l0 0c0 -23.069519 19.569336 -41.771057 43.70935 -41.771057l0 0c11.592468 0 22.710083 4.400879 30.907227 12.234467c8.1970825 7.8335876 12.802124 18.458221 12.802124 29.53659l0 0c0 23.069489 -19.569336 41.771027 -43.70935 41.771027l0 0c-24.140015 0 -43.70935 -18.701538 -43.70935 -41.771027z" fill-rule="evenodd"/><path fill="#000000" d="m553.3049 445.20334l0 0c0 -10.794312 10.254761 -19.54483 22.904663 -19.54483l0 0c12.649841 0 22.904602 8.750519 22.904602 19.54483l0 0c0 10.794312 -10.254761 19.54483 -22.904602 19.54483l0 0c-12.649902 0 -22.904663 -8.750519 -22.904663 -19.54483z" fill-rule="evenodd"/><path stroke="#000000" stroke-width="8.0" stroke-linejoin="round" stroke-linecap="butt" d="m553.3049 445.20334l0 0c0 -10.794312 10.254761 -19.54483 22.904663 -19.54483l0 0c12.649841 0 22.904602 8.750519 22.904602 19.54483l0 0c0 10.794312 -10.254761 19.54483 -22.904602 19.54483l0 0c-12.649902 0 -22.904663 -8.750519 -22.904663 -19.54483z" fill-rule="evenodd"/><path fill="#ffffff" d="m597.7589 545.8633l0 0c0 26.495544 -51.969788 47.995483 -116.19635 48.070435c-64.22659 0.07489014 -116.49039 -21.303345 -116.85373 -47.798462l116.52411 -0.27197266z" fill-rule="evenodd"/><path stroke="#000000" stroke-width="8.0" stroke-linejoin="round" stroke-linecap="butt" d="m597.7589 545.8633l0 0c0 26.495544 -51.969788 47.995483 -116.19635 48.070435c-64.22659 0.07489014 -116.49039 -21.303345 -116.85373 -47.798462l116.52411 -0.27197266z" fill-rule="evenodd"/><path fill="#000000" fill-opacity="0.0" d="m506.53586 607.2404l-78.224945 21.184021l71.70746 27.70581l-53.78003 27.703613l52.150665 14.66864l13.034973 3.258728" fill-rule="evenodd"/><path stroke="#000000" stroke-width="8.0" stroke-linejoin="round" stroke-linecap="butt" d="m506.53586 607.2404l-78.224945 21.184021l71.70746 27.70581l-53.78003 27.703613l52.150665 14.66864l13.034973 3.258728" fill-rule="evenodd"/><path fill="#ff9900" d="m454.229 515.5715l9.376678 -37.506683l23.63147 0l9.376678 37.506683z" fill-rule="evenodd"/><path stroke="#000000" stroke-width="8.0" stroke-linejoin="round" stroke-linecap="butt" d="m454.229 515.5715l9.376678 -37.506683l23.63147 0l9.376678 37.506683z" fill-rule="evenodd"/><path fill="#000000" fill-opacity="0.0" d="m499.7572 548.68024l0.67840576 46.00305" fill-rule="evenodd"/><path stroke="#000000" stroke-width="8.0" stroke-linejoin="round" stroke-linecap="butt" d="m499.7572 548.68024l0.67840576 46.00305" fill-rule="evenodd"/><path fill="#000000" fill-opacity="0.0" d="m459.25986 544.8747l1.2276001 49.459717" fill-rule="evenodd"/><path stroke="#000000" stroke-width="8.0" stroke-linejoin="round" stroke-linecap="butt" d="m459.25986 544.8747l1.2276001 49.459717" fill-rule="evenodd"/><path fill="#000000" fill-opacity="0.0" d="m428.30984 546.37225l0.7107239 41.964844" fill-rule="evenodd"/><path stroke="#000000" stroke-width="8.0" stroke-linejoin="round" stroke-linecap="butt" d="m428.30984 546.37225l0.7107239 41.964844" fill-rule="evenodd"/><path fill="#000000" fill-opacity="0.0" d="m531.0832 548.6219l0.7107544 41.964844" fill-rule="evenodd"/><path stroke="#000000" stroke-width="8.0" stroke-linejoin="round" stroke-linecap="butt" d="m531.0832 548.6219l0.7107544 41.964844" fill-rule="evenodd"/><path fill="#000000" fill-opacity="0.0" d="m396.53003 548.68024l2.2936707 32.079346" fill-rule="evenodd"/><path stroke="#000000" stroke-width="8.0" stroke-linejoin="round" stroke-linecap="butt" d="m396.53003 548.68024l2.2936707 32.079346" fill-rule="evenodd"/><path fill="#000000" fill-opacity="0.0" d="m561.9165 547.6883l2.0352783 33.048584" fill-rule="evenodd"/><path stroke="#000000" stroke-width="8.0" stroke-linejoin="round" stroke-linecap="butt" d="m561.9165 547.6883l2.0352783 33.048584" fill-rule="evenodd"/><path fill="#000000" d="m423.7566 399.30017l108.772644 0l0 49.459747l-108.772644 0z" fill-rule="evenodd"/><path stroke="#000000" stroke-width="1.0" stroke-linejoin="round" stroke-linecap="butt" d="m423.7566 399.30017l108.772644 0l0 49.459747l-108.772644 0z" fill-rule="evenodd"/><path fill="#000000" d="m451.25977 420.49323l60.314392 0l0 49.459747l-60.314392 0z" fill-rule="evenodd"/><path stroke="#000000" stroke-width="1.0" stroke-linejoin="round" stroke-linecap="butt" d="m451.25977 420.49323l60.314392 0l0 49.459747l-60.314392 0z" fill-rule="evenodd"/><path fill="#000000" d="m382.43265 389.90085l191.41019 0l0 10.725433l-191.41019 0z" fill-rule="evenodd"/><path stroke="#000000" stroke-width="1.0" stroke-linejoin="round" stroke-linecap="butt" d="m382.43265 389.90085l191.41019 0l0 10.725433l-191.41019 0z" fill-rule="evenodd"/><path fill="#000000" d="m299.53995 378.8451l26.525879 35.7554l-21.683167 42.519226l-39.792084 -12.330475z" fill-rule="evenodd"/><path stroke="#000000" stroke-width="8.0" stroke-linejoin="round" stroke-linecap="butt" d="m299.53995 378.8451l26.525879 35.7554l-21.683167 42.519226l-39.792084 -12.330475z" fill-rule="evenodd"/><path fill="#000000" d="m389.93787 392.6475l191.41016 0l0 10.725433l-191.41016 0z" fill-rule="evenodd"/><path stroke="#000000" stroke-width="1.0" stroke-linejoin="round" stroke-linecap="butt" d="m389.93787 392.6475l191.41016 0l0 10.725433l-191.41016 0z" fill-rule="evenodd"/><path fill="#000000" d="m652.23773 378.8451l-26.52594 35.7554l21.683167 42.519226l39.792114 -12.330475z" fill-rule="evenodd"/><path stroke="#000000" stroke-width="8.0" stroke-linejoin="round" stroke-linecap="butt" d="m652.23773 378.8451l-26.52594 35.7554l21.683167 42.519226l39.792114 -12.330475z" fill-rule="evenodd"/><path fill="#ff0000" d="m401.9422 287.1329l75.67435 -226.5908l75.67435 226.5908z" fill-rule="evenodd"/><path stroke="#000000" stroke-width="8.0" stroke-linejoin="round" stroke-linecap="butt" d="m401.9422 287.1329l75.67435 -226.5908l75.67435 226.5908z" fill-rule="evenodd"/><path fill="#00ff00" d="m382.4189 266.02924l0 0c0 -5.1294556 4.1582336 -9.287689 9.287689 -9.287689l172.83813 0c2.4632568 0 4.8256226 0.9785156 6.567383 2.7203064c1.7418213 1.7417908 2.720337 4.1041565 2.720337 6.567383l0 37.14966c0 5.1294556 -4.158264 9.287689 -9.28772 9.287689l-172.83813 0c-5.1294556 0 -9.287689 -4.1582336 -9.287689 -9.287689z" fill-rule="evenodd"/><path stroke="#000000" stroke-width="8.0" stroke-linejoin="round" stroke-linecap="butt" d="m382.4189 266.02924l0 0c0 -5.1294556 4.1582336 -9.287689 9.287689 -9.287689l172.83813 0c2.4632568 0 4.8256226 0.9785156 6.567383 2.7203064c1.7418213 1.7417908 2.720337 4.1041565 2.720337 6.567383l0 37.14966c0 5.1294556 -4.158264 9.287689 -9.28772 9.287689l-172.83813 0c-5.1294556 0 -9.287689 -4.1582336 -9.287689 -9.287689z" fill-rule="evenodd"/><path fill="#ffff00" d="m445.6638 59.190975l0 0c0 -17.646671 14.30545 -31.952127 31.952148 -31.952127l0 0c8.474213 0 16.60138 3.366375 22.593567 9.358561c5.9921875 5.9921875 9.358551 14.119335 9.358551 22.593567l0 0c0 17.646671 -14.30545 31.95213 -31.952118 31.95213l0 0c-17.646698 0 -31.952148 -14.305458 -31.952148 -31.95213z" fill-rule="evenodd"/><path stroke="#000000" stroke-width="8.0" stroke-linejoin="round" stroke-linecap="butt" d="m445.6638 59.190975l0 0c0 -17.646671 14.30545 -31.952127 31.952148 -31.952127l0 0c8.474213 0 16.60138 3.366375 22.593567 9.358561c5.9921875 5.9921875 9.358551 14.119335 9.358551 22.593567l0 0c0 17.646671 -14.30545 31.95213 -31.952118 31.95213l0 0c-17.646698 0 -31.952148 -14.305458 -31.952148 -31.95213z" fill-rule="evenodd"/><path fill="#ff0000" d="m158.979 375.9239l26.078735 0l0 211.71655l-26.078735 0z" fill-rule="evenodd"/><path stroke="#000000" stroke-width="8.0" stroke-linejoin="round" stroke-linecap="butt" d="m158.979 375.9239l26.078735 0l0 211.71655l-26.078735 0z" fill-rule="evenodd"/><path fill="#ff0000" d="m158.98006 378.16425l0 0c0 -19.08606 15.251953 -36.054993 37.934418 -42.204865c22.682465 -6.149872 47.763336 -0.116363525 62.380753 15.0065c14.617432 15.122833 15.528503 35.98001 2.2660522 51.87561l-23.659729 -12.525696l0 0c8.645203 -6.321869 9.58165 -15.4279785 2.30188 -22.38385c-7.27977 -6.9558716 -21.043259 -10.10611 -33.83226 -7.7436523c-12.789001 2.3624268 -21.559906 9.675354 -21.559906 17.975952z" fill-rule="evenodd"/><path stroke="#000000" stroke-width="8.0" stroke-linejoin="round" stroke-linecap="butt" d="m158.98006 378.16425l0 0c0 -19.08606 15.251953 -36.054993 37.934418 -42.204865c22.682465 -6.149872 47.763336 -0.116363525 62.380753 15.0065c14.617432 15.122833 15.528503 35.98001 2.2660522 51.87561l-23.659729 -12.525696l0 0c8.645203 -6.321869 9.58165 -15.4279785 2.30188 -22.38385c-7.27977 -6.9558716 -21.043259 -10.10611 -33.83226 -7.7436523c-12.789001 2.3624268 -21.559906 9.675354 -21.559906 17.975952z" fill-rule="evenodd"/><path fill="#000000" fill-opacity="0.0" d="m73.27034 400.3937l20.440948 59.93701" fill-rule="evenodd"/><path stroke="#ffffff" stroke-width="12.0" stroke-linejoin="round" stroke-linecap="butt" d="m73.27034 400.3937l20.440948 59.93701" fill-rule="evenodd"/><path fill="#eeeeee" d="m181.59317 490.75067l-18.548553 -30.84253l-0.35169983 -22.456696l18.711288 31.666656z" fill-rule="evenodd"/><path fill="#eeeeee" d="m181.4685 534.874l-18.548553 -30.84253l-0.3517151 -22.456696l18.711288 31.666656z" fill-rule="evenodd"/><path fill="#eeeeee" d="m181.59317 577.7507l-18.548553 -30.84253l-0.35169983 -22.456726l18.711288 31.666687z" fill-rule="evenodd"/><path fill="#eeeeee" d="m181.59317 445.62466l-18.548553 -30.842499l-0.35169983 -22.456696l18.711288 31.666656z" fill-rule="evenodd"/><path fill="#eeeeee" d="m181.59317 404.81628l-20.217834 -32.19162l7.4986725 -13.750641l13.335968 18.706024z" fill-rule="evenodd"/><path fill="#eeeeee" d="m186.54855 367.04724l-9.67717 -18.005249l11.656174 -6.199463l6.703415 15.409454z" fill-rule="evenodd"/><path fill="#eeeeee" d="m206.94751 356.0l-5.7873993 -17.367462l13.682404 -2.1049805l5.265091 20.0z" fill-rule="evenodd"/><path fill="#eeeeee" d="m228.0 357.58005l2.632553 -18.422577l12.629913 3.6850586l-1.0524902 20.0z" fill-rule="evenodd"/><path fill="#eeeeee" d="m250.10498 380.73752l-4.209961 -12.632538l13.157471 -11.05249l8.419952 16.314972z" fill-rule="evenodd"/><path fill="#00ff00" d="m462.4475 271.68765l16.236206 -33.763763l16.236237 33.763763z" fill-rule="evenodd"/><path stroke="#000000" stroke-width="8.0" stroke-linejoin="round" stroke-linecap="butt" d="m462.4475 271.68765l16.236206 -33.763763l16.236237 33.763763z" fill-rule="evenodd"/><path fill="#00ff00" d="m421.41995 271.68765l16.236206 -33.763763l16.236237 33.763763z" fill-rule="evenodd"/><path stroke="#000000" stroke-width="8.0" stroke-linejoin="round" stroke-linecap="butt" d="m421.41995 271.68765l16.236206 -33.763763l16.236237 33.763763z" fill-rule="evenodd"/><path fill="#00ff00" d="m503.47507 271.68765l16.236237 -33.763763l16.236206 33.763763z" fill-rule="evenodd"/><path stroke="#000000" stroke-width="8.0" stroke-linejoin="round" stroke-linecap="butt" d="m503.47507 271.68765l16.236237 -33.763763l16.236206 33.763763z" fill-rule="evenodd"/></g></svg>