<svg version="1.1" viewBox="0.0 0.0 960.0 960.0" fill="none" stroke="none" stroke-linecap="square" stroke-miterlimit="10" xmlns:xlink="http://www.w3.org/1999/xlink" xmlns="http://www.w3.org/2000/svg"><clipPath id="g2db7450a99a_0_5.0"><path d="m0 0l960.0 0l0 960.0l-960.0 0l0 -960.0z" clip-rule="nonzero"/></clipPath><g clip-path="url(#g2db7450a99a_0_5.0)"><path fill="#000000" fill-opacity="0.0" d="m0 0l960.0 0l0 960.0l-960.0 0z" fill-rule="evenodd"/><path fill="#ff9900" d="m335.8378 704.8793l-41.308228 64.492676l17.039185 7.6054688l-52.0307 55.264282l17.039185 9.228394l-64.32524 92.52789l109.088394 -70.910095l-20.804749 -9.843628l67.78015 -45.420654l-24.287872 -14.033569l71.564545 -47.648193z" fill-rule="evenodd"/><path stroke="#000000" stroke-width="8.0" stroke-linejoin="round" stroke-linecap="butt" d="m335.8378 704.8793l-41.308228 64.492676l17.039185 7.6054688l-52.0307 55.264282l17.039185 9.228394l-64.32524 92.52789l109.088394 -70.910095l-20.804749 -9.843628l67.78015 -45.420654l-24.287872 -14.033569l71.564545 -47.648193z" fill-rule="evenodd"/><path fill="#ff9900" d="m637.0119 704.8793l38.901184 64.492676l-16.046265 7.6054688l48.99878 55.264282l-16.046265 9.228394l60.576965 92.52789l-102.73175 -70.910095l19.592468 -9.843628l-63.830566 -45.420654l22.87262 -14.033569l-67.39441 -47.648193z" fill-rule="evenodd"/><path stroke="#000000" stroke-width="8.0" stroke-linejoin="round" stroke-linecap="butt" d="m637.0119 704.8793l38.901184 64.492676l-16.046265 7.6054688l48.99878 55.264282l-16.046265 9.228394l60.576965 92.52789l-102.73175 -70.910095l19.592468 -9.843628l-63.830566 -45.420654l22.87262 -14.033569l-67.39441 -47.648193z" fill-rule="evenodd"/><path fill="#ff9900" d="m908.2218 558.6428l0 0c0 6.743469 -5.466736 12.210205 -12.210205 12.210205l-48.839417 0l0 0c-3.2383423 0 -6.344116 -1.286438 -8.633972 -3.576294c-2.289856 -2.289856 -3.576294 -5.395569 -3.576294 -8.633911l0 -64.65045c0 -6.7435303 5.466736 -12.210205 12.210266 -12.210205l48.839417 0c6.743469 0 12.210205 5.466675 12.210205 12.210205z" fill-rule="evenodd"/><path stroke="#000000" stroke-width="8.0" stroke-linejoin="round" stroke-linecap="butt" d="m908.2218 558.6428l0 0c0 6.743469 -5.466736 12.210205 -12.210205 12.210205l-48.839417 0l0 0c-3.2383423 0 -6.344116 -1.286438 -8.633972 -3.576294c-2.289856 -2.289856 -3.576294 -5.395569 -3.576294 -8.633911l0 -64.65045c0 -6.7435303 5.466736 -12.210205 12.210266 -12.210205l48.839417 0c6.743469 0 12.210205 5.466675 12.210205 12.210205z" fill-rule="evenodd"/><path fill="#ff9900" d="m908.2218 482.77692c0 8.20163 -37.66449 14.850372 -84.12598 14.850372l0 0c-46.461548 0 -84.12604 -6.6487427 -84.12604 -14.850372l0 0c0 -8.20166 37.66449 -14.850403 84.12604 -14.850403l0 0c46.461487 0 84.12598 6.6487427 84.12598 14.850403z" fill-rule="evenodd"/><path stroke="#000000" stroke-width="8.0" stroke-linejoin="round" stroke-linecap="butt" d="m908.2218 482.77692c0 8.20163 -37.66449 14.850372 -84.12598 14.850372l0 0c-46.461548 0 -84.12604 -6.6487427 -84.12604 -14.850372l0 0c0 -8.20166 37.66449 -14.850403 84.12604 -14.850403l0 0c46.461487 0 84.12598 6.6487427 84.12598 14.850403z" fill-rule="evenodd"/><path fill="#ff9900" d="m63.03281 406.911l0 0c0 -6.7435303 5.4667015 -12.210236 12.2102165 -12.210236l48.83941 0l0 0c3.23835 0 6.344063 1.286438 8.633919 3.576294c2.2898712 2.289856 3.576294 5.3955994 3.576294 8.633942l0 64.65042c0 6.7435303 -5.4667053 12.210236 -12.210213 12.210236l-48.83941 0c-6.743515 0 -12.2102165 -5.4667053 -12.2102165 -12.210236z" fill-rule="evenodd"/><path stroke="#000000" stroke-width="8.0" stroke-linejoin="round" stroke-linecap="butt" d="m63.03281 406.911l0 0c0 -6.7435303 5.4667015 -12.210236 12.2102165 -12.210236l48.83941 0l0 0c3.23835 0 6.344063 1.286438 8.633919 3.576294c2.2898712 2.289856 3.576294 5.3955994 3.576294 8.633942l0 64.65042c0 6.7435303 -5.4667053 12.210236 -12.210213 12.210236l-48.83941 0c-6.743515 0 -12.2102165 -5.4667053 -12.2102165 -12.210236z" fill-rule="evenodd"/><path fill="#ff9900" d="m63.03281 482.77692c0 -8.20166 37.664486 -14.850403 84.12599 -14.850403l0 0c46.461487 0 84.12598 6.6487427 84.12598 14.850403l0 0c0 8.20163 -37.66449 14.850372 -84.12598 14.850372l0 0c-46.461502 0 -84.12599 -6.6487427 -84.12599 -14.850372z" fill-rule="evenodd"/><path stroke="#000000" stroke-width="8.0" stroke-linejoin="round" stroke-linecap="butt" d="m63.03281 482.77692c0 -8.20166 37.664486 -14.850403 84.12599 -14.850403l0 0c46.461487 0 84.12598 6.6487427 84.12598 14.850403l0 0c0 8.20163 -37.66449 14.850372 -84.12598 14.850372l0 0c-46.461502 0 -84.12599 -6.6487427 -84.12599 -14.850372z" fill-rule="evenodd"/><path fill="#ff9900" d="m201.35173 464.10236l0 0c0 -174.55676 124.78212 -316.063 278.70868 -316.063l0 0c73.91812 0 144.80875 33.299408 197.07681 92.57271c52.268005 59.2733 81.631836 139.66518 81.631836 223.49028l0 0c0 174.55676 -124.782104 316.063 -278.70865 316.063l0 0c-153.92654 0 -278.70868 -141.50623 -278.70868 -316.063z" fill-rule="evenodd"/><path stroke="#000000" stroke-width="8.0" stroke-linejoin="round" stroke-linecap="butt" d="m201.35173 464.10236l0 0c0 -174.55676 124.78212 -316.063 278.70868 -316.063l0 0c73.91812 0 144.80875 33.299408 197.07681 92.57271c52.268005 59.2733 81.631836 139.66518 81.631836 223.49028l0 0c0 174.55676 -124.782104 316.063 -278.70865 316.063l0 0c-153.92654 0 -278.70868 -141.50623 -278.70868 -316.063z" fill-rule="evenodd"/><path fill="#000000" d="m271.2139 341.8596l0 0c0 -35.267944 41.15457 -63.858276 91.921265 -63.858276l0 0c50.766724 0 91.921265 28.590332 91.921265 63.858276l0 0c0 35.267944 -41.15454 63.858246 -91.921265 63.858246l0 0c-50.766693 0 -91.921265 -28.590302 -91.921265 -63.858246z" fill-rule="evenodd"/><path stroke="#000000" stroke-width="8.0" stroke-linejoin="round" stroke-linecap="butt" d="m271.2139 341.8596l0 0c0 -35.267944 41.15457 -63.858276 91.921265 -63.858276l0 0c50.766724 0 91.921265 28.590332 91.921265 63.858276l0 0c0 35.267944 -41.15454 63.858246 -91.921265 63.858246l0 0c-50.766693 0 -91.921265 -28.590302 -91.921265 -63.858246z" fill-rule="evenodd"/><path fill="#eeeeee" d="m311.13388 341.84586l0 0c0 -28.014313 23.76767 -50.724396 53.08661 -50.724396l0 0c14.079437 0 27.582245 5.3441467 37.537903 14.856842c9.955688 9.512665 15.548706 22.414612 15.548706 35.867554l0 0c0 28.014313 -23.76767 50.724426 -53.08661 50.724426l0 0c-29.31894 0 -53.08661 -22.710114 -53.08661 -50.724426z" fill-rule="evenodd"/><path stroke="#000000" stroke-width="8.0" stroke-linejoin="round" stroke-linecap="butt" d="m311.13388 341.84586l0 0c0 -28.014313 23.76767 -50.724396 53.08661 -50.724396l0 0c14.079437 0 27.582245 5.3441467 37.537903 14.856842c9.955688 9.512665 15.548706 22.414612 15.548706 35.867554l0 0c0 28.014313 -23.76767 50.724426 -53.08661 50.724426l0 0c-29.31894 0 -53.08661 -22.710114 -53.08661 -50.724426z" fill-rule="evenodd"/><path fill="#000000" d="m336.37668 341.86276l0 0c0 -13.115692 12.458466 -23.748047 27.826752 -23.748047l0 0c15.368317 0 27.826782 10.632355 27.826782 23.748047l0 0c0 13.115662 -12.458466 23.748016 -27.826782 23.748016l0 0c-15.368286 0 -27.826752 -10.632355 -27.826752 -23.748016z" fill-rule="evenodd"/><path stroke="#000000" stroke-width="8.0" stroke-linejoin="round" stroke-linecap="butt" d="m336.37668 341.86276l0 0c0 -13.115692 12.458466 -23.748047 27.826752 -23.748047l0 0c15.368317 0 27.826782 10.632355 27.826782 23.748047l0 0c0 13.115662 -12.458466 23.748016 -27.826782 23.748016l0 0c-15.368286 0 -27.826752 -10.632355 -27.826752 -23.748016z" fill-rule="evenodd"/><path fill="#000000" d="m504.9462 341.8491l0 0c0 -35.267944 41.15457 -63.858276 91.921234 -63.858276l0 0c50.766724 0 91.921265 28.590332 91.921265 63.858276l0 0c0 35.267944 -41.15454 63.858246 -91.921265 63.858246l0 0c-50.766663 0 -91.921234 -28.590302 -91.921234 -63.858246z" fill-rule="evenodd"/><path stroke="#000000" stroke-width="8.0" stroke-linejoin="round" stroke-linecap="butt" d="m504.9462 341.8491l0 0c0 -35.267944 41.15457 -63.858276 91.921234 -63.858276l0 0c50.766724 0 91.921265 28.590332 91.921265 63.858276l0 0c0 35.267944 -41.15454 63.858246 -91.921265 63.858246l0 0c-50.766663 0 -91.921234 -28.590302 -91.921234 -63.858246z" fill-rule="evenodd"/><path fill="#eeeeee" d="m549.41736 341.82748l0 0c0 -28.014313 23.76764 -50.724396 53.08661 -50.724396l0 0c14.079407 0 27.582214 5.3441467 37.537903 14.856842c9.955688 9.512665 15.548706 22.414612 15.548706 35.867554l0 0c0 28.014313 -23.7677 50.724426 -53.08661 50.724426l0 0c-29.31897 0 -53.08661 -22.710114 -53.08661 -50.724426z" fill-rule="evenodd"/><path stroke="#000000" stroke-width="8.0" stroke-linejoin="round" stroke-linecap="butt" d="m549.41736 341.82748l0 0c0 -28.014313 23.76764 -50.724396 53.08661 -50.724396l0 0c14.079407 0 27.582214 5.3441467 37.537903 14.856842c9.955688 9.512665 15.548706 22.414612 15.548706 35.867554l0 0c0 28.014313 -23.7677 50.724426 -53.08661 50.724426l0 0c-29.31897 0 -53.08661 -22.710114 -53.08661 -50.724426z" fill-rule="evenodd"/><path fill="#000000" d="m574.66016 341.8444l0 0c0 -13.115692 12.458435 -23.748047 27.826721 -23.748047l0 0c15.368347 0 27.826782 10.632355 27.826782 23.748047l0 0c0 13.115662 -12.458435 23.748016 -27.826782 23.748016l0 0c-15.368286 0 -27.826721 -10.632355 -27.826721 -23.748016z" fill-rule="evenodd"/><path stroke="#000000" stroke-width="8.0" stroke-linejoin="round" stroke-linecap="butt" d="m574.66016 341.8444l0 0c0 -13.115692 12.458435 -23.748047 27.826721 -23.748047l0 0c15.368347 0 27.826782 10.632355 27.826782 23.748047l0 0c0 13.115662 -12.458435 23.748016 -27.826782 23.748016l0 0c-15.368286 0 -27.826721 -10.632355 -27.826721 -23.748016z" fill-rule="evenodd"/><path fill="#ffffff" d="m628.6522 464.10104l0 0c0 32.185486 -63.12036 58.30246 -141.12729 58.393463c-78.00693 0.09106445 -141.48431 -25.878204 -141.92557 -58.06317l141.5253 -0.33029175z" fill-rule="evenodd"/><path stroke="#000000" stroke-width="8.0" stroke-linejoin="round" stroke-linecap="butt" d="m628.6522 464.10104l0 0c0 32.185486 -63.12036 58.30246 -141.12729 58.393463c-78.00693 0.09106445 -141.48431 -25.878204 -141.92557 -58.06317l141.5253 -0.33029175z" fill-rule="evenodd"/><path fill="#000000" d="m365.3701 175.65678l2.7619019 -138.35942l51.096344 117.44603z" fill-rule="evenodd"/><path stroke="#000000" stroke-width="8.0" stroke-linejoin="round" stroke-linecap="butt" d="m365.3701 175.65678l2.7619019 -138.35942l51.096344 117.44603z" fill-rule="evenodd"/><path fill="#000000" d="m597.91077 169.90875l-2.7619019 -138.35942l-51.096375 117.44603z" fill-rule="evenodd"/><path stroke="#000000" stroke-width="8.0" stroke-linejoin="round" stroke-linecap="butt" d="m597.91077 169.90875l-2.7619019 -138.35942l-51.096375 117.44603z" fill-rule="evenodd"/><path fill="#000000" d="m453.8144 145.08432l26.059204 -132.85039l29.59433 132.85039z" fill-rule="evenodd"/><path stroke="#000000" stroke-width="8.0" stroke-linejoin="round" stroke-linecap="butt" d="m453.8144 145.08432l26.059204 -132.85039l29.59433 132.85039z" fill-rule="evenodd"/><path fill="#000000" fill-opacity="0.0" d="m517.8583 538.6378l-95.0105 25.729614l87.09448 33.65094l-65.32022 33.648315l63.341217 17.816223l15.832031 3.9580078" fill-rule="evenodd"/><path stroke="#000000" stroke-width="8.0" stroke-linejoin="round" stroke-linecap="butt" d="m517.8583 538.6378l-95.0105 25.729614l87.09448 33.65094l-65.32022 33.648315l63.341217 17.816223l15.832031 3.9580078" fill-rule="evenodd"/><path fill="#ff9900" d="m454.32678 427.29004l11.385803 -45.543335l28.692932 0l11.385834 45.543335z" fill-rule="evenodd"/><path stroke="#000000" stroke-width="8.0" stroke-linejoin="round" stroke-linecap="butt" d="m454.32678 427.29004l11.385803 -45.543335l28.692932 0l11.385834 45.543335z" fill-rule="evenodd"/><path fill="#000000" fill-opacity="0.0" d="m509.62335 467.51312l0.8189087 55.874023" fill-rule="evenodd"/><path stroke="#000000" stroke-width="8.0" stroke-linejoin="round" stroke-linecap="butt" d="m509.62335 467.51312l0.8189087 55.874023" fill-rule="evenodd"/><path fill="#000000" fill-opacity="0.0" d="m460.437 462.89108l1.4803162 60.062958" fill-rule="evenodd"/><path stroke="#000000" stroke-width="8.0" stroke-linejoin="round" stroke-linecap="butt" d="m460.437 462.89108l1.4803162 60.062958" fill-rule="evenodd"/><path fill="#000000" fill-opacity="0.0" d="m422.84647 464.70996l0.88186646 50.960632" fill-rule="evenodd"/><path stroke="#000000" stroke-width="8.0" stroke-linejoin="round" stroke-linecap="butt" d="m422.84647 464.70996l0.88186646 50.960632" fill-rule="evenodd"/><path fill="#000000" fill-opacity="0.0" d="m547.6706 467.44226l0.881897 50.960632" fill-rule="evenodd"/><path stroke="#000000" stroke-width="8.0" stroke-linejoin="round" stroke-linecap="butt" d="m547.6706 467.44226l0.881897 50.960632" fill-rule="evenodd"/><path fill="#000000" fill-opacity="0.0" d="m384.24802 467.51312l2.8031616 38.960632" fill-rule="evenodd"/><path stroke="#000000" stroke-width="8.0" stroke-linejoin="round" stroke-linecap="butt" d="m384.24802 467.51312l2.8031616 38.960632" fill-rule="evenodd"/><path fill="#000000" fill-opacity="0.0" d="m585.11945 466.3084l2.456665 40.15747" fill-rule="evenodd"/><path stroke="#000000" stroke-width="8.0" stroke-linejoin="round" stroke-linecap="butt" d="m585.11945 466.3084l2.456665 40.15747" fill-rule="evenodd"/><path fill="#000000" d="m417.31625 286.08267l132.09451 0l0 60.06299l-132.09451 0z" fill-rule="evenodd"/><path stroke="#000000" stroke-width="1.0" stroke-linejoin="round" stroke-linecap="butt" d="m417.31625 286.08267l132.09451 0l0 60.06299l-132.09451 0z" fill-rule="evenodd"/><path fill="#000000" d="m450.72046 311.82285l73.25983 0l0 60.06299l-73.25983 0z" fill-rule="evenodd"/><path stroke="#000000" stroke-width="1.0" stroke-linejoin="round" stroke-linecap="butt" d="m450.72046 311.82285l73.25983 0l0 60.06299l-73.25983 0z" fill-rule="evenodd"/><path fill="#000000" d="m367.12598 274.66666l232.47247 0l0 13.039368l-232.47247 0z" fill-rule="evenodd"/><path stroke="#000000" stroke-width="1.0" stroke-linejoin="round" stroke-linecap="butt" d="m367.12598 274.66666l232.47247 0l0 13.039368l-232.47247 0z" fill-rule="evenodd"/><path fill="#000000" d="m266.44882 261.23883l32.217834 43.427826l-26.335938 51.643066l-48.33072 -14.976379z" fill-rule="evenodd"/><path stroke="#000000" stroke-width="8.0" stroke-linejoin="round" stroke-linecap="butt" d="m266.44882 261.23883l32.217834 43.427826l-26.335938 51.643066l-48.33072 -14.976379z" fill-rule="evenodd"/><path fill="#000000" d="m376.24146 278.00262l232.47247 0l0 13.039368l-232.47247 0z" fill-rule="evenodd"/><path stroke="#000000" stroke-width="1.0" stroke-linejoin="round" stroke-linecap="butt" d="m376.24146 278.00262l232.47247 0l0 13.039368l-232.47247 0z" fill-rule="evenodd"/><path fill="#000000" d="m694.8189 261.23883l-32.217834 43.427826l26.335938 51.643066l48.33069 -14.976379z" fill-rule="evenodd"/><path stroke="#000000" stroke-width="8.0" stroke-linejoin="round" stroke-linecap="butt" d="m694.8189 261.23883l-32.217834 43.427826l26.335938 51.643066l48.33069 -14.976379z" fill-rule="evenodd"/></g></svg>