<svg version="1.1" viewBox="0.0 0.0 960.0 960.0" fill="none" stroke="none" stroke-linecap="square" stroke-miterlimit="10" xmlns:xlink="http://www.w3.org/1999/xlink" xmlns="http://www.w3.org/2000/svg"><clipPath id="g2d4d7af7e1f_0_1.0"><path d="m0 0l960.0 0l0 960.0l-960.0 0l0 -960.0z" clip-rule="nonzero"/></clipPath><g clip-path="url(#g2d4d7af7e1f_0_1.0)"><path fill="#000000" fill-opacity="0.0" d="m0 0l960.0 0l0 960.0l-960.0 0z" fill-rule="evenodd"/><path fill="#ff9900" d="m271.5086 719.82275l-38.16574 59.586548l15.742935 7.0269165l-48.072495 51.06018l15.742935 8.526367l-59.431747 85.48901l100.78958 -65.51581l-19.222046 -9.094788l62.62384 -41.965332l-22.440216 -12.966003l66.12033 -44.023438z" fill-rule="evenodd"/><path stroke="#000000" stroke-width="8.0" stroke-linejoin="round" stroke-linecap="butt" d="m271.5086 719.82275l-38.16574 59.586548l15.742935 7.0269165l-48.072495 51.06018l15.742935 8.526367l-59.431747 85.48901l100.78958 -65.51581l-19.222046 -9.094788l62.62384 -41.965332l-22.440216 -12.966003l66.12033 -44.023438z" fill-rule="evenodd"/><path fill="#ff9900" d="m549.7702 719.82275l35.941406 59.586548l-14.825439 7.0269165l45.270752 51.06018l-14.825439 8.526367l55.967957 85.48901l-94.915344 -65.51581l18.101746 -9.094788l-58.974 -41.965332l21.132385 -12.966003l-62.266693 -44.023438z" fill-rule="evenodd"/><path stroke="#000000" stroke-width="8.0" stroke-linejoin="round" stroke-linecap="butt" d="m549.7702 719.82275l35.941406 59.586548l-14.825439 7.0269165l45.270752 51.06018l-14.825439 8.526367l55.967957 85.48901l-94.915344 -65.51581l18.101746 -9.094788l-58.974 -41.965332l21.132385 -12.966003l-62.266693 -44.023438z" fill-rule="evenodd"/><path fill="#ff9900" d="m800.3487 584.71173l0 0c0 6.2301025 -5.050476 11.28064 -11.280579 11.28064l-45.121216 0l0 0c-2.9917603 0 -5.861084 -1.1884766 -7.9765625 -3.304016c-2.1155396 -2.1155396 -3.304016 -4.9848022 -3.304016 -7.9766235l0 -59.730713c0 -6.2301025 5.050476 -11.28064 11.280579 -11.28064l45.121216 0c6.2301025 0 11.280579 5.050537 11.280579 11.28064z" fill-rule="evenodd"/><path stroke="#000000" stroke-width="8.0" stroke-linejoin="round" stroke-linecap="butt" d="m800.3487 584.71173l0 0c0 6.2301025 -5.050476 11.28064 -11.280579 11.28064l-45.121216 0l0 0c-2.9917603 0 -5.861084 -1.1884766 -7.9765625 -3.304016c-2.1155396 -2.1155396 -3.304016 -4.9848022 -3.304016 -7.9766235l0 -59.730713c0 -6.2301025 5.050476 -11.28064 11.280579 -11.28064l45.121216 0c6.2301025 0 11.280579 5.050537 11.280579 11.28064z" fill-rule="evenodd"/><path fill="#ff9900" d="m800.3487 514.61584c0 7.578064 -34.79828 13.7213745 -77.72418 13.7213745l0 0c-42.925903 0 -77.72424 -6.1433105 -77.72424 -13.7213745l0 0c0 -7.578125 34.79834 -13.721405 77.72424 -13.721405l0 0c42.925903 0 77.72418 6.14328 77.72418 13.721405z" fill-rule="evenodd"/><path stroke="#000000" stroke-width="8.0" stroke-linejoin="round" stroke-linecap="butt" d="m800.3487 514.61584c0 7.578064 -34.79828 13.7213745 -77.72418 13.7213745l0 0c-42.925903 0 -77.72424 -6.1433105 -77.72424 -13.7213745l0 0c0 -7.578125 34.79834 -13.721405 77.72424 -13.721405l0 0c42.925903 0 77.72418 6.14328 77.72418 13.721405z" fill-rule="evenodd"/><path fill="#ff9900" d="m19.45715 444.5213l0 0c0 -6.230133 5.0505085 -11.28064 11.280628 -11.28064l45.12117 0l0 0c2.991806 0 5.8610764 1.1885071 7.9766083 3.304016c2.1155243 2.1155396 3.304016 4.9848022 3.304016 7.9766235l0 59.730713c0 6.2301025 -5.0505066 11.28064 -11.280624 11.28064l-45.12117 0c-6.2301197 0 -11.280628 -5.050537 -11.280628 -11.28064z" fill-rule="evenodd"/><path stroke="#000000" stroke-width="8.0" stroke-linejoin="round" stroke-linecap="butt" d="m19.45715 444.5213l0 0c0 -6.230133 5.0505085 -11.28064 11.280628 -11.28064l45.12117 0l0 0c2.991806 0 5.8610764 1.1885071 7.9766083 3.304016c2.1155243 2.1155396 3.304016 4.9848022 3.304016 7.9766235l0 59.730713c0 6.2301025 -5.0505066 11.28064 -11.280624 11.28064l-45.12117 0c-6.2301197 0 -11.280628 -5.050537 -11.280628 -11.28064z" fill-rule="evenodd"/><path fill="#ff9900" d="m19.45715 514.6172c0 -7.578064 34.798317 -13.721344 77.72421 -13.721344l0 0c42.925903 0 77.72423 6.14328 77.72423 13.721344l0 0c0 7.578125 -34.798325 13.7213745 -77.72423 13.7213745l0 0c-42.9259 0 -77.72421 -6.1432495 -77.72421 -13.7213745z" fill-rule="evenodd"/><path stroke="#000000" stroke-width="8.0" stroke-linejoin="round" stroke-linecap="butt" d="m19.45715 514.6172c0 -7.578064 34.798317 -13.721344 77.72421 -13.721344l0 0c42.925903 0 77.72423 6.14328 77.72423 13.721344l0 0c0 7.578125 -34.798325 13.7213745 -77.72423 13.7213745l0 0c-42.9259 0 -77.72421 -6.1432495 -77.72421 -13.7213745z" fill-rule="evenodd"/><path fill="#ff9900" d="m147.25352 497.37137l0 0c0 -161.28244 115.28566 -292.0277 257.49774 -292.0277l0 0c68.29263 0 133.78818 30.76712 182.0784 85.53294c48.29016 54.76584 75.41931 129.04422 75.41931 206.49478l0 0c0 161.2825 -115.285645 292.02774 -257.4977 292.02774l0 0c-142.21207 0 -257.49774 -130.74524 -257.49774 -292.02774z" fill-rule="evenodd"/><path stroke="#000000" stroke-width="8.0" stroke-linejoin="round" stroke-linecap="butt" d="m147.25352 497.37137l0 0c0 -161.28244 115.28566 -292.0277 257.49774 -292.0277l0 0c68.29263 0 133.78818 30.76712 182.0784 85.53294c48.29016 54.76584 75.41931 129.04422 75.41931 206.49478l0 0c0 161.2825 -115.285645 292.02774 -257.4977 292.02774l0 0c-142.21207 0 -257.49774 -130.74524 -257.49774 -292.02774z" fill-rule="evenodd"/><path fill="#000000" d="m211.80095 384.419l0 0c0 -32.58484 38.020096 -59.00009 84.92024 -59.00009l0 0c46.900146 0 84.92023 26.415253 84.92023 59.00009l0 0c0 32.58484 -38.02008 59.00009 -84.92023 59.00009l0 0c-46.900146 0 -84.92024 -26.415253 -84.92024 -59.00009z" fill-rule="evenodd"/><path stroke="#000000" stroke-width="8.0" stroke-linejoin="round" stroke-linecap="butt" d="m211.80095 384.419l0 0c0 -32.58484 38.020096 -59.00009 84.92024 -59.00009l0 0c46.900146 0 84.92023 26.415253 84.92023 59.00009l0 0c0 32.58484 -38.02008 59.00009 -84.92023 59.00009l0 0c-46.900146 0 -84.92024 -26.415253 -84.92024 -59.00009z" fill-rule="evenodd"/><path fill="#eeeeee" d="m248.68402 384.41476l0 0c0 -25.887665 21.95996 -46.87378 49.04892 -46.87378l0 0c13.008575 0 25.484375 4.9384766 34.68283 13.729004c9.198456 8.790558 14.366089 20.713074 14.366089 33.144775l0 0c0 25.887695 -21.95996 46.87381 -49.04892 46.87381l0 0c-27.088959 0 -49.04892 -20.986115 -49.04892 -46.87381z" fill-rule="evenodd"/><path stroke="#000000" stroke-width="8.0" stroke-linejoin="round" stroke-linecap="butt" d="m248.68402 384.41476l0 0c0 -25.887665 21.95996 -46.87378 49.04892 -46.87378l0 0c13.008575 0 25.484375 4.9384766 34.68283 13.729004c9.198456 8.790558 14.366089 20.713074 14.366089 33.144775l0 0c0 25.887695 -21.95996 46.87381 -49.04892 46.87381l0 0c-27.088959 0 -49.04892 -20.986115 -49.04892 -46.87381z" fill-rule="evenodd"/><path fill="#000000" d="m272.0065 384.4132l0 0c0 -12.112946 11.507446 -21.932434 25.702637 -21.932434l0 0c14.19516 0 25.702637 9.819489 25.702637 21.932434l0 0c0 12.112946 -11.507477 21.932434 -25.702637 21.932434l0 0c-14.19519 0 -25.702637 -9.819489 -25.702637 -21.932434z" fill-rule="evenodd"/><path stroke="#000000" stroke-width="8.0" stroke-linejoin="round" stroke-linecap="butt" d="m272.0065 384.4132l0 0c0 -12.112946 11.507446 -21.932434 25.702637 -21.932434l0 0c14.19516 0 25.702637 9.819489 25.702637 21.932434l0 0c0 12.112946 -11.507477 21.932434 -25.702637 21.932434l0 0c-14.19519 0 -25.702637 -9.819489 -25.702637 -21.932434z" fill-rule="evenodd"/><path fill="#000000" d="m427.75214 384.4093l0 0c0 -32.58484 38.02011 -59.00006 84.92023 -59.00006l0 0c46.900146 0 84.92029 26.415222 84.92029 59.00006l0 0c0 32.58484 -38.02014 59.00009 -84.92029 59.00009l0 0c-46.900116 0 -84.92023 -26.415253 -84.92023 -59.00009z" fill-rule="evenodd"/><path stroke="#000000" stroke-width="8.0" stroke-linejoin="round" stroke-linecap="butt" d="m427.75214 384.4093l0 0c0 -32.58484 38.02011 -59.00006 84.92023 -59.00006l0 0c46.900146 0 84.92029 26.415222 84.92029 59.00006l0 0c0 32.58484 -38.02014 59.00009 -84.92029 59.00009l0 0c-46.900116 0 -84.92023 -26.415253 -84.92023 -59.00009z" fill-rule="evenodd"/><path fill="#eeeeee" d="m468.84018 384.3978l0 0c0 -25.887695 21.95993 -46.87381 49.04892 -46.87381l0 0c13.008545 0 25.484375 4.9384766 34.6828 13.729034c9.198486 8.790527 14.366089 20.713074 14.366089 33.144775l0 0c0 25.887695 -21.95996 46.87381 -49.04889 46.87381l0 0c-27.08899 0 -49.04892 -20.986115 -49.04892 -46.87381z" fill-rule="evenodd"/><path stroke="#000000" stroke-width="8.0" stroke-linejoin="round" stroke-linecap="butt" d="m468.84018 384.3978l0 0c0 -25.887695 21.95993 -46.87381 49.04892 -46.87381l0 0c13.008545 0 25.484375 4.9384766 34.6828 13.729034c9.198486 8.790527 14.366089 20.713074 14.366089 33.144775l0 0c0 25.887695 -21.95996 46.87381 -49.04889 46.87381l0 0c-27.08899 0 -49.04892 -20.986115 -49.04892 -46.87381z" fill-rule="evenodd"/><path fill="#000000" d="m492.16263 384.39624l0 0c0 -12.112946 11.507477 -21.932434 25.702667 -21.932434l0 0c14.19519 0 25.702637 9.819489 25.702637 21.932434l0 0c0 12.112946 -11.507446 21.932434 -25.702637 21.932434l0 0c-14.19519 0 -25.702667 -9.819489 -25.702667 -21.932434z" fill-rule="evenodd"/><path stroke="#000000" stroke-width="8.0" stroke-linejoin="round" stroke-linecap="butt" d="m492.16263 384.39624l0 0c0 -12.112946 11.507477 -21.932434 25.702667 -21.932434l0 0c14.19519 0 25.702637 9.819489 25.702637 21.932434l0 0c0 12.112946 -11.507446 21.932434 -25.702637 21.932434l0 0c-14.19519 0 -25.702667 -9.819489 -25.702667 -21.932434z" fill-rule="evenodd"/><path fill="#ffffff" d="m542.0472 497.35284l0 0c0 29.7323 -58.31845 53.858643 -130.39096 53.942688c-72.07254 0.084106445 -130.72092 -23.9057 -131.12863 -53.637512l130.75876 -0.30517578z" fill-rule="evenodd"/><path stroke="#000000" stroke-width="8.0" stroke-linejoin="round" stroke-linecap="butt" d="m542.0472 497.35284l0 0c0 29.7323 -58.31845 53.858643 -130.39096 53.942688c-72.07254 0.084106445 -130.72092 -23.9057 -131.12863 -53.637512l130.75876 -0.30517578z" fill-rule="evenodd"/><path fill="#000000" fill-opacity="0.0" d="m439.68027 566.2279l-87.780945 23.77179l80.467285 31.090332l-60.349854 31.087952l58.521423 16.460571l14.627319 3.6568604" fill-rule="evenodd"/><path stroke="#000000" stroke-width="8.0" stroke-linejoin="round" stroke-linecap="butt" d="m439.68027 566.2279l-87.780945 23.77179l80.467285 31.090332l-60.349854 31.087952l58.521423 16.460571l14.627319 3.6568604" fill-rule="evenodd"/><path fill="#ff9900" d="m380.98358 463.3606l10.522125 -42.08853l26.51831 0l10.522156 42.08853z" fill-rule="evenodd"/><path stroke="#000000" stroke-width="8.0" stroke-linejoin="round" stroke-linecap="butt" d="m380.98358 463.3606l10.522125 -42.08853l26.51831 0l10.522156 42.08853z" fill-rule="evenodd"/><path fill="#000000" fill-opacity="0.0" d="m432.07352 500.51392l0.7612915 51.622803" fill-rule="evenodd"/><path stroke="#000000" stroke-width="8.0" stroke-linejoin="round" stroke-linecap="butt" d="m432.07352 500.51392l0.7612915 51.622803" fill-rule="evenodd"/><path fill="#000000" fill-opacity="0.0" d="m386.629 496.24347l1.3775635 55.50177" fill-rule="evenodd"/><path stroke="#000000" stroke-width="8.0" stroke-linejoin="round" stroke-linecap="butt" d="m386.629 496.24347l1.3775635 55.50177" fill-rule="evenodd"/><path fill="#000000" fill-opacity="0.0" d="m351.89813 497.924l0.7975464 47.09131" fill-rule="evenodd"/><path stroke="#000000" stroke-width="8.0" stroke-linejoin="round" stroke-linecap="butt" d="m351.89813 497.924l0.7975464 47.09131" fill-rule="evenodd"/><path fill="#000000" fill-opacity="0.0" d="m467.22632 500.44843l0.7975464 47.09131" fill-rule="evenodd"/><path stroke="#000000" stroke-width="8.0" stroke-linejoin="round" stroke-linecap="butt" d="m467.22632 500.44843l0.7975464 47.09131" fill-rule="evenodd"/><path fill="#000000" fill-opacity="0.0" d="m316.23605 500.51392l2.573883 35.99817" fill-rule="evenodd"/><path stroke="#000000" stroke-width="8.0" stroke-linejoin="round" stroke-linecap="butt" d="m316.23605 500.51392l2.573883 35.99817" fill-rule="evenodd"/><path fill="#000000" fill-opacity="0.0" d="m501.82623 499.40082l2.2838745 37.085754" fill-rule="evenodd"/><path stroke="#000000" stroke-width="8.0" stroke-linejoin="round" stroke-linecap="butt" d="m501.82623 499.40082l2.2838745 37.085754" fill-rule="evenodd"/><path fill="#000000" d="m346.78864 332.88553l122.060394 0l0 55.50174l-122.060394 0z" fill-rule="evenodd"/><path stroke="#000000" stroke-width="1.0" stroke-linejoin="round" stroke-linecap="butt" d="m346.78864 332.88553l122.060394 0l0 55.50174l-122.060394 0z" fill-rule="evenodd"/><path fill="#000000" d="m377.65164 356.66754l67.6824 0l0 55.50174l-67.6824 0z" fill-rule="evenodd"/><path stroke="#000000" stroke-width="1.0" stroke-linejoin="round" stroke-linecap="butt" d="m377.65164 356.66754l67.6824 0l0 55.50174l-67.6824 0z" fill-rule="evenodd"/><path fill="#000000" d="m300.41656 322.33795l214.79291 0l0 12.035675l-214.79291 0z" fill-rule="evenodd"/><path stroke="#000000" stroke-width="1.0" stroke-linejoin="round" stroke-linecap="butt" d="m300.41656 322.33795l214.79291 0l0 12.035675l-214.79291 0z" fill-rule="evenodd"/><path fill="#000000" d="m207.39761 309.93164l29.766327 40.12329l-24.332 47.71341l-44.653107 -13.836792z" fill-rule="evenodd"/><path stroke="#000000" stroke-width="8.0" stroke-linejoin="round" stroke-linecap="butt" d="m207.39761 309.93164l29.766327 40.12329l-24.332 47.71341l-44.653107 -13.836792z" fill-rule="evenodd"/><path fill="#000000" d="m308.8386 325.42014l214.79294 0l0 12.035645l-214.79294 0z" fill-rule="evenodd"/><path stroke="#000000" stroke-width="1.0" stroke-linejoin="round" stroke-linecap="butt" d="m308.8386 325.42014l214.79294 0l0 12.035645l-214.79294 0z" fill-rule="evenodd"/><path fill="#000000" d="m603.1811 309.93164l-29.766296 40.12329l24.332031 47.71341l44.653076 -13.836792z" fill-rule="evenodd"/><path stroke="#000000" stroke-width="8.0" stroke-linejoin="round" stroke-linecap="butt" d="m603.1811 309.93164l-29.766296 40.12329l24.332031 47.71341l44.653076 -13.836792z" fill-rule="evenodd"/><path fill="#ff0000" d="m310.0774 233.68248l7.436615 -180.06352l172.73071 0l7.436615 180.06352z" fill-rule="evenodd"/><path stroke="#000000" stroke-width="8.0" stroke-linejoin="round" stroke-linecap="butt" d="m310.0774 233.68248l7.436615 -180.06352l172.73071 0l7.436615 180.06352z" fill-rule="evenodd"/><path fill="#ffffff" d="m340.97617 59.551964l40.05841 0l0 175.71329l-40.05841 0z" fill-rule="evenodd"/><path fill="#ffffff" d="m419.57043 59.551964l40.05841 0l0 175.71329l-40.05841 0z" fill-rule="evenodd"/><path fill="#0000ff" d="m310.0774 223.21767l2.6470642 -64.093475l182.30981 0l2.6470642 64.093475z" fill-rule="evenodd"/><path stroke="#000000" stroke-width="8.0" stroke-linejoin="round" stroke-linecap="butt" d="m310.0774 223.21767l2.6470642 -64.093475l182.30981 0l2.6470642 64.093475z" fill-rule="evenodd"/><path fill="#ff0000" d="m265.75937 221.72256l0 0c0 -3.639145 14.966278 -7.1292267 41.606445 -9.702484c26.640167 -2.5732422 62.772003 -4.0188904 100.4469 -4.0188904l0 0c78.45389 0 142.05331 6.143265 142.05331 13.7213745l0 0c0 7.5780945 -63.599426 13.721359 -142.05331 13.721359l0 0c-78.45392 0 -142.05334 -6.143265 -142.05334 -13.721359z" fill-rule="evenodd"/><path stroke="#000000" stroke-width="8.0" stroke-linejoin="round" stroke-linecap="butt" d="m265.75937 221.72256l0 0c0 -3.639145 14.966278 -7.1292267 41.606445 -9.702484c26.640167 -2.5732422 62.772003 -4.0188904 100.4469 -4.0188904l0 0c78.45389 0 142.05331 6.143265 142.05331 13.7213745l0 0c0 7.5780945 -63.599426 13.721359 -142.05331 13.721359l0 0c-78.45392 0 -142.05334 -6.143265 -142.05334 -13.721359z" fill-rule="evenodd"/><path fill="#ffffff" d="m323.3275 181.00745l11.036102 7.6293945E-5l3.4102783 -10.482239l3.4102783 10.482239l11.036102 -7.6293945E-5l-8.928436 6.478302l3.4104004 10.482208l-8.928345 -6.4784393l-8.928345 6.4784393l3.4104004 -10.482208z" fill-rule="evenodd"/><path fill="#ffffff" d="m357.09018 181.00745l11.036102 7.6293945E-5l3.4102783 -10.482239l3.4102783 10.482239l11.036102 -7.6293945E-5l-8.928436 6.478302l3.4104004 10.482208l-8.928345 -6.4784393l-8.928345 6.4784393l3.4104004 -10.482208z" fill-rule="evenodd"/><path fill="#ffffff" d="m390.85284 181.00745l11.036102 7.6293945E-5l3.4102783 -10.482239l3.4102783 10.482239l11.036102 -7.6293945E-5l-8.928436 6.478302l3.4104004 10.482208l-8.928345 -6.4784393l-8.928345 6.4784393l3.4104004 -10.482208z" fill-rule="evenodd"/><path fill="#ffffff" d="m424.6155 181.00745l11.036102 7.6293945E-5l3.4102783 -10.482239l3.4102783 10.482239l11.036102 -7.6293945E-5l-8.928436 6.478302l3.410431 10.482208l-8.928375 -6.4784393l-8.928345 6.4784393l3.4104004 -10.482208z" fill-rule="evenodd"/><path fill="#ffffff" d="m458.37817 181.00745l11.036102 7.6293945E-5l3.4102783 -10.482239l3.4102783 10.482239l11.036102 -7.6293945E-5l-8.928436 6.478302l3.410431 10.482208l-8.928375 -6.4784393l-8.928345 6.4784393l3.410431 -10.482208z" fill-rule="evenodd"/><path fill="#bf9000" d="m744.22797 353.84845l0 0c0 -4.5348206 3.4002686 -8.21106 7.5947876 -8.21106l0 0c2.0142212 0 3.945984 0.8650818 5.3703003 2.4049683c1.4243164 1.5398865 2.2244873 3.6283875 2.2244873 5.8060913l0 0c0 4.534851 -3.4003296 8.21109 -7.5947876 8.21109l0 0c-4.194519 0 -7.5947876 -3.676239 -7.5947876 -8.21109z" fill-rule="evenodd"/><path stroke="#595959" stroke-width="1.0" stroke-linejoin="round" stroke-linecap="butt" d="m744.22797 353.84845l0 0c0 -4.5348206 3.4002686 -8.21106 7.5947876 -8.21106l0 0c2.0142212 0 3.945984 0.8650818 5.3703003 2.4049683c1.4243164 1.5398865 2.2244873 3.6283875 2.2244873 5.8060913l0 0c0 4.534851 -3.4003296 8.21109 -7.5947876 8.21109l0 0c-4.194519 0 -7.5947876 -3.676239 -7.5947876 -8.21109z" fill-rule="evenodd"/><path fill="#1c4587" d="m756.7341 362.487l74.90405 0l0 54.06784l-74.90405 0z" fill-rule="evenodd"/><path fill="#dc0707" d="m756.77344 454.85382l187.36871 0l0 7.6619263l-187.36871 0z" fill-rule="evenodd"/><path fill="#ffffff" d="m756.77344 447.1919l187.36871 0l0 7.6619263l-187.36871 0z" fill-rule="evenodd"/><path fill="#dc0707" d="m756.77344 439.46912l187.36871 0l0 7.6619263l-187.36871 0z" fill-rule="evenodd"/><path fill="#ffffff" d="m756.77344 431.74698l187.36871 0l0 7.6619263l-187.36871 0z" fill-rule="evenodd"/><path fill="#dc0707" d="m756.77344 424.08505l187.36871 0l0 7.6619263l-187.36871 0z" fill-rule="evenodd"/><path fill="#ffffff" d="m756.77344 416.42316l187.36871 0l0 7.6618958l-187.36871 0z" fill-rule="evenodd"/><path fill="#dc0707" d="m831.64 408.70068l112.50214 0l0 7.6618958l-112.50214 0z" fill-rule="evenodd"/><path fill="#ffffff" d="m831.64 400.9785l112.50214 0l0 7.6618958l-112.50214 0z" fill-rule="evenodd"/><path fill="#dc0707" d="m831.64 393.3165l112.50214 0l0 7.6619263l-112.50214 0z" fill-rule="evenodd"/><path fill="#ffffff" d="m831.64 385.65454l112.50214 0l0 7.6619263l-112.50214 0z" fill-rule="evenodd"/><path fill="#dc0707" d="m831.64 377.9317l112.50214 0l0 7.6619263l-112.50214 0z" fill-rule="evenodd"/><path fill="#ffffff" d="m831.64 370.2095l112.50214 0l0 7.6619263l-112.50214 0z" fill-rule="evenodd"/><path fill="#dc0707" d="m831.64 362.487l112.50214 0l0 7.6619263l-112.50214 0z" fill-rule="evenodd"/><path fill="#eeeeee" d="m822.12756 367.56796l2.5231934 3.0517578E-5l0.7797241 -2.3372803l0.7797241 2.3372803l2.5231934 -3.0517578E-5l-2.0413208 1.444519l0.7797241 2.3372803l-2.0413208 -1.4445496l-2.0413208 1.4445496l0.7797241 -2.3372803z" fill-rule="evenodd"/><path fill="#eeeeee" d="m822.12756 378.26883l2.5231934 0l0.7797241 -2.3372803l0.7797241 2.3372803l2.5231934 0l-2.0413208 1.4444885l0.7797241 2.3372803l-2.0413208 -1.444519l-2.0413208 1.444519l0.7797241 -2.3372803z" fill-rule="evenodd"/><path fill="#eeeeee" d="m822.12756 388.96967l2.5231934 3.0517578E-5l0.7797241 -2.3372803l0.7797241 2.3372803l2.5231934 -3.0517578E-5l-2.0413208 1.444519l0.7797241 2.3372498l-2.0413208 -1.444519l-2.0413208 1.444519l0.7797241 -2.3372498z" fill-rule="evenodd"/><path fill="#eeeeee" d="m822.12756 399.67053l2.5231934 0l0.7797241 -2.3372803l0.7797241 2.3372803l2.5231934 0l-2.0413208 1.4444885l0.7797241 2.3372803l-2.0413208 -1.4445496l-2.0413208 1.4445496l0.7797241 -2.3372803z" fill-rule="evenodd"/><path fill="#eeeeee" d="m822.12756 410.37137l2.5231934 0l0.7797241 -2.3372803l0.7797241 2.3372803l2.5231934 0l-2.0413208 1.4444885l0.7797241 2.3372803l-2.0413208 -1.444519l-2.0413208 1.444519l0.7797241 -2.3372803z" fill-rule="evenodd"/><path fill="#eeeeee" d="m815.52167 373.0554l2.5231934 3.0517578E-5l0.7797241 -2.3372803l0.7797241 2.3372803l2.5231934 -3.0517578E-5l-2.0413208 1.444519l0.7797241 2.3372498l-2.0413208 -1.444519l-2.0413208 1.444519l0.7797241 -2.3372498z" fill-rule="evenodd"/><path fill="#eeeeee" d="m815.52167 383.75626l2.5231934 0l0.7797241 -2.3372803l0.7797241 2.3372803l2.5231934 0l-2.0413208 1.4444885l0.7797241 2.3372803l-2.0413208 -1.4445496l-2.0413208 1.4445496l0.7797241 -2.3372803z" fill-rule="evenodd"/><path fill="#eeeeee" d="m815.52167 394.4571l2.5231934 3.0517578E-5l0.7797241 -2.3372803l0.7797241 2.3372803l2.5231934 -3.0517578E-5l-2.0413208 1.4444885l0.7797241 2.3372803l-2.0413208 -1.444519l-2.0413208 1.444519l0.7797241 -2.3372803z" fill-rule="evenodd"/><path fill="#eeeeee" d="m815.52167 405.15793l2.5231934 3.0517578E-5l0.7797241 -2.3372803l0.7797241 2.3372803l2.5231934 -3.0517578E-5l-2.0413208 1.444519l0.7797241 2.3372498l-2.0413208 -1.444519l-2.0413208 1.444519l0.7797241 -2.3372498z" fill-rule="evenodd"/><path fill="#eeeeee" d="m809.5106 367.56796l2.5231934 3.0517578E-5l0.7797241 -2.3372803l0.7796631 2.3372803l2.5232544 -3.0517578E-5l-2.0413208 1.444519l0.7797241 2.3372803l-2.0413208 -1.4445496l-2.0413208 1.4445496l0.7797241 -2.3372803z" fill-rule="evenodd"/><path fill="#eeeeee" d="m809.5106 378.26883l2.5231934 0l0.7797241 -2.3372803l0.7796631 2.3372803l2.5232544 0l-2.0413208 1.4444885l0.7797241 2.3372803l-2.0413208 -1.444519l-2.0413208 1.444519l0.7797241 -2.3372803z" fill-rule="evenodd"/><path fill="#eeeeee" d="m809.5106 388.96967l2.5231934 3.0517578E-5l0.7797241 -2.3372803l0.7796631 2.3372803l2.5232544 -3.0517578E-5l-2.0413208 1.444519l0.7797241 2.3372498l-2.0413208 -1.444519l-2.0413208 1.444519l0.7797241 -2.3372498z" fill-rule="evenodd"/><path fill="#eeeeee" d="m809.5106 399.67053l2.5231934 0l0.7797241 -2.3372803l0.7796631 2.3372803l2.5232544 0l-2.0413208 1.4444885l0.7797241 2.3372803l-2.0413208 -1.4445496l-2.0413208 1.4445496l0.7797241 -2.3372803z" fill-rule="evenodd"/><path fill="#eeeeee" d="m809.5106 410.37137l2.5231934 0l0.7797241 -2.3372803l0.7796631 2.3372803l2.5232544 0l-2.0413208 1.4444885l0.7797241 2.3372803l-2.0413208 -1.444519l-2.0413208 1.444519l0.7797241 -2.3372803z" fill-rule="evenodd"/><path fill="#eeeeee" d="m802.9047 373.0554l2.5231934 3.0517578E-5l0.7797241 -2.3372803l0.7797241 2.3372803l2.5231934 -3.0517578E-5l-2.0413208 1.444519l0.7797241 2.3372498l-2.0413208 -1.444519l-2.0413208 1.444519l0.7797241 -2.3372498z" fill-rule="evenodd"/><path fill="#eeeeee" d="m802.9047 383.75626l2.5231934 0l0.7797241 -2.3372803l0.7797241 2.3372803l2.5231934 0l-2.0413208 1.4444885l0.7797241 2.3372803l-2.0413208 -1.4445496l-2.0413208 1.4445496l0.7797241 -2.3372803z" fill-rule="evenodd"/><path fill="#eeeeee" d="m802.9047 394.4571l2.5231934 3.0517578E-5l0.7797241 -2.3372803l0.7797241 2.3372803l2.5231934 -3.0517578E-5l-2.0413208 1.4444885l0.7797241 2.3372803l-2.0413208 -1.444519l-2.0413208 1.444519l0.7797241 -2.3372803z" fill-rule="evenodd"/><path fill="#eeeeee" d="m802.9047 405.15793l2.5231934 3.0517578E-5l0.7797241 -2.3372803l0.7797241 2.3372803l2.5231934 -3.0517578E-5l-2.0413208 1.444519l0.7797241 2.3372498l-2.0413208 -1.444519l-2.0413208 1.444519l0.7797241 -2.3372498z" fill-rule="evenodd"/><path fill="#eeeeee" d="m797.1314 367.56796l2.5232544 3.0517578E-5l0.7797241 -2.3372803l0.7796631 2.3372803l2.5232544 -3.0517578E-5l-2.0413208 1.444519l0.7797241 2.3372803l-2.0413208 -1.4445496l-2.0413208 1.4445496l0.7797241 -2.3372803z" fill-rule="evenodd"/><path fill="#eeeeee" d="m797.1314 378.26883l2.5232544 0l0.7797241 -2.3372803l0.7796631 2.3372803l2.5232544 0l-2.0413208 1.4444885l0.7797241 2.3372803l-2.0413208 -1.444519l-2.0413208 1.444519l0.7797241 -2.3372803z" fill-rule="evenodd"/><path fill="#eeeeee" d="m797.1314 388.96967l2.5232544 3.0517578E-5l0.7797241 -2.3372803l0.7796631 2.3372803l2.5232544 -3.0517578E-5l-2.0413208 1.444519l0.7797241 2.3372498l-2.0413208 -1.444519l-2.0413208 1.444519l0.7797241 -2.3372498z" fill-rule="evenodd"/><path fill="#eeeeee" d="m797.1314 399.67053l2.5232544 0l0.7797241 -2.3372803l0.7796631 2.3372803l2.5232544 0l-2.0413208 1.4444885l0.7797241 2.3372803l-2.0413208 -1.4445496l-2.0413208 1.4445496l0.7797241 -2.3372803z" fill-rule="evenodd"/><path fill="#eeeeee" d="m797.1314 410.37137l2.5232544 0l0.7797241 -2.3372803l0.7796631 2.3372803l2.5232544 0l-2.0413208 1.4444885l0.7797241 2.3372803l-2.0413208 -1.444519l-2.0413208 1.444519l0.7797241 -2.3372803z" fill-rule="evenodd"/><path fill="#eeeeee" d="m790.5256 373.0554l2.5231934 3.0517578E-5l0.7797241 -2.3372803l0.7797241 2.3372803l2.5231934 -3.0517578E-5l-2.0413208 1.444519l0.7797241 2.3372498l-2.0413208 -1.444519l-2.0413208 1.444519l0.7797241 -2.3372498z" fill-rule="evenodd"/><path fill="#eeeeee" d="m790.5256 383.75626l2.5231934 0l0.7797241 -2.3372803l0.7797241 2.3372803l2.5231934 0l-2.0413208 1.4444885l0.7797241 2.3372803l-2.0413208 -1.4445496l-2.0413208 1.4445496l0.7797241 -2.3372803z" fill-rule="evenodd"/><path fill="#eeeeee" d="m790.5256 394.4571l2.5231934 3.0517578E-5l0.7797241 -2.3372803l0.7797241 2.3372803l2.5231934 -3.0517578E-5l-2.0413208 1.4444885l0.7797241 2.3372803l-2.0413208 -1.444519l-2.0413208 1.444519l0.7797241 -2.3372803z" fill-rule="evenodd"/><path fill="#eeeeee" d="m790.5256 405.15793l2.5231934 3.0517578E-5l0.7797241 -2.3372803l0.7797241 2.3372803l2.5231934 -3.0517578E-5l-2.0413208 1.444519l0.7797241 2.3372498l-2.0413208 -1.444519l-2.0413208 1.444519l0.7797241 -2.3372498z" fill-rule="evenodd"/><path fill="#eeeeee" d="m784.51447 367.56796l2.5232544 3.0517578E-5l0.7797241 -2.3372803l0.7796631 2.3372803l2.5232544 -3.0517578E-5l-2.0413818 1.444519l0.77978516 2.3372803l-2.0413208 -1.4445496l-2.0413818 1.4445496l0.77978516 -2.3372803z" fill-rule="evenodd"/><path fill="#eeeeee" d="m784.51447 378.26883l2.5232544 0l0.7797241 -2.3372803l0.7796631 2.3372803l2.5232544 0l-2.0413818 1.4444885l0.77978516 2.3372803l-2.0413208 -1.444519l-2.0413818 1.444519l0.77978516 -2.3372803z" fill-rule="evenodd"/><path fill="#eeeeee" d="m784.51447 388.96967l2.5232544 3.0517578E-5l0.7797241 -2.3372803l0.7796631 2.3372803l2.5232544 -3.0517578E-5l-2.0413818 1.444519l0.77978516 2.3372498l-2.0413208 -1.444519l-2.0413818 1.444519l0.77978516 -2.3372498z" fill-rule="evenodd"/><path fill="#eeeeee" d="m784.51447 399.67053l2.5232544 0l0.7797241 -2.3372803l0.7796631 2.3372803l2.5232544 0l-2.0413818 1.4444885l0.77978516 2.3372803l-2.0413208 -1.4445496l-2.0413818 1.4445496l0.77978516 -2.3372803z" fill-rule="evenodd"/><path fill="#eeeeee" d="m784.51447 410.37137l2.5232544 0l0.7797241 -2.3372803l0.7796631 2.3372803l2.5232544 0l-2.0413818 1.4444885l0.77978516 2.3372803l-2.0413208 -1.444519l-2.0413818 1.444519l0.77978516 -2.3372803z" fill-rule="evenodd"/><path fill="#eeeeee" d="m777.9086 373.0554l2.5231934 3.0517578E-5l0.7797241 -2.3372803l0.7797241 2.3372803l2.5231934 -3.0517578E-5l-2.0413208 1.444519l0.7797241 2.3372498l-2.0413208 -1.444519l-2.0413208 1.444519l0.7797241 -2.3372498z" fill-rule="evenodd"/><path fill="#eeeeee" d="m777.9086 383.75626l2.5231934 0l0.7797241 -2.3372803l0.7797241 2.3372803l2.5231934 0l-2.0413208 1.4444885l0.7797241 2.3372803l-2.0413208 -1.4445496l-2.0413208 1.4445496l0.7797241 -2.3372803z" fill-rule="evenodd"/><path fill="#eeeeee" d="m777.9086 394.4571l2.5231934 3.0517578E-5l0.7797241 -2.3372803l0.7797241 2.3372803l2.5231934 -3.0517578E-5l-2.0413208 1.4444885l0.7797241 2.3372803l-2.0413208 -1.444519l-2.0413208 1.444519l0.7797241 -2.3372803z" fill-rule="evenodd"/><path fill="#eeeeee" d="m777.9086 405.15793l2.5231934 3.0517578E-5l0.7797241 -2.3372803l0.7797241 2.3372803l2.5231934 -3.0517578E-5l-2.0413208 1.444519l0.7797241 2.3372498l-2.0413208 -1.444519l-2.0413208 1.444519l0.7797241 -2.3372498z" fill-rule="evenodd"/><path fill="#eeeeee" d="m772.1622 367.56796l2.5232544 3.0517578E-5l0.7796631 -2.3372803l0.7797241 2.3372803l2.5231934 -3.0517578E-5l-2.0413208 1.444519l0.7797241 2.3372803l-2.0413208 -1.4445496l-2.0413208 1.4445496l0.7797241 -2.3372803z" fill-rule="evenodd"/><path fill="#eeeeee" d="m772.1622 378.26883l2.5232544 0l0.7796631 -2.3372803l0.7797241 2.3372803l2.5231934 0l-2.0413208 1.4444885l0.7797241 2.3372803l-2.0413208 -1.444519l-2.0413208 1.444519l0.7797241 -2.3372803z" fill-rule="evenodd"/><path fill="#eeeeee" d="m772.1622 388.96967l2.5232544 3.0517578E-5l0.7796631 -2.3372803l0.7797241 2.3372803l2.5231934 -3.0517578E-5l-2.0413208 1.444519l0.7797241 2.3372498l-2.0413208 -1.444519l-2.0413208 1.444519l0.7797241 -2.3372498z" fill-rule="evenodd"/><path fill="#eeeeee" d="m772.1622 399.67053l2.5232544 0l0.7796631 -2.3372803l0.7797241 2.3372803l2.5231934 0l-2.0413208 1.4444885l0.7797241 2.3372803l-2.0413208 -1.4445496l-2.0413208 1.4445496l0.7797241 -2.3372803z" fill-rule="evenodd"/><path fill="#eeeeee" d="m772.1622 410.37137l2.5232544 0l0.7796631 -2.3372803l0.7797241 2.3372803l2.5231934 0l-2.0413208 1.4444885l0.7797241 2.3372803l-2.0413208 -1.444519l-2.0413208 1.444519l0.7797241 -2.3372803z" fill-rule="evenodd"/><path fill="#eeeeee" d="m765.5563 373.0554l2.5232544 3.0517578E-5l0.7797241 -2.3372803l0.7796631 2.3372803l2.5232544 -3.0517578E-5l-2.0413818 1.444519l0.77978516 2.3372498l-2.0413208 -1.444519l-2.0413818 1.444519l0.77978516 -2.3372498z" fill-rule="evenodd"/><path fill="#eeeeee" d="m765.5563 383.75626l2.5232544 0l0.7797241 -2.3372803l0.7796631 2.3372803l2.5232544 0l-2.0413818 1.4444885l0.77978516 2.3372803l-2.0413208 -1.4445496l-2.0413818 1.4445496l0.77978516 -2.3372803z" fill-rule="evenodd"/><path fill="#eeeeee" d="m765.5563 394.4571l2.5232544 3.0517578E-5l0.7797241 -2.3372803l0.7796631 2.3372803l2.5232544 -3.0517578E-5l-2.0413818 1.4444885l0.77978516 2.3372803l-2.0413208 -1.444519l-2.0413818 1.444519l0.77978516 -2.3372803z" fill-rule="evenodd"/><path fill="#eeeeee" d="m765.5563 405.15793l2.5232544 3.0517578E-5l0.7797241 -2.3372803l0.7796631 2.3372803l2.5232544 -3.0517578E-5l-2.0413818 1.444519l0.77978516 2.3372498l-2.0413208 -1.444519l-2.0413818 1.444519l0.77978516 -2.3372498z" fill-rule="evenodd"/><path fill="#eeeeee" d="m759.5452 367.56796l2.5231934 3.0517578E-5l0.7797241 -2.3372803l0.7797241 2.3372803l2.5231934 -3.0517578E-5l-2.0413208 1.444519l0.7797241 2.3372803l-2.0413208 -1.4445496l-2.0413208 1.4445496l0.7797241 -2.3372803z" fill-rule="evenodd"/><path fill="#eeeeee" d="m759.5452 378.26883l2.5231934 0l0.7797241 -2.3372803l0.7797241 2.3372803l2.5231934 0l-2.0413208 1.4444885l0.7797241 2.3372803l-2.0413208 -1.444519l-2.0413208 1.444519l0.7797241 -2.3372803z" fill-rule="evenodd"/><path fill="#eeeeee" d="m759.5452 388.96967l2.5231934 3.0517578E-5l0.7797241 -2.3372803l0.7797241 2.3372803l2.5231934 -3.0517578E-5l-2.0413208 1.444519l0.7797241 2.3372498l-2.0413208 -1.444519l-2.0413208 1.444519l0.7797241 -2.3372498z" fill-rule="evenodd"/><path fill="#eeeeee" d="m759.5452 399.67053l2.5231934 0l0.7797241 -2.3372803l0.7797241 2.3372803l2.5231934 0l-2.0413208 1.4444885l0.7797241 2.3372803l-2.0413208 -1.4445496l-2.0413208 1.4445496l0.7797241 -2.3372803z" fill-rule="evenodd"/><path fill="#eeeeee" d="m759.5452 410.37137l2.5231934 0l0.7797241 -2.3372803l0.7797241 2.3372803l2.5231934 0l-2.0413208 1.4444885l0.7797241 2.3372803l-2.0413208 -1.444519l-2.0413208 1.444519l0.7797241 -2.3372803z" fill-rule="evenodd"/><path fill="#000000" fill-opacity="0.0" d="m757.0112 362.6087l187.36871 0l0 100.21161l-187.36871 0z" fill-rule="evenodd"/><path stroke="#000000" stroke-width="2.0" stroke-linejoin="round" stroke-linecap="butt" d="m757.0112 362.6087l187.36871 0l0 100.21161l-187.36871 0z" fill-rule="evenodd"/><path fill="#7f6000" d="m746.9644 362.47946l9.715515 0l0 275.98624l-9.715515 0z" fill-rule="evenodd"/><path stroke="#000000" stroke-width="2.0" stroke-linejoin="round" stroke-linecap="butt" d="m746.9644 362.47946l9.715515 0l0 275.98624l-9.715515 0z" fill-rule="evenodd"/></g></svg>