<svg version="1.1" viewBox="0.0 0.0 960.0 960.0" fill="none" stroke="none" stroke-linecap="square" stroke-miterlimit="10" xmlns:xlink="http://www.w3.org/1999/xlink" xmlns="http://www.w3.org/2000/svg"><clipPath id="g308c68b74df_0_21.0"><path d="m0 0l960.0 0l0 960.0l-960.0 0l0 -960.0z" clip-rule="nonzero"/></clipPath><g clip-path="url(#g308c68b74df_0_21.0)"><path fill="#000000" fill-opacity="0.0" d="m0 0l960.0 0l0 960.0l-960.0 0z" fill-rule="evenodd"/><path fill="#ff9900" d="m353.54492 740.4398l-34.873047 54.44586l14.384735 6.4206543l-43.92514 46.65509l14.384735 7.7907715l-54.304398 78.11365l92.09416 -59.863525l-17.56369 -8.310181l57.2211 -38.34491l-20.504242 -11.847351l60.415955 -40.225464z" fill-rule="evenodd"/><path stroke="#000000" stroke-width="8.0" stroke-linejoin="round" stroke-linecap="butt" d="m353.54492 740.4398l-34.873047 54.44586l14.384735 6.4206543l-43.92514 46.65509l14.384735 7.7907715l-54.304398 78.11365l92.09416 -59.863525l-17.56369 -8.310181l57.2211 -38.34491l-20.504242 -11.847351l60.415955 -40.225464z" fill-rule="evenodd"/><path fill="#ff9900" d="m607.8002 740.4398l32.840576 54.44586l-13.546387 6.4206543l41.365112 46.65509l-13.546387 7.7907715l51.139465 78.11365l-86.726746 -59.863525l16.54004 -8.310181l-53.88611 -38.34491l19.309204 -11.847351l-56.894775 -40.225464z" fill-rule="evenodd"/><path stroke="#000000" stroke-width="8.0" stroke-linejoin="round" stroke-linecap="butt" d="m607.8002 740.4398l32.840576 54.44586l-13.546387 6.4206543l41.365112 46.65509l-13.546387 7.7907715l51.139465 78.11365l-86.726746 -59.863525l16.54004 -8.310181l-53.88611 -38.34491l19.309204 -11.847351l-56.894775 -40.225464z" fill-rule="evenodd"/><path fill="#ff9900" d="m836.76056 616.9852l0 0c0 5.692627 -4.614807 10.307434 -10.307434 10.307434l-41.228455 0l0 0c-2.7337036 0 -5.3554077 -1.0859985 -7.288452 -3.018982c-1.9329834 -1.9330444 -3.018982 -4.5547485 -3.018982 -7.288452l0 -54.577576c0 -5.692627 4.614807 -10.307434 10.307434 -10.307434l41.228455 0c5.692627 0 10.307434 4.614807 10.307434 10.307434z" fill-rule="evenodd"/><path stroke="#000000" stroke-width="8.0" stroke-linejoin="round" stroke-linecap="butt" d="m836.76056 616.9852l0 0c0 5.692627 -4.614807 10.307434 -10.307434 10.307434l-41.228455 0l0 0c-2.7337036 0 -5.3554077 -1.0859985 -7.288452 -3.018982c-1.9329834 -1.9330444 -3.018982 -4.5547485 -3.018982 -7.288452l0 -54.577576c0 -5.692627 4.614807 -10.307434 10.307434 -10.307434l41.228455 0c5.692627 0 10.307434 4.614807 10.307434 10.307434z" fill-rule="evenodd"/><path fill="#ff9900" d="m836.76056 552.93665c0 6.9243774 -31.796204 12.537598 -71.01874 12.537598l0 0c-39.222595 0 -71.01874 -5.61322 -71.01874 -12.537598l0 0c0 -6.9243164 31.796143 -12.537537 71.01874 -12.537537l0 0c39.222534 0 71.01874 5.61322 71.01874 12.537537z" fill-rule="evenodd"/><path stroke="#000000" stroke-width="8.0" stroke-linejoin="round" stroke-linecap="butt" d="m836.76056 552.93665c0 6.9243774 -31.796204 12.537598 -71.01874 12.537598l0 0c-39.222595 0 -71.01874 -5.61322 -71.01874 -12.537598l0 0c0 -6.9243164 31.796143 -12.537537 71.01874 -12.537537l0 0c39.222534 0 71.01874 5.61322 71.01874 12.537537z" fill-rule="evenodd"/><path fill="#ff9900" d="m123.23867 488.8894l0 0c0 -5.692627 4.6147842 -10.307434 10.307411 -10.307434l41.22844 0l0 0c2.7337036 0 5.355423 1.085968 7.288452 3.018982c1.9330139 1.9330139 3.0189667 4.5547485 3.0189667 7.288452l0 54.577576c0 5.692627 -4.614792 10.307434 -10.307419 10.307434l-41.22844 0c-5.692627 0 -10.307411 -4.614807 -10.307411 -10.307434z" fill-rule="evenodd"/><path stroke="#000000" stroke-width="8.0" stroke-linejoin="round" stroke-linecap="butt" d="m123.23867 488.8894l0 0c0 -5.692627 4.6147842 -10.307434 10.307411 -10.307434l41.22844 0l0 0c2.7337036 0 5.355423 1.085968 7.288452 3.018982c1.9330139 1.9330139 3.0189667 4.5547485 3.0189667 7.288452l0 54.577576c0 5.692627 -4.614792 10.307434 -10.307419 10.307434l-41.22844 0c-5.692627 0 -10.307411 -4.614807 -10.307411 -10.307434z" fill-rule="evenodd"/><path fill="#ff9900" d="m123.23867 552.9379c0 -6.9243164 31.796165 -12.537537 71.01873 -12.537537l0 0c39.222565 0 71.01872 5.61322 71.01872 12.537537l0 0c0 6.9243164 -31.796158 12.537598 -71.01872 12.537598l0 0c-39.222565 0 -71.01873 -5.6132812 -71.01873 -12.537598z" fill-rule="evenodd"/><path stroke="#000000" stroke-width="8.0" stroke-linejoin="round" stroke-linecap="butt" d="m123.23867 552.9379c0 -6.9243164 31.796165 -12.537537 71.01873 -12.537537l0 0c39.222565 0 71.01872 5.61322 71.01872 12.537537l0 0c0 6.9243164 -31.796158 12.537598 -71.01872 12.537598l0 0c-39.222565 0 -71.01873 -5.6132812 -71.01873 -12.537598z" fill-rule="evenodd"/><path fill="#ff9900" d="m240.00969 537.17993l0 0c0 -147.36813 105.339645 -266.83365 235.28267 -266.83365l0 0c62.40088 0 122.24591 28.112762 166.37 78.15378c44.124023 50.041016 68.91272 117.911194 68.91272 188.67987l0 0c0 147.36823 -105.33966 266.83368 -235.28271 266.83368l0 0c-129.94302 0 -235.28267 -119.465454 -235.28267 -266.83368z" fill-rule="evenodd"/><path stroke="#000000" stroke-width="8.0" stroke-linejoin="round" stroke-linecap="butt" d="m240.00969 537.17993l0 0c0 -147.36813 105.339645 -266.83365 235.28267 -266.83365l0 0c62.40088 0 122.24591 28.112762 166.37 78.15378c44.124023 50.041016 68.91272 117.911194 68.91272 188.67987l0 0c0 147.36823 -105.33966 266.83368 -235.28271 266.83368l0 0c-129.94302 0 -235.28267 -119.465454 -235.28267 -266.83368z" fill-rule="evenodd"/><path fill="#000000" d="m298.98843 433.9723l0 0c0 -29.773651 34.73999 -53.909973 77.59393 -53.909973l0 0c42.853943 0 77.59393 24.136322 77.59393 53.909973l0 0c0 29.773682 -34.73999 53.910004 -77.59393 53.910004l0 0c-42.853943 0 -77.59393 -24.136322 -77.59393 -53.910004z" fill-rule="evenodd"/><path stroke="#000000" stroke-width="8.0" stroke-linejoin="round" stroke-linecap="butt" d="m298.98843 433.9723l0 0c0 -29.773651 34.73999 -53.909973 77.59393 -53.909973l0 0c42.853943 0 77.59393 24.136322 77.59393 53.909973l0 0c0 29.773682 -34.73999 53.910004 -77.59393 53.910004l0 0c-42.853943 0 -77.59393 -24.136322 -77.59393 -53.910004z" fill-rule="evenodd"/><path fill="#eeeeee" d="m332.6895 433.96844l0 0c0 -23.654297 20.0654 -42.829865 44.81732 -42.829865l0 0c11.8862915 0 23.285736 4.5124207 31.690613 12.544556c8.404877 8.032166 13.126709 18.926117 13.126709 30.285309l0 0c0 23.654266 -20.0654 42.829865 -44.81732 42.829865l0 0c-24.751923 0 -44.81732 -19.175598 -44.81732 -42.829865z" fill-rule="evenodd"/><path stroke="#000000" stroke-width="8.0" stroke-linejoin="round" stroke-linecap="butt" d="m332.6895 433.96844l0 0c0 -23.654297 20.0654 -42.829865 44.81732 -42.829865l0 0c11.8862915 0 23.285736 4.5124207 31.690613 12.544556c8.404877 8.032166 13.126709 18.926117 13.126709 30.285309l0 0c0 23.654266 -20.0654 42.829865 -44.81732 42.829865l0 0c-24.751923 0 -44.81732 -19.175598 -44.81732 -42.829865z" fill-rule="evenodd"/><path fill="#000000" d="m353.99988 433.967l0 0c0 -11.067932 10.514679 -20.040253 23.485199 -20.040253l0 0c12.97052 0 23.485199 8.972321 23.485199 20.040253l0 0c0 11.067932 -10.514679 20.040283 -23.485199 20.040283l0 0c-12.97052 0 -23.485199 -8.972351 -23.485199 -20.040283z" fill-rule="evenodd"/><path stroke="#000000" stroke-width="8.0" stroke-linejoin="round" stroke-linecap="butt" d="m353.99988 433.967l0 0c0 -11.067932 10.514679 -20.040253 23.485199 -20.040253l0 0c12.97052 0 23.485199 8.972321 23.485199 20.040253l0 0c0 11.067932 -10.514679 20.040283 -23.485199 20.040283l0 0c-12.97052 0 -23.485199 -8.972351 -23.485199 -20.040283z" fill-rule="evenodd"/><path fill="#000000" d="m496.3089 433.96344l0 0c0 -29.773651 34.73999 -53.909973 77.59393 -53.909973l0 0c42.853943 0 77.59393 24.136322 77.59393 53.909973l0 0c0 29.773651 -34.73999 53.909973 -77.59393 53.909973l0 0c-42.853943 0 -77.59393 -24.136322 -77.59393 -53.909973z" fill-rule="evenodd"/><path stroke="#000000" stroke-width="8.0" stroke-linejoin="round" stroke-linecap="butt" d="m496.3089 433.96344l0 0c0 -29.773651 34.73999 -53.909973 77.59393 -53.909973l0 0c42.853943 0 77.59393 24.136322 77.59393 53.909973l0 0c0 29.773651 -34.73999 53.909973 -77.59393 53.909973l0 0c-42.853943 0 -77.59393 -24.136322 -77.59393 -53.909973z" fill-rule="evenodd"/><path fill="#eeeeee" d="m533.8522 433.9529l0 0c0 -23.654266 20.065369 -42.829834 44.81732 -42.829834l0 0c11.8862915 0 23.285767 4.51239 31.690613 12.544556c8.404907 8.032166 13.126709 18.926117 13.126709 30.285278l0 0c0 23.654297 -20.06543 42.829865 -44.81732 42.829865l0 0c-24.751953 0 -44.81732 -19.175568 -44.81732 -42.829865z" fill-rule="evenodd"/><path stroke="#000000" stroke-width="8.0" stroke-linejoin="round" stroke-linecap="butt" d="m533.8522 433.9529l0 0c0 -23.654266 20.065369 -42.829834 44.81732 -42.829834l0 0c11.8862915 0 23.285767 4.51239 31.690613 12.544556c8.404907 8.032166 13.126709 18.926117 13.126709 30.285278l0 0c0 23.654297 -20.06543 42.829865 -44.81732 42.829865l0 0c-24.751953 0 -44.81732 -19.175568 -44.81732 -42.829865z" fill-rule="evenodd"/><path fill="#000000" d="m555.16254 433.9515l0 0c0 -11.067932 10.514648 -20.040283 23.485168 -20.040283l0 0c12.97052 0 23.48523 8.972351 23.48523 20.040283l0 0c0 11.067932 -10.514709 20.040253 -23.48523 20.040253l0 0c-12.97052 0 -23.485168 -8.972321 -23.485168 -20.040253z" fill-rule="evenodd"/><path stroke="#000000" stroke-width="8.0" stroke-linejoin="round" stroke-linecap="butt" d="m555.16254 433.9515l0 0c0 -11.067932 10.514648 -20.040283 23.485168 -20.040283l0 0c12.97052 0 23.48523 8.972351 23.48523 20.040283l0 0c0 11.067932 -10.514709 20.040253 -23.48523 20.040253l0 0c-12.97052 0 -23.485168 -8.972321 -23.485168 -20.040253z" fill-rule="evenodd"/><path fill="#ffffff" d="m600.7434 537.163l0 0c0 27.167175 -53.28717 49.212097 -119.141785 49.28894c-65.854645 0.07684326 -119.44324 -21.843323 -119.815796 -49.01013l119.47781 -0.2788086z" fill-rule="evenodd"/><path stroke="#000000" stroke-width="8.0" stroke-linejoin="round" stroke-linecap="butt" d="m600.7434 537.163l0 0c0 27.167175 -53.28717 49.212097 -119.141785 49.28894c-65.854645 0.07684326 -119.44324 -21.843323 -119.815796 -49.01013l119.47781 -0.2788086z" fill-rule="evenodd"/><path fill="#000000" fill-opacity="0.0" d="m507.20795 600.096l-80.207825 21.720947l73.52515 28.408142l-55.14331 28.405823l53.472626 15.040527l13.365387 3.3413086" fill-rule="evenodd"/><path stroke="#000000" stroke-width="8.0" stroke-linejoin="round" stroke-linecap="butt" d="m507.20795 600.096l-80.207825 21.720947l73.52515 28.408142l-55.14331 28.405823l53.472626 15.040527l13.365387 3.3413086" fill-rule="evenodd"/><path fill="#ff9900" d="m453.5752 506.10336l9.61438 -38.457428l24.2305 0l9.614349 38.457428z" fill-rule="evenodd"/><path stroke="#000000" stroke-width="8.0" stroke-linejoin="round" stroke-linecap="butt" d="m453.5752 506.10336l9.61438 -38.457428l24.2305 0l9.614349 38.457428z" fill-rule="evenodd"/><path fill="#000000" fill-opacity="0.0" d="m500.25745 540.0514l0.6956177 47.16913" fill-rule="evenodd"/><path stroke="#000000" stroke-width="8.0" stroke-linejoin="round" stroke-linecap="butt" d="m500.25745 540.0514l0.6956177 47.16913" fill-rule="evenodd"/><path fill="#000000" fill-opacity="0.0" d="m458.73355 536.14935l1.258728 50.7135" fill-rule="evenodd"/><path stroke="#000000" stroke-width="8.0" stroke-linejoin="round" stroke-linecap="butt" d="m458.73355 536.14935l1.258728 50.7135" fill-rule="evenodd"/><path fill="#000000" fill-opacity="0.0" d="m426.99902 537.68494l0.72872925 43.028564" fill-rule="evenodd"/><path stroke="#000000" stroke-width="8.0" stroke-linejoin="round" stroke-linecap="butt" d="m426.99902 537.68494l0.72872925 43.028564" fill-rule="evenodd"/><path fill="#000000" fill-opacity="0.0" d="m532.37756 539.9915l0.72869873 43.028625" fill-rule="evenodd"/><path stroke="#000000" stroke-width="8.0" stroke-linejoin="round" stroke-linecap="butt" d="m532.37756 539.9915l0.72869873 43.028625" fill-rule="evenodd"/><path fill="#000000" fill-opacity="0.0" d="m394.41364 540.0514l2.3518066 32.892517" fill-rule="evenodd"/><path stroke="#000000" stroke-width="8.0" stroke-linejoin="round" stroke-linecap="butt" d="m394.41364 540.0514l2.3518066 32.892517" fill-rule="evenodd"/><path fill="#000000" fill-opacity="0.0" d="m563.99243 539.0343l2.086853 33.88629" fill-rule="evenodd"/><path stroke="#000000" stroke-width="8.0" stroke-linejoin="round" stroke-linecap="butt" d="m563.99243 539.0343l2.086853 33.88629" fill-rule="evenodd"/><path fill="#000000" d="m422.33035 386.88477l111.52988 0l0 50.71347l-111.52988 0z" fill-rule="evenodd"/><path stroke="#000000" stroke-width="1.0" stroke-linejoin="round" stroke-linecap="butt" d="m422.33035 386.88477l111.52988 0l0 50.71347l-111.52988 0z" fill-rule="evenodd"/><path fill="#000000" d="m450.5307 408.61502l61.84326 0l0 50.71347l-61.84326 0z" fill-rule="evenodd"/><path stroke="#000000" stroke-width="1.0" stroke-linejoin="round" stroke-linecap="butt" d="m450.5307 408.61502l61.84326 0l0 50.71347l-61.84326 0z" fill-rule="evenodd"/><path fill="#000000" d="m379.95892 377.24716l196.26215 0l0 10.997314l-196.26215 0z" fill-rule="evenodd"/><path stroke="#000000" stroke-width="1.0" stroke-linejoin="round" stroke-linecap="butt" d="m379.95892 377.24716l196.26215 0l0 10.997314l-196.26215 0z" fill-rule="evenodd"/><path fill="#000000" d="m294.965 365.91116l27.198273 36.661774l-22.232788 43.597015l-40.80078 -12.643036z" fill-rule="evenodd"/><path stroke="#000000" stroke-width="8.0" stroke-linejoin="round" stroke-linecap="butt" d="m294.965 365.91116l27.198273 36.661774l-22.232788 43.597015l-40.80078 -12.643036z" fill-rule="evenodd"/><path fill="#000000" d="m387.65436 380.06345l196.26215 0l0 10.997284l-196.26215 0z" fill-rule="evenodd"/><path stroke="#000000" stroke-width="1.0" stroke-linejoin="round" stroke-linecap="butt" d="m387.65436 380.06345l196.26215 0l0 10.997284l-196.26215 0z" fill-rule="evenodd"/><path fill="#000000" d="m656.60315 365.91116l-27.198303 36.661774l22.232788 43.597015l40.80078 -12.643036z" fill-rule="evenodd"/><path stroke="#000000" stroke-width="8.0" stroke-linejoin="round" stroke-linecap="butt" d="m656.60315 365.91116l-27.198303 36.661774l22.232788 43.597015l40.80078 -12.643036z" fill-rule="evenodd"/><path fill="#783f04" d="m409.65775 181.98445l-28.770508 36.507584l8.700623 -42.984177z" fill-rule="evenodd"/><path stroke="#783f04" stroke-width="1.0" stroke-linejoin="round" stroke-linecap="butt" d="m409.65775 181.98445l-28.770508 36.507584l8.700623 -42.984177z" fill-rule="evenodd"/><path fill="#783f04" d="m538.9421 178.6591l31.888 35.50157l-11.818115 -41.978165z" fill-rule="evenodd"/><path stroke="#783f04" stroke-width="1.0" stroke-linejoin="round" stroke-linecap="butt" d="m538.9421 178.6591l31.888 35.50157l-11.818115 -41.978165z" fill-rule="evenodd"/><path fill="#303030" d="m364.96155 288.77274l55.4888 -251.99507l110.97757 0l55.48877 251.99507z" fill-rule="evenodd"/><path stroke="#000000" stroke-width="1.0" stroke-linejoin="round" stroke-linecap="butt" d="m364.96155 288.77274l55.4888 -251.99507l110.97757 0l55.48877 251.99507z" fill-rule="evenodd"/><path fill="#783f04" d="m572.7378 208.96652l0 0c-55.65338 36.43599 -135.29062 39.180756 -194.76685 6.7128296l30.041077 -34.186096l0 0c40.839478 17.98285 93.07175 16.420212 131.62213 -3.9377594z" fill-rule="evenodd"/><path stroke="#783f04" stroke-width="1.0" stroke-linejoin="round" stroke-linecap="butt" d="m572.7378 208.96652l0 0c-55.65338 36.43599 -135.29062 39.180756 -194.76685 6.7128296l30.041077 -34.186096l0 0c40.839478 17.98285 93.07175 16.420212 131.62213 -3.9377594z" fill-rule="evenodd"/><path fill="#000000" fill-opacity="0.0" d="m442.61288 190.39067l63.373383 0l0 43.03798l-63.373383 0z" fill-rule="evenodd"/><path stroke="#f1c232" stroke-width="16.0" stroke-linejoin="round" stroke-linecap="butt" d="m442.61288 190.39067l63.373383 0l0 43.03798l-63.373383 0z" fill-rule="evenodd"/><path fill="#303030" d="m301.547 295.43506l0 0c0 -18.480774 75.241425 -33.462402 168.05643 -33.462402l0 0c92.81503 0 168.05643 14.981628 168.05643 33.462402l0 0c0 18.480743 -75.241394 33.46237 -168.05643 33.46237l0 0c-92.815 0 -168.05643 -14.981628 -168.05643 -33.46237z" fill-rule="evenodd"/></g></svg>