<svg version="1.1" viewBox="0.0 0.0 960.0 960.0" fill="none" stroke="none" stroke-linecap="square" stroke-miterlimit="10" xmlns:xlink="http://www.w3.org/1999/xlink" xmlns="http://www.w3.org/2000/svg"><clipPath id="g319477ced3c_0_0.0"><path d="m0 0l960.0 0l0 960.0l-960.0 0l0 -960.0z" clip-rule="nonzero"/></clipPath><g clip-path="url(#g319477ced3c_0_0.0)"><path fill="#000000" fill-opacity="0.0" d="m0 0l960.0 0l0 960.0l-960.0 0z" fill-rule="evenodd"/><path fill="#00ff00" d="m270.61627 417.37866l0 0c1.1393738 -3.1282349 -0.47549438 -6.5806274 -3.6069336 -7.711151l-62.20337 -22.457153c-1.5037689 -0.5429077 -3.1632996 -0.4668274 -4.6135254 0.21151733c-1.4502106 0.6783447 -2.5723267 1.9033813 -3.1194763 3.4056091l-8.251892 22.655945c-1.1393738 3.1282349 0.47549438 6.5806274 3.6069336 7.7111816l62.203384 22.457123l0 0c3.131424 1.1305542 6.5936127 -0.4888916 7.7329865 -3.6171265z" fill-rule="evenodd"/><path stroke="#000000" stroke-width="8.0" stroke-linejoin="round" stroke-linecap="butt" d="m270.61627 417.37866l0 0c1.1393738 -3.1282349 -0.47549438 -6.5806274 -3.6069336 -7.711151l-62.20337 -22.457153c-1.5037689 -0.5429077 -3.1632996 -0.4668274 -4.6135254 0.21151733c-1.4502106 0.6783447 -2.5723267 1.9033813 -3.1194763 3.4056091l-8.251892 22.655945c-1.1393738 3.1282349 0.47549438 6.5806274 3.6069336 7.7111816l62.203384 22.457123l0 0c3.131424 1.1305542 6.5936127 -0.4888916 7.7329865 -3.6171265z" fill-rule="evenodd"/><path fill="#00ff00" d="m688.01105 424.19815l0 0c-1.1394043 -3.1282043 0.47546387 -6.5806274 3.6069336 -7.711151l62.20337 -22.457153c1.5037842 -0.5429077 3.16333 -0.4668274 4.6135254 0.21151733c1.4501953 0.6783447 2.5723267 1.9033813 3.1194458 3.4056091l8.251892 22.655945c1.1394043 3.1282349 -0.47546387 6.5806274 -3.6069336 7.7111816l-62.20337 22.457153l0 0c-3.1314087 1.1305237 -6.593628 -0.48892212 -7.732971 -3.617157z" fill-rule="evenodd"/><path stroke="#000000" stroke-width="8.0" stroke-linejoin="round" stroke-linecap="butt" d="m688.01105 424.19815l0 0c-1.1394043 -3.1282043 0.47546387 -6.5806274 3.6069336 -7.711151l62.20337 -22.457153c1.5037842 -0.5429077 3.16333 -0.4668274 4.6135254 0.21151733c1.4501953 0.6783447 2.5723267 1.9033813 3.1194458 3.4056091l8.251892 22.655945c1.1394043 3.1282349 -0.47546387 6.5806274 -3.6069336 7.7111816l-62.20337 22.457153l0 0c-3.1314087 1.1305237 -6.593628 -0.48892212 -7.732971 -3.617157z" fill-rule="evenodd"/><path fill="#00ff00" d="m250.35323 523.77484l0 0c0 -158.97974 105.34352 -287.85828 235.29134 -287.85828l0 0c62.403168 0 122.2504 30.327835 166.37613 84.31172c44.12567 53.983917 68.91522 127.20178 68.91522 203.54654l0 0c0 158.97974 -105.343506 287.85828 -235.29135 287.85828l0 0c-129.94781 0 -235.29134 -128.87854 -235.29134 -287.85828z" fill-rule="evenodd"/><path stroke="#000000" stroke-width="8.0" stroke-linejoin="round" stroke-linecap="butt" d="m250.35323 523.77484l0 0c0 -158.97974 105.34352 -287.85828 235.29134 -287.85828l0 0c62.403168 0 122.2504 30.327835 166.37613 84.31172c44.12567 53.983917 68.91522 127.20178 68.91522 203.54654l0 0c0 158.97974 -105.343506 287.85828 -235.29135 287.85828l0 0c-129.94781 0 -235.29134 -128.87854 -235.29134 -287.85828z" fill-rule="evenodd"/><path fill="#00ff00" d="m571.52374 201.58267l0 0c0 -79.22459 50.73633 -143.44882 113.322815 -143.44882l0 0c30.055115 0 58.87921 15.113312 80.13135 42.01519c21.252197 26.90187 33.19153 63.38864 33.19153 101.433624l0 0c0 79.22461 -50.73639 143.44882 -113.322876 143.44882l0 0c-62.586487 0 -113.322815 -64.22421 -113.322815 -143.44882z" fill-rule="evenodd"/><path stroke="#000000" stroke-width="8.0" stroke-linejoin="round" stroke-linecap="butt" d="m571.52374 201.58267l0 0c0 -79.22459 50.73633 -143.44882 113.322815 -143.44882l0 0c30.055115 0 58.87921 15.113312 80.13135 42.01519c21.252197 26.90187 33.19153 63.38864 33.19153 101.433624l0 0c0 79.22461 -50.73639 143.44882 -113.322876 143.44882l0 0c-62.586487 0 -113.322815 -64.22421 -113.322815 -143.44882z" fill-rule="evenodd"/><path fill="#eeeeee" d="m619.41284 201.58272l0 0c0 -62.943054 29.30243 -113.9685 65.44879 -113.9685l0 0c17.358093 0 34.00525 12.007362 46.279297 33.3806c12.274048 21.373238 19.169556 50.36158 19.169556 80.5879l0 0c0 62.94307 -29.30243 113.96852 -65.44885 113.96852l0 0c-36.146362 0 -65.44879 -51.02545 -65.44879 -113.96852z" fill-rule="evenodd"/><path stroke="#000000" stroke-width="8.0" stroke-linejoin="round" stroke-linecap="butt" d="m619.41284 201.58272l0 0c0 -62.943054 29.30243 -113.9685 65.44879 -113.9685l0 0c17.358093 0 34.00525 12.007362 46.279297 33.3806c12.274048 21.373238 19.169556 50.36158 19.169556 80.5879l0 0c0 62.94307 -29.30243 113.96852 -65.44885 113.96852l0 0c-36.146362 0 -65.44879 -51.02545 -65.44879 -113.96852z" fill-rule="evenodd"/><path fill="#00ff00" d="m166.52158 201.58267l0 0c0 -79.22459 50.73636 -143.44882 113.322845 -143.44882l0 0c30.055084 0 58.87918 15.113312 80.13135 42.01519c21.252136 26.90187 33.191467 63.38864 33.191467 101.433624l0 0c0 79.22461 -50.73636 143.44882 -113.322815 143.44882l0 0c-62.586487 0 -113.322845 -64.22421 -113.322845 -143.44882z" fill-rule="evenodd"/><path stroke="#000000" stroke-width="8.0" stroke-linejoin="round" stroke-linecap="butt" d="m166.52158 201.58267l0 0c0 -79.22459 50.73636 -143.44882 113.322845 -143.44882l0 0c30.055084 0 58.87918 15.113312 80.13135 42.01519c21.252136 26.90187 33.191467 63.38864 33.191467 101.433624l0 0c0 79.22461 -50.73636 143.44882 -113.322815 143.44882l0 0c-62.586487 0 -113.322845 -64.22421 -113.322845 -143.44882z" fill-rule="evenodd"/><path fill="#eeeeee" d="m214.41066 201.58272l0 0c0 -62.943054 29.302444 -113.9685 65.44884 -113.9685l0 0c17.358093 0 34.00525 12.007362 46.279297 33.3806c12.274017 21.373238 19.169495 50.36158 19.169495 80.5879l0 0c0 62.94307 -29.30243 113.96852 -65.44879 113.96852l0 0c-36.146393 0 -65.44884 -51.02545 -65.44884 -113.96852z" fill-rule="evenodd"/><path stroke="#000000" stroke-width="8.0" stroke-linejoin="round" stroke-linecap="butt" d="m214.41066 201.58272l0 0c0 -62.943054 29.302444 -113.9685 65.44884 -113.9685l0 0c17.358093 0 34.00525 12.007362 46.279297 33.3806c12.274017 21.373238 19.169495 50.36158 19.169495 80.5879l0 0c0 62.94307 -29.30243 113.96852 -65.44879 113.96852l0 0c-36.146393 0 -65.44884 -51.02545 -65.44884 -113.96852z" fill-rule="evenodd"/><path fill="#00ff00" d="m595.3012 684.98083l0 0c20.499756 -27.875122 87.276306 -13.809143 149.1496 31.417358l0 0c61.87329 45.22644 95.41315 104.487 74.91339 132.36218l0 0c-20.499756 27.875183 -87.276306 13.809143 -149.1496 -31.417297l0 0c-61.87329 -45.2265 -95.41315 -104.48706 -74.91339 -132.36224z" fill-rule="evenodd"/><path stroke="#000000" stroke-width="8.0" stroke-linejoin="round" stroke-linecap="butt" d="m595.3012 684.98083l0 0c20.499756 -27.875122 87.276306 -13.809143 149.1496 31.417358l0 0c61.87329 45.22644 95.41315 104.487 74.91339 132.36218l0 0c-20.499756 27.875183 -87.276306 13.809143 -149.1496 -31.417297l0 0c-61.87329 -45.2265 -95.41315 -104.48706 -74.91339 -132.36224z" fill-rule="evenodd"/><path fill="#00ff00" d="m348.7952 678.7664l0 0c24.517975 24.448364 0.3977661 88.0874 -53.873993 142.14172l0 0c-54.271774 54.05432 -118.14346 78.05469 -142.66144 53.606262l0 0c-24.51796 -24.448364 -0.3977356 -88.0874 53.874023 -142.14172l0 0c54.27176 -54.05432 118.14346 -78.05469 142.6614 -53.606262z" fill-rule="evenodd"/><path stroke="#000000" stroke-width="8.0" stroke-linejoin="round" stroke-linecap="butt" d="m348.7952 678.7664l0 0c24.517975 24.448364 0.3977661 88.0874 -53.873993 142.14172l0 0c-54.271774 54.05432 -118.14346 78.05469 -142.66144 53.606262l0 0c-24.51796 -24.448364 -0.3977356 -88.0874 53.874023 -142.14172l0 0c54.27176 -54.05432 118.14346 -78.05469 142.6614 -53.606262z" fill-rule="evenodd"/><path fill="#ffffff" d="m329.48264 643.777l0 0c0 -92.71423 68.64496 -167.87402 153.32285 -167.87402l0 0c40.663757 0 79.66199 17.686676 108.41559 49.16919c28.753601 31.482483 44.907227 74.181885 44.907227 118.704834l0 0c0 92.71423 -68.64496 167.87402 -153.32281 167.87402l0 0c-84.67789 0 -153.32285 -75.15979 -153.32285 -167.87402z" fill-rule="evenodd"/><path stroke="#000000" stroke-width="8.0" stroke-linejoin="round" stroke-linecap="butt" d="m329.48264 643.777l0 0c0 -92.71423 68.64496 -167.87402 153.32285 -167.87402l0 0c40.663757 0 79.66199 17.686676 108.41559 49.16919c28.753601 31.482483 44.907227 74.181885 44.907227 118.704834l0 0c0 92.71423 -68.64496 167.87402 -153.32281 167.87402l0 0c-84.67789 0 -153.32285 -75.15979 -153.32285 -167.87402z" fill-rule="evenodd"/><path fill="#000000" fill-opacity="0.0" d="m609.00256 357.8659l0 0c1.3600464 26.844635 -22.401245 51.954742 -61.8338 65.34384c-39.432526 13.389069 -88.14288 12.886322 -126.75867 -1.3083496c-38.615784 -14.194672 -60.875946 -39.779785 -57.92746 -66.579956l123.157776 4.7230225z" fill-rule="evenodd"/><path fill="#000000" fill-opacity="0.0" d="m609.00256 357.8659l0 0c1.3600464 26.844635 -22.401245 51.954742 -61.8338 65.34384c-39.432526 13.389069 -88.14288 12.886322 -126.75867 -1.3083496c-38.615784 -14.194672 -60.875946 -39.779785 -57.92746 -66.579956" fill-rule="evenodd"/><path stroke="#000000" stroke-width="16.0" stroke-linejoin="round" stroke-linecap="butt" d="m609.00256 357.8659l0 0c1.3600464 26.844635 -22.401245 51.954742 -61.8338 65.34384c-39.432526 13.389069 -88.14288 12.886322 -126.75867 -1.3083496c-38.615784 -14.194672 -60.875946 -39.779785 -57.92746 -66.579956" fill-rule="evenodd"/><path fill="#000000" d="m420.8861 303.24008l0 0c0 -6.801361 4.604065 -12.314972 10.283478 -12.314972l0 0c2.7273254 0 5.342987 1.2974854 7.271515 3.6069946c1.9284973 2.3094788 3.0119324 5.4418335 3.0119324 8.707977l0 0c0 6.801361 -4.604065 12.314972 -10.283447 12.314972l0 0c-5.679413 0 -10.283478 -5.513611 -10.283478 -12.314972z" fill-rule="evenodd"/><path stroke="#000000" stroke-width="1.0" stroke-linejoin="round" stroke-linecap="butt" d="m420.8861 303.24008l0 0c0 -6.801361 4.604065 -12.314972 10.283478 -12.314972l0 0c2.7273254 0 5.342987 1.2974854 7.271515 3.6069946c1.9284973 2.3094788 3.0119324 5.4418335 3.0119324 8.707977l0 0c0 6.801361 -4.604065 12.314972 -10.283447 12.314972l0 0c-5.679413 0 -10.283478 -5.513611 -10.283478 -12.314972z" fill-rule="evenodd"/><path fill="#000000" d="m520.1495 303.24008l0 0c0 -6.801361 4.604065 -12.314972 10.283447 -12.314972l0 0c2.727356 0 5.3430176 1.2974854 7.2715454 3.6069946c1.9285278 2.3094788 3.0119019 5.4418335 3.0119019 8.707977l0 0c0 6.801361 -4.604004 12.314972 -10.283447 12.314972l0 0c-5.6793823 0 -10.283447 -5.513611 -10.283447 -12.314972z" fill-rule="evenodd"/><path stroke="#000000" stroke-width="1.0" stroke-linejoin="round" stroke-linecap="butt" d="m520.1495 303.24008l0 0c0 -6.801361 4.604065 -12.314972 10.283447 -12.314972l0 0c2.727356 0 5.3430176 1.2974854 7.2715454 3.6069946c1.9285278 2.3094788 3.0119019 5.4418335 3.0119019 8.707977l0 0c0 6.801361 -4.604004 12.314972 -10.283447 12.314972l0 0c-5.6793823 0 -10.283447 -5.513611 -10.283447 -12.314972z" fill-rule="evenodd"/><path fill="#00ff00" d="m776.1227 352.11633l0 0c20.499817 -27.875153 48.237 -42.350098 61.95276 -32.33069l0 0c6.586548 4.811493 8.992737 14.74353 6.689148 27.611176c-2.30365 12.867645 -9.128235 27.616882 -18.972595 41.00299l0 0c-20.499756 27.875153 -48.23694 42.350098 -61.95276 32.33072l0 0c-13.71582 -10.019409 -8.216309 -40.739014 12.283447 -68.6142z" fill-rule="evenodd"/><path stroke="#000000" stroke-width="8.0" stroke-linejoin="round" stroke-linecap="butt" d="m776.1227 352.11633l0 0c20.499817 -27.875153 48.237 -42.350098 61.95276 -32.33069l0 0c6.586548 4.811493 8.992737 14.74353 6.689148 27.611176c-2.30365 12.867645 -9.128235 27.616882 -18.972595 41.00299l0 0c-20.499756 27.875153 -48.23694 42.350098 -61.95276 32.33072l0 0c-13.71582 -10.019409 -8.216309 -40.739014 12.283447 -68.6142z" fill-rule="evenodd"/><path fill="#00ff00" d="m182.50461 345.29684l0 0c-20.499756 -27.875153 -48.236954 -42.350098 -61.95275 -32.33069l0 0c-6.5865555 4.811493 -8.992699 14.74353 -6.689102 27.611176c2.3035965 12.867645 9.128235 27.616852 18.972572 41.00299l0 0c20.499756 27.875153 48.236954 42.350098 61.95276 32.33072l0 0c13.71579 -10.019409 8.216293 -40.739014 -12.283478 -68.6142z" fill-rule="evenodd"/><path stroke="#000000" stroke-width="8.0" stroke-linejoin="round" stroke-linecap="butt" d="m182.50461 345.29684l0 0c-20.499756 -27.875153 -48.236954 -42.350098 -61.95275 -32.33069l0 0c-6.5865555 4.811493 -8.992699 14.74353 -6.689102 27.611176c2.3035965 12.867645 9.128235 27.616852 18.972572 41.00299l0 0c20.499756 27.875153 48.236954 42.350098 61.95276 32.33072l0 0c13.71579 -10.019409 8.216293 -40.739014 -12.283478 -68.6142z" fill-rule="evenodd"/><path fill="#000000" d="m245.53152 201.59332l0 0c0 -29.4581 15.363342 -53.338593 34.314972 -53.338593l0 0c9.100891 0 17.82904 5.619583 24.264343 15.622513c6.4353027 10.00293 10.050598 23.569809 10.050598 37.71608l0 0c0 29.458084 -15.363312 53.338577 -34.31494 53.338577l0 0c-18.95163 0 -34.314972 -23.880493 -34.314972 -53.338577z" fill-rule="evenodd"/><path stroke="#000000" stroke-width="8.0" stroke-linejoin="round" stroke-linecap="butt" d="m245.53152 201.59332l0 0c0 -29.4581 15.363342 -53.338593 34.314972 -53.338593l0 0c9.100891 0 17.82904 5.619583 24.264343 15.622513c6.4353027 10.00293 10.050598 23.569809 10.050598 37.71608l0 0c0 29.458084 -15.363312 53.338577 -34.31494 53.338577l0 0c-18.95163 0 -34.314972 -23.880493 -34.314972 -53.338577z" fill-rule="evenodd"/><path fill="#000000" d="m652.2845 201.59332l0 0c0 -29.4581 15.363342 -53.338593 34.31494 -53.338593l0 0c9.100891 0 17.82904 5.619583 24.264343 15.622513c6.4353027 10.00293 10.050598 23.569809 10.050598 37.71608l0 0c0 29.458084 -15.363281 53.338577 -34.31494 53.338577l0 0c-18.9516 0 -34.31494 -23.880493 -34.31494 -53.338577z" fill-rule="evenodd"/><path stroke="#000000" stroke-width="8.0" stroke-linejoin="round" stroke-linecap="butt" d="m652.2845 201.59332l0 0c0 -29.4581 15.363342 -53.338593 34.31494 -53.338593l0 0c9.100891 0 17.82904 5.619583 24.264343 15.622513c6.4353027 10.00293 10.050598 23.569809 10.050598 37.71608l0 0c0 29.458084 -15.363281 53.338577 -34.31494 53.338577l0 0c-18.9516 0 -34.31494 -23.880493 -34.31494 -53.338577z" fill-rule="evenodd"/><path fill="#eeeeee" d="m522.469 115.085686l0 0c16.97583 -53.544495 40.0047 -90.895035 51.43634 -83.42476l0 0c5.489685 3.587349 7.5161133 17.24221 5.633484 37.960667c-1.8825684 20.71846 -7.5200195 46.80336 -15.672119 72.516335l0 0c-16.97583 53.544495 -40.0047 90.895035 -51.43634 83.42476l0 0c-5.489685 -3.5873413 -7.5161133 -17.242203 -5.6335144 -37.960663c1.8825989 -20.71846 7.52005 -46.80336 15.67215 -72.516335z" fill-rule="evenodd"/><path stroke="#595959" stroke-width="8.0" stroke-linejoin="round" stroke-linecap="butt" d="m522.469 115.085686l0 0c16.97583 -53.544495 40.0047 -90.895035 51.43634 -83.42476l0 0c5.489685 3.587349 7.5161133 17.24221 5.633484 37.960667c-1.8825684 20.71846 -7.5200195 46.80336 -15.672119 72.516335l0 0c-16.97583 53.544495 -40.0047 90.895035 -51.43634 83.42476l0 0c-5.489685 -3.5873413 -7.5161133 -17.242203 -5.6335144 -37.960663c1.8825989 -20.71846 7.52005 -46.80336 15.67215 -72.516335z" fill-rule="evenodd"/><path fill="#f4cccc" d="m527.88776 130.80362l0 0c15.4646 -48.7759 33.503113 -84.71934 40.29016 -80.2819l0 0c3.2592163 2.1309357 3.4348755 13.479347 0.48828125 31.548721c-2.9465942 18.069374 -8.774048 41.379555 -16.20044 64.802574l0 0c-15.4646 48.77591 -33.503113 84.719345 -40.29016 80.281906l0 0c-3.2592163 -2.1309357 -3.434845 -13.479355 -0.48825073 -31.548721c2.9465637 -18.069382 8.774078 -41.379562 16.200409 -64.80258z" fill-rule="evenodd"/><path stroke="#595959" stroke-width="8.0" stroke-linejoin="round" stroke-linecap="butt" d="m527.88776 130.80362l0 0c15.4646 -48.7759 33.503113 -84.71934 40.29016 -80.2819l0 0c3.2592163 2.1309357 3.4348755 13.479347 0.48828125 31.548721c-2.9465942 18.069374 -8.774048 41.379555 -16.20044 64.802574l0 0c-15.4646 48.77591 -33.503113 84.719345 -40.29016 80.281906l0 0c-3.2592163 -2.1309357 -3.434845 -13.479355 -0.48825073 -31.548721c2.9465637 -18.069382 8.774078 -41.379562 16.200409 -64.80258z" fill-rule="evenodd"/><path fill="#eeeeee" d="m400.4899 143.32022l0 0c-16.775085 -53.676414 -21.274048 -103.77548 -10.048706 -111.8994l0 0c5.3905945 -3.9012413 13.760529 2.5969028 23.268494 18.064924c9.507965 15.468014 19.375092 38.63885 27.430786 64.41518l0 0c16.775085 53.676414 21.274048 103.77549 10.048706 111.89941l0 0c-5.3905945 3.901245 -13.760529 -2.5969086 -23.268494 -18.064926c-9.507935 -15.468018 -19.375092 -38.63884 -27.430786 -64.41518z" fill-rule="evenodd"/><path stroke="#595959" stroke-width="8.0" stroke-linejoin="round" stroke-linecap="butt" d="m400.4899 143.32022l0 0c-16.775085 -53.676414 -21.274048 -103.77548 -10.048706 -111.8994l0 0c5.3905945 -3.9012413 13.760529 2.5969028 23.268494 18.064924c9.507965 15.468014 19.375092 38.63885 27.430786 64.41518l0 0c16.775085 53.676414 21.274048 103.77549 10.048706 111.89941l0 0c-5.3905945 3.901245 -13.760529 -2.5969086 -23.268494 -18.064926c-9.507935 -15.468018 -19.375092 -38.63884 -27.430786 -64.41518z" fill-rule="evenodd"/><path fill="#f4cccc" d="m412.11188 147.30672l0 0c-15.281006 -48.8957 -22.26471 -92.44443 -15.598541 -97.268814l0 0c3.2012024 -2.3167496 9.186371 4.788994 16.638885 19.754055c7.452484 14.965057 15.76178 36.563576 23.099976 60.04412l0 0c15.281036 48.89569 22.26474 92.44443 15.598572 97.268814l0 0c-3.2012024 2.3167572 -9.186401 -4.788986 -16.638885 -19.754044c-7.452484 -14.965073 -15.76181 -36.563583 -23.100006 -60.04413z" fill-rule="evenodd"/><path stroke="#595959" stroke-width="8.0" stroke-linejoin="round" stroke-linecap="butt" d="m412.11188 147.30672l0 0c-15.281006 -48.8957 -22.26471 -92.44443 -15.598541 -97.268814l0 0c3.2012024 -2.3167496 9.186371 4.788994 16.638885 19.754055c7.452484 14.965057 15.76178 36.563576 23.099976 60.04412l0 0c15.281036 48.89569 22.26474 92.44443 15.598572 97.268814l0 0c-3.2012024 2.3167572 -9.186401 -4.788986 -16.638885 -19.754044c-7.452484 -14.965073 -15.76181 -36.563583 -23.100006 -60.04413z" fill-rule="evenodd"/><path fill="#eeeeee" d="m400.15765 256.42737l0 0c0.6996765 -15.824966 35.027344 -28.78334 78.75714 -29.730118c43.72986 -0.94677734 82.0954 10.437759 88.02124 26.119278l-12.699646 0.6263733c-7.0005493 -9.083588 -39.93152 -15.373306 -76.38226 -14.588806c-36.450745 0.7845154 -64.708435 8.39119 -65.542694 17.643402z" fill-rule="evenodd"/><path stroke="#595959" stroke-width="4.0" stroke-linejoin="round" stroke-linecap="butt" d="m400.15765 256.42737l0 0c0.6996765 -15.824966 35.027344 -28.78334 78.75714 -29.730118c43.72986 -0.94677734 82.0954 10.437759 88.02124 26.119278l-12.699646 0.6263733c-7.0005493 -9.083588 -39.93152 -15.373306 -76.38226 -14.588806c-36.450745 0.7845154 -64.708435 8.39119 -65.542694 17.643402z" fill-rule="evenodd"/><path fill="#ffff00" d="m485.64566 528.66144l0 0c47.47043 0 85.95279 55.2558 85.95279 123.4173l0 0c0 68.1615 -38.48236 123.4173 -85.95279 123.4173l0 0c-47.470398 0 -85.95276 -55.2558 -85.95276 -123.4173l0 0c0 -68.1615 38.48236 -123.4173 85.95276 -123.4173z" fill-rule="evenodd"/><path stroke="#000000" stroke-width="8.0" stroke-linejoin="round" stroke-linecap="butt" d="m485.64566 528.66144l0 0c47.47043 0 85.95279 55.2558 85.95279 123.4173l0 0c0 68.1615 -38.48236 123.4173 -85.95279 123.4173l0 0c-47.470398 0 -85.95276 -55.2558 -85.95276 -123.4173l0 0c0 -68.1615 38.48236 -123.4173 85.95276 -123.4173z" fill-rule="evenodd"/><path fill="#00ff00" d="m567.6798 639.3543l0 27.968506l-166.80316 0l0 -27.968506z" fill-rule="evenodd"/><path fill="#ff0000" d="m455.88452 674.98425l5.3506165 23.905884l24.917084 5.133484l-24.917084 5.133484l-5.3506165 23.905884l-5.350647 -23.905884l-24.917084 -5.133484l24.917084 -5.133484z" fill-rule="evenodd"/><path fill="#00ffff" d="m485.6463 574.7474c14.297913 -42.33075 70.05975 0 0 54.42517c-70.05969 -54.42517 -14.297882 -96.75592 0 -54.42517z" fill-rule="evenodd"/><path fill="#ff0000" d="m494.9344 696.46454l5.3506165 23.905945l24.917084 5.133484l-24.917084 5.133484l-5.3506165 23.905884l-5.3506165 -23.905884l-24.917114 -5.133484l24.917114 -5.133484z" fill-rule="evenodd"/><path fill="#00ff00" d="m407.8311 667.3228l11.083191 -30.48816l11.083191 30.48816z" fill-rule="evenodd"/><path fill="#ff00ff" d="m441.15164 636.83466l-11.083191 30.48816l-11.083191 -30.48816z" fill-rule="evenodd"/><path fill="#00ff00" d="m429.99747 667.3228l11.083191 -30.48816l11.083191 30.48816z" fill-rule="evenodd"/><path fill="#ff00ff" d="m463.31802 636.83466l-11.083191 30.48816l-11.083191 -30.48816z" fill-rule="evenodd"/><path fill="#00ff00" d="m452.16385 667.3228l11.083191 -30.48816l11.08316 30.48816z" fill-rule="evenodd"/><path fill="#ff00ff" d="m485.48438 636.83466l-11.083191 30.48816l-11.08316 -30.48816z" fill-rule="evenodd"/><path fill="#00ff00" d="m474.3302 667.3228l11.083191 -30.48816l11.083191 30.48816z" fill-rule="evenodd"/><path fill="#ff00ff" d="m507.65076 636.83466l-11.083191 30.48816l-11.083191 -30.48816z" fill-rule="evenodd"/><path fill="#00ff00" d="m496.63773 667.3228l11.083191 -30.48816l11.08316 30.48816z" fill-rule="evenodd"/><path fill="#ff00ff" d="m529.95825 636.83466l-11.083191 30.48816l-11.08316 -30.48816z" fill-rule="evenodd"/><path fill="#00ff00" d="m518.8041 667.3228l11.083191 -30.48816l11.083191 30.48816z" fill-rule="evenodd"/><path fill="#ff00ff" d="m552.12463 636.83466l-11.083191 30.48816l-11.083191 -30.48816z" fill-rule="evenodd"/><path fill="#00ff00" d="m540.97046 667.3228l11.083191 -30.48816l11.083191 30.48816z" fill-rule="evenodd"/><path fill="#ff00ff" d="m574.291 636.83466l-11.083191 30.48816l-11.083191 -30.48816z" fill-rule="evenodd"/><path fill="#ff00ff" d="m419.157 636.83466l-11.077881 30.48816l-11.077881 -30.48816z" fill-rule="evenodd"/><path fill="#000000" fill-opacity="0.0" d="m485.64584 526.4898l0 0c47.47043 0 85.95279 55.25586 85.95279 123.41736l0 0c0 68.1615 -38.48236 123.4173 -85.95279 123.4173l0 0c-47.470398 0 -85.95276 -55.2558 -85.95276 -123.4173l0 0c0 -68.1615 38.48236 -123.41736 85.95276 -123.41736z" fill-rule="evenodd"/><path stroke="#000000" stroke-width="8.0" stroke-linejoin="round" stroke-linecap="butt" d="m485.64584 526.4898l0 0c47.47043 0 85.95279 55.25586 85.95279 123.41736l0 0c0 68.1615 -38.48236 123.4173 -85.95279 123.4173l0 0c-47.470398 0 -85.95276 -55.2558 -85.95276 -123.4173l0 0c0 -68.1615 38.48236 -123.41736 85.95276 -123.41736z" fill-rule="evenodd"/></g></svg>