<svg version="1.1" viewBox="0.0 0.0 960.0 960.0" fill="none" stroke="none" stroke-linecap="square" stroke-miterlimit="10" xmlns:xlink="http://www.w3.org/1999/xlink" xmlns="http://www.w3.org/2000/svg"><clipPath id="g30ef9dd4849_0_0.0"><path d="m0 0l960.0 0l0 960.0l-960.0 0l0 -960.0z" clip-rule="nonzero"/></clipPath><g clip-path="url(#g30ef9dd4849_0_0.0)"><path fill="#000000" fill-opacity="0.0" d="m0 0l960.0 0l0 960.0l-960.0 0z" fill-rule="evenodd"/><path fill="#00ff00" d="m271.3026 416.07947l0 0c1.1394043 -3.1282349 -0.47549438 -6.580658 -3.606903 -7.7111816l-62.2034 -22.457153c-1.5037689 -0.5429077 -3.1632996 -0.46679688 -4.61351 0.21154785c-1.4502258 0.6783447 -2.5723267 1.9033508 -3.1194763 3.4055786l-8.251892 22.655945c-1.1393738 3.1282349 0.47549438 6.580658 3.6069336 7.7111816l62.203384 22.457153l0 0c3.1314392 1.1305237 6.5935974 -0.48892212 7.7330017 -3.617157z" fill-rule="evenodd"/><path stroke="#000000" stroke-width="8.0" stroke-linejoin="round" stroke-linecap="butt" d="m271.3026 416.07947l0 0c1.1394043 -3.1282349 -0.47549438 -6.580658 -3.606903 -7.7111816l-62.2034 -22.457153c-1.5037689 -0.5429077 -3.1632996 -0.46679688 -4.61351 0.21154785c-1.4502258 0.6783447 -2.5723267 1.9033508 -3.1194763 3.4055786l-8.251892 22.655945c-1.1393738 3.1282349 0.47549438 6.580658 3.6069336 7.7111816l62.203384 22.457153l0 0c3.1314392 1.1305237 6.5935974 -0.48892212 7.7330017 -3.617157z" fill-rule="evenodd"/><path fill="#00ff00" d="m688.6974 422.89896l0 0c-1.1394043 -3.1282349 0.4755249 -6.580658 3.6069336 -7.7111816l62.20337 -22.457153c1.5037842 -0.5429077 3.16333 -0.46679688 4.6135254 0.21154785c1.4502563 0.6783447 2.5723267 1.9033813 3.1195068 3.4056091l8.251892 22.655914c1.1393433 3.1282349 -0.4755249 6.580658 -3.6069336 7.7111816l-62.20343 22.457153l0 0c-3.1314087 1.1305237 -6.593567 -0.48892212 -7.732971 -3.6171265z" fill-rule="evenodd"/><path stroke="#000000" stroke-width="8.0" stroke-linejoin="round" stroke-linecap="butt" d="m688.6974 422.89896l0 0c-1.1394043 -3.1282349 0.4755249 -6.580658 3.6069336 -7.7111816l62.20337 -22.457153c1.5037842 -0.5429077 3.16333 -0.46679688 4.6135254 0.21154785c1.4502563 0.6783447 2.5723267 1.9033813 3.1195068 3.4056091l8.251892 22.655914c1.1393433 3.1282349 -0.4755249 6.580658 -3.6069336 7.7111816l-62.20343 22.457153l0 0c-3.1314087 1.1305237 -6.593567 -0.48892212 -7.732971 -3.6171265z" fill-rule="evenodd"/><path fill="#00ff00" d="m251.03958 522.47565l0 0c0 -158.97974 105.343506 -287.85828 235.29132 -287.85828l0 0c62.403168 0 122.25046 30.32782 166.37613 84.31174c44.12567 53.983887 68.91522 127.20178 68.91522 203.54654l0 0c0 158.97974 -105.343506 287.85828 -235.29135 287.85828l0 0c-129.94781 0 -235.29132 -128.87854 -235.29132 -287.85828z" fill-rule="evenodd"/><path stroke="#000000" stroke-width="8.0" stroke-linejoin="round" stroke-linecap="butt" d="m251.03958 522.47565l0 0c0 -158.97974 105.343506 -287.85828 235.29132 -287.85828l0 0c62.403168 0 122.25046 30.32782 166.37613 84.31174c44.12567 53.983887 68.91522 127.20178 68.91522 203.54654l0 0c0 158.97974 -105.343506 287.85828 -235.29135 287.85828l0 0c-129.94781 0 -235.29132 -128.87854 -235.29132 -287.85828z" fill-rule="evenodd"/><path fill="#00ff00" d="m572.2101 200.28346l0 0c0 -79.224594 50.73639 -143.44882 113.322815 -143.44882l0 0c30.055115 0 58.87921 15.113316 80.13135 42.015186c21.252197 26.90187 33.19153 63.38865 33.19153 101.43363l0 0c0 79.224594 -50.73639 143.4488 -113.322876 143.4488l0 0c-62.586426 0 -113.322815 -64.22421 -113.322815 -143.4488z" fill-rule="evenodd"/><path stroke="#000000" stroke-width="8.0" stroke-linejoin="round" stroke-linecap="butt" d="m572.2101 200.28346l0 0c0 -79.224594 50.73639 -143.44882 113.322815 -143.44882l0 0c30.055115 0 58.87921 15.113316 80.13135 42.015186c21.252197 26.90187 33.19153 63.38865 33.19153 101.43363l0 0c0 79.224594 -50.73639 143.4488 -113.322876 143.4488l0 0c-62.586426 0 -113.322815 -64.22421 -113.322815 -143.4488z" fill-rule="evenodd"/><path fill="#eeeeee" d="m620.0992 200.28351l0 0c0 -62.94307 29.30243 -113.9685 65.44879 -113.9685l0 0c17.358154 0 34.00531 12.007355 46.279297 33.3806c12.274048 21.373238 19.169556 50.36158 19.169556 80.5879l0 0c0 62.943054 -29.30243 113.968506 -65.44885 113.968506l0 0c-36.146362 0 -65.44879 -51.02545 -65.44879 -113.968506z" fill-rule="evenodd"/><path stroke="#000000" stroke-width="8.0" stroke-linejoin="round" stroke-linecap="butt" d="m620.0992 200.28351l0 0c0 -62.94307 29.30243 -113.9685 65.44879 -113.9685l0 0c17.358154 0 34.00531 12.007355 46.279297 33.3806c12.274048 21.373238 19.169556 50.36158 19.169556 80.5879l0 0c0 62.943054 -29.30243 113.968506 -65.44885 113.968506l0 0c-36.146362 0 -65.44879 -51.02545 -65.44879 -113.968506z" fill-rule="evenodd"/><path fill="#00ff00" d="m167.20793 200.28346l0 0c0 -79.224594 50.73636 -143.44882 113.32283 -143.44882l0 0c30.055084 0 58.87918 15.113316 80.13135 42.015186c21.252167 26.90187 33.191498 63.38865 33.191498 101.43363l0 0c0 79.224594 -50.73636 143.4488 -113.322845 143.4488l0 0c-62.58647 0 -113.32283 -64.22421 -113.32283 -143.4488z" fill-rule="evenodd"/><path stroke="#000000" stroke-width="8.0" stroke-linejoin="round" stroke-linecap="butt" d="m167.20793 200.28346l0 0c0 -79.224594 50.73636 -143.44882 113.32283 -143.44882l0 0c30.055084 0 58.87918 15.113316 80.13135 42.015186c21.252167 26.90187 33.191498 63.38865 33.191498 101.43363l0 0c0 79.224594 -50.73636 143.4488 -113.322845 143.4488l0 0c-62.58647 0 -113.32283 -64.22421 -113.32283 -143.4488z" fill-rule="evenodd"/><path fill="#eeeeee" d="m215.09702 200.28351l0 0c0 -62.94307 29.30243 -113.9685 65.44882 -113.9685l0 0c17.358093 0 34.00528 12.007355 46.279297 33.3806c12.274048 21.373238 19.169525 50.36158 19.169525 80.5879l0 0c0 62.943054 -29.30243 113.968506 -65.44882 113.968506l0 0c-36.146393 0 -65.44882 -51.02545 -65.44882 -113.968506z" fill-rule="evenodd"/><path stroke="#000000" stroke-width="8.0" stroke-linejoin="round" stroke-linecap="butt" d="m215.09702 200.28351l0 0c0 -62.94307 29.30243 -113.9685 65.44882 -113.9685l0 0c17.358093 0 34.00528 12.007355 46.279297 33.3806c12.274048 21.373238 19.169525 50.36158 19.169525 80.5879l0 0c0 62.943054 -29.30243 113.968506 -65.44882 113.968506l0 0c-36.146393 0 -65.44882 -51.02545 -65.44882 -113.968506z" fill-rule="evenodd"/><path fill="#00ff00" d="m595.98755 683.68164l0 0c20.499756 -27.875183 87.276306 -13.809143 149.1496 31.417297l0 0c61.87329 45.2265 95.41321 104.48706 74.91339 132.36224l0 0c-20.499756 27.875122 -87.276306 13.809143 -149.1496 -31.417358l0 0c-61.87329 -45.22644 -95.41315 -104.48706 -74.91339 -132.36218z" fill-rule="evenodd"/><path stroke="#000000" stroke-width="8.0" stroke-linejoin="round" stroke-linecap="butt" d="m595.98755 683.68164l0 0c20.499756 -27.875183 87.276306 -13.809143 149.1496 31.417297l0 0c61.87329 45.2265 95.41321 104.48706 74.91339 132.36224l0 0c-20.499756 27.875122 -87.276306 13.809143 -149.1496 -31.417358l0 0c-61.87329 -45.22644 -95.41315 -104.48706 -74.91339 -132.36218z" fill-rule="evenodd"/><path fill="#00ff00" d="m349.48157 677.46716l0 0c24.517944 24.448425 0.3977356 88.0874 -53.874023 142.14178l0 0c-54.27176 54.05432 -118.14346 78.05469 -142.66142 53.606262l0 0c-24.51796 -24.448364 -0.39775085 -88.0874 53.874023 -142.14172l0 0c54.271744 -54.05432 118.14345 -78.05469 142.66142 -53.606323z" fill-rule="evenodd"/><path stroke="#000000" stroke-width="8.0" stroke-linejoin="round" stroke-linecap="butt" d="m349.48157 677.46716l0 0c24.517944 24.448425 0.3977356 88.0874 -53.874023 142.14178l0 0c-54.27176 54.05432 -118.14346 78.05469 -142.66142 53.606262l0 0c-24.51796 -24.448364 -0.39775085 -88.0874 53.874023 -142.14172l0 0c54.271744 -54.05432 118.14345 -78.05469 142.66142 -53.606323z" fill-rule="evenodd"/><path fill="#ffffff" d="m330.16898 642.4778l0 0c0 -92.714294 68.64499 -167.87405 153.32285 -167.87405l0 0c40.663757 0 79.66199 17.686676 108.41559 49.16916c28.753662 31.482483 44.907227 74.181885 44.907227 118.704895l0 0c0 92.71423 -68.64496 167.87396 -153.32281 167.87396l0 0c-84.67786 0 -153.32285 -75.15973 -153.32285 -167.87396z" fill-rule="evenodd"/><path stroke="#000000" stroke-width="8.0" stroke-linejoin="round" stroke-linecap="butt" d="m330.16898 642.4778l0 0c0 -92.714294 68.64499 -167.87405 153.32285 -167.87405l0 0c40.663757 0 79.66199 17.686676 108.41559 49.16916c28.753662 31.482483 44.907227 74.181885 44.907227 118.704895l0 0c0 92.71423 -68.64496 167.87396 -153.32281 167.87396l0 0c-84.67786 0 -153.32285 -75.15973 -153.32285 -167.87396z" fill-rule="evenodd"/><path fill="#000000" fill-opacity="0.0" d="m609.6889 356.56668l0 0c1.3600464 26.844666 -22.401184 51.954742 -61.83374 65.34384c-39.432587 13.389099 -88.142944 12.886322 -126.75873 -1.3083496c-38.615784 -14.194672 -60.875916 -39.779755 -57.92746 -66.579956l123.15781 4.7230225z" fill-rule="evenodd"/><path fill="#000000" fill-opacity="0.0" d="m609.6889 356.56668l0 0c1.3600464 26.844666 -22.401184 51.954742 -61.83374 65.34384c-39.432587 13.389099 -88.142944 12.886322 -126.75873 -1.3083496c-38.615784 -14.194672 -60.875916 -39.779755 -57.92746 -66.579956" fill-rule="evenodd"/><path stroke="#000000" stroke-width="16.0" stroke-linejoin="round" stroke-linecap="butt" d="m609.6889 356.56668l0 0c1.3600464 26.844666 -22.401184 51.954742 -61.83374 65.34384c-39.432587 13.389099 -88.142944 12.886322 -126.75873 -1.3083496c-38.615784 -14.194672 -60.875916 -39.779755 -57.92746 -66.579956" fill-rule="evenodd"/><path fill="#000000" d="m421.57248 301.94086l0 0c0 -6.801361 4.604065 -12.314941 10.283447 -12.314941l0 0c2.727356 0 5.342987 1.2974548 7.271515 3.606964c1.9285278 2.3095093 3.011963 5.441864 3.011963 8.707977l0 0c0 6.8013916 -4.604065 12.314972 -10.283478 12.314972l0 0c-5.6793823 0 -10.283447 -5.5135803 -10.283447 -12.314972z" fill-rule="evenodd"/><path stroke="#000000" stroke-width="1.0" stroke-linejoin="round" stroke-linecap="butt" d="m421.57248 301.94086l0 0c0 -6.801361 4.604065 -12.314941 10.283447 -12.314941l0 0c2.727356 0 5.342987 1.2974548 7.271515 3.606964c1.9285278 2.3095093 3.011963 5.441864 3.011963 8.707977l0 0c0 6.8013916 -4.604065 12.314972 -10.283478 12.314972l0 0c-5.6793823 0 -10.283447 -5.5135803 -10.283447 -12.314972z" fill-rule="evenodd"/><path fill="#000000" d="m520.8358 301.94086l0 0c0 -6.801361 4.604065 -12.314941 10.283447 -12.314941l0 0c2.727356 0 5.3430176 1.2974548 7.2715454 3.606964c1.9285278 2.3095093 3.011963 5.441864 3.011963 8.707977l0 0c0 6.8013916 -4.604065 12.314972 -10.283508 12.314972l0 0c-5.6793823 0 -10.283447 -5.5135803 -10.283447 -12.314972z" fill-rule="evenodd"/><path stroke="#000000" stroke-width="1.0" stroke-linejoin="round" stroke-linecap="butt" d="m520.8358 301.94086l0 0c0 -6.801361 4.604065 -12.314941 10.283447 -12.314941l0 0c2.727356 0 5.3430176 1.2974548 7.2715454 3.606964c1.9285278 2.3095093 3.011963 5.441864 3.011963 8.707977l0 0c0 6.8013916 -4.604065 12.314972 -10.283508 12.314972l0 0c-5.6793823 0 -10.283447 -5.5135803 -10.283447 -12.314972z" fill-rule="evenodd"/><path fill="#00ff00" d="m776.8091 350.81714l0 0c20.499756 -27.875153 48.23694 -42.35013 61.952698 -32.33072l0 0c6.586609 4.811493 8.992737 14.74353 6.689148 27.611176c-2.3035889 12.867676 -9.128235 27.616882 -18.972595 41.00299l0 0c-20.499756 27.875183 -48.23694 42.35013 -61.95276 32.33072l0 0c-13.715759 -10.019409 -8.216309 -40.739014 12.283508 -68.61417z" fill-rule="evenodd"/><path stroke="#000000" stroke-width="8.0" stroke-linejoin="round" stroke-linecap="butt" d="m776.8091 350.81714l0 0c20.499756 -27.875153 48.23694 -42.35013 61.952698 -32.33072l0 0c6.586609 4.811493 8.992737 14.74353 6.689148 27.611176c-2.3035889 12.867676 -9.128235 27.616882 -18.972595 41.00299l0 0c-20.499756 27.875183 -48.23694 42.35013 -61.95276 32.33072l0 0c-13.715759 -10.019409 -8.216309 -40.739014 12.283508 -68.61417z" fill-rule="evenodd"/><path fill="#00ff00" d="m183.19096 343.99765l0 0c-20.499756 -27.875153 -48.236954 -42.35013 -61.95275 -32.33072l0 0c-6.5865555 4.811493 -8.992699 14.74353 -6.689102 27.611176c2.3035965 12.867645 9.128227 27.616882 18.972572 41.00299l0 0c20.499756 27.875183 48.236954 42.35013 61.952744 32.33072l0 0c13.715805 -10.019409 8.216309 -40.739014 -12.283463 -68.61417z" fill-rule="evenodd"/><path stroke="#000000" stroke-width="8.0" stroke-linejoin="round" stroke-linecap="butt" d="m183.19096 343.99765l0 0c-20.499756 -27.875153 -48.236954 -42.35013 -61.95275 -32.33072l0 0c-6.5865555 4.811493 -8.992699 14.74353 -6.689102 27.611176c2.3035965 12.867645 9.128227 27.616882 18.972572 41.00299l0 0c20.499756 27.875183 48.236954 42.35013 61.952744 32.33072l0 0c13.715805 -10.019409 8.216309 -40.739014 -12.283463 -68.61417z" fill-rule="evenodd"/><path fill="#000000" d="m246.21788 200.2941l0 0c0 -29.458084 15.363327 -53.338577 34.314957 -53.338577l0 0c9.100891 0 17.82904 5.619583 24.264343 15.622513c6.4353027 10.002914 10.050629 23.569794 10.050629 37.716064l0 0c0 29.4581 -15.363342 53.338593 -34.314972 53.338593l0 0c-18.95163 0 -34.314957 -23.880493 -34.314957 -53.338593z" fill-rule="evenodd"/><path stroke="#000000" stroke-width="8.0" stroke-linejoin="round" stroke-linecap="butt" d="m246.21788 200.2941l0 0c0 -29.458084 15.363327 -53.338577 34.314957 -53.338577l0 0c9.100891 0 17.82904 5.619583 24.264343 15.622513c6.4353027 10.002914 10.050629 23.569794 10.050629 37.716064l0 0c0 29.4581 -15.363342 53.338593 -34.314972 53.338593l0 0c-18.95163 0 -34.314957 -23.880493 -34.314957 -53.338593z" fill-rule="evenodd"/><path fill="#000000" d="m652.9708 200.2941l0 0c0 -29.458084 15.363342 -53.338577 34.31494 -53.338577l0 0c9.100891 0 17.82904 5.619583 24.264343 15.622513c6.4353027 10.002914 10.050659 23.569794 10.050659 37.716064l0 0c0 29.4581 -15.363342 53.338593 -34.315002 53.338593l0 0c-18.9516 0 -34.31494 -23.880493 -34.31494 -53.338593z" fill-rule="evenodd"/><path stroke="#000000" stroke-width="8.0" stroke-linejoin="round" stroke-linecap="butt" d="m652.9708 200.2941l0 0c0 -29.458084 15.363342 -53.338577 34.31494 -53.338577l0 0c9.100891 0 17.82904 5.619583 24.264343 15.622513c6.4353027 10.002914 10.050659 23.569794 10.050659 37.716064l0 0c0 29.4581 -15.363342 53.338593 -34.315002 53.338593l0 0c-18.9516 0 -34.31494 -23.880493 -34.31494 -53.338593z" fill-rule="evenodd"/><path fill="#783f04" d="m439.02267 140.93979l-21.12622 30.384506l6.38562 -35.787933z" fill-rule="evenodd"/><path stroke="#783f04" stroke-width="1.0" stroke-linejoin="round" stroke-linecap="butt" d="m439.02267 140.93979l-21.12622 30.384506l6.38562 -35.787933z" fill-rule="evenodd"/><path fill="#783f04" d="m533.9669 138.1722l23.415894 29.545197l-8.675293 -34.948624z" fill-rule="evenodd"/><path stroke="#783f04" stroke-width="1.0" stroke-linejoin="round" stroke-linecap="butt" d="m533.9669 138.1722l23.415894 29.545197l-8.675293 -34.948624z" fill-rule="evenodd"/><path fill="#38761d" d="m406.20212 253.63658l6.482666 -180.24289l144.00009 0l6.482666 180.24289z" fill-rule="evenodd"/><path stroke="#000000" stroke-width="8.0" stroke-linejoin="round" stroke-linecap="butt" d="m406.20212 253.63658l6.482666 -180.24289l144.00009 0l6.482666 180.24289z" fill-rule="evenodd"/><path fill="#783f04" d="m564.28796 159.05502l0 0c-42.622253 35.848587 -108.17691 38.47757 -154.22336 6.1849365l24.506287 -27.887619l0 0c31.0112 19.461716 73.93045 17.84935 102.77585 -3.8610077z" fill-rule="evenodd"/><path stroke="#783f04" stroke-width="8.0" stroke-linejoin="round" stroke-linecap="butt" d="m564.28796 159.05502l0 0c-42.622253 35.848587 -108.17691 38.47757 -154.22336 6.1849365l24.506287 -27.887619l0 0c31.0112 19.461716 73.93045 17.84935 102.77585 -3.8610077z" fill-rule="evenodd"/><path fill="#000000" fill-opacity="0.0" d="m463.22592 147.94725l46.532593 0l0 35.811478l-46.532593 0z" fill-rule="evenodd"/><path stroke="#f1c232" stroke-width="8.0" stroke-linejoin="round" stroke-linecap="butt" d="m463.22592 147.94725l46.532593 0l0 35.811478l-46.532593 0z" fill-rule="evenodd"/><path fill="#38761d" d="m359.63647 250.89012l0 0c0 -3.2646332 13.002075 -6.395569 36.145935 -8.70401c23.14383 -2.3084564 54.53363 -3.6053314 87.26398 -3.6053314l0 0c68.15741 0 123.40985 5.511078 123.40985 12.309341l0 0c0 6.7982635 -55.25244 12.309341 -123.40985 12.309341l0 0c-68.15741 0 -123.40991 -5.511078 -123.40991 -12.309341z" fill-rule="evenodd"/><path stroke="#000000" stroke-width="8.0" stroke-linejoin="round" stroke-linecap="butt" d="m359.63647 250.89012l0 0c0 -3.2646332 13.002075 -6.395569 36.145935 -8.70401c23.14383 -2.3084564 54.53363 -3.6053314 87.26398 -3.6053314l0 0c68.15741 0 123.40985 5.511078 123.40985 12.309341l0 0c0 6.7982635 -55.25244 12.309341 -123.40985 12.309341l0 0c-68.15741 0 -123.40991 -5.511078 -123.40991 -12.309341z" fill-rule="evenodd"/><path fill="#38761d" d="m491.04068 553.9816c27.270355 -80.049866 133.62466 0 0 102.921265c-133.62466 -102.921265 -27.270325 -182.97113 0 -102.921265z" fill-rule="evenodd"/><path stroke="#000000" stroke-width="8.0" stroke-linejoin="round" stroke-linecap="butt" d="m491.04068 553.9816c27.270355 -80.049866 133.62466 0 0 102.921265c-133.62466 -102.921265 -27.270325 -182.97113 0 -102.921265z" fill-rule="evenodd"/><path fill="#38761d" d="m582.896 656.2528c80.049866 27.270386 0 133.6247 -102.921234 0c102.921234 -133.62463 182.9711 -27.270325 102.921234 0z" fill-rule="evenodd"/><path stroke="#000000" stroke-width="8.0" stroke-linejoin="round" stroke-linecap="butt" d="m582.896 656.2528c80.049866 27.270386 0 133.6247 -102.921234 0c102.921234 -133.62463 182.9711 -27.270325 102.921234 0z" fill-rule="evenodd"/><path fill="#38761d" d="m389.75693 656.2531c-80.049866 -27.270325 0 -133.6247 102.921265 0c-102.921265 133.6247 -182.97113 27.270325 -102.921265 0z" fill-rule="evenodd"/><path stroke="#000000" stroke-width="8.0" stroke-linejoin="round" stroke-linecap="butt" d="m389.75693 656.2531c-80.049866 -27.270325 0 -133.6247 102.921265 0c-102.921265 133.6247 -182.97113 27.270325 -102.921265 0z" fill-rule="evenodd"/><path fill="#38761d" d="m449.73096 763.5801l17.157501 -106.677185l34.31494 0l17.157501 106.677185z" fill-rule="evenodd"/><path stroke="#000000" stroke-width="8.0" stroke-linejoin="round" stroke-linecap="butt" d="m449.73096 763.5801l17.157501 -106.677185l34.31494 0l17.157501 106.677185z" fill-rule="evenodd"/><path fill="#38761d" d="m430.91208 606.5092l20.937012 83.747986l73.90549 0l20.937012 -83.747986z" fill-rule="evenodd"/></g></svg>