<svg version="1.1" viewBox="0.0 0.0 960.0 960.0" fill="none" stroke="none" stroke-linecap="square" stroke-miterlimit="10" xmlns:xlink="http://www.w3.org/1999/xlink" xmlns="http://www.w3.org/2000/svg"><clipPath id="g308c68b74df_0_0.0"><path d="m0 0l960.0 0l0 960.0l-960.0 0l0 -960.0z" clip-rule="nonzero"/></clipPath><g clip-path="url(#g308c68b74df_0_0.0)"><path fill="#000000" fill-opacity="0.0" d="m0 0l960.0 0l0 960.0l-960.0 0z" fill-rule="evenodd"/><path fill="#00ff00" d="m270.61627 417.37866l0 0c1.1393738 -3.1282349 -0.47549438 -6.5806274 -3.6069336 -7.711151l-62.20337 -22.457153c-1.5037689 -0.5429077 -3.1632996 -0.4668274 -4.6135254 0.21151733c-1.4502106 0.6783447 -2.5723267 1.9033813 -3.1194763 3.4056091l-8.251892 22.655945c-1.1393738 3.1282349 0.47549438 6.5806274 3.6069336 7.7111816l62.203384 22.457123l0 0c3.131424 1.1305542 6.5936127 -0.4888916 7.7329865 -3.6171265z" fill-rule="evenodd"/><path stroke="#000000" stroke-width="8.0" stroke-linejoin="round" stroke-linecap="butt" d="m270.61627 417.37866l0 0c1.1393738 -3.1282349 -0.47549438 -6.5806274 -3.6069336 -7.711151l-62.20337 -22.457153c-1.5037689 -0.5429077 -3.1632996 -0.4668274 -4.6135254 0.21151733c-1.4502106 0.6783447 -2.5723267 1.9033813 -3.1194763 3.4056091l-8.251892 22.655945c-1.1393738 3.1282349 0.47549438 6.5806274 3.6069336 7.7111816l62.203384 22.457123l0 0c3.131424 1.1305542 6.5936127 -0.4888916 7.7329865 -3.6171265z" fill-rule="evenodd"/><path fill="#00ff00" d="m688.01105 424.19815l0 0c-1.1394043 -3.1282043 0.47546387 -6.5806274 3.6069336 -7.711151l62.20337 -22.457153c1.5037842 -0.5429077 3.16333 -0.4668274 4.6135254 0.21151733c1.4501953 0.6783447 2.5723267 1.9033813 3.1194458 3.4056091l8.251892 22.655945c1.1394043 3.1282349 -0.47546387 6.5806274 -3.6069336 7.7111816l-62.20337 22.457153l0 0c-3.1314087 1.1305237 -6.593628 -0.48892212 -7.732971 -3.617157z" fill-rule="evenodd"/><path stroke="#000000" stroke-width="8.0" stroke-linejoin="round" stroke-linecap="butt" d="m688.01105 424.19815l0 0c-1.1394043 -3.1282043 0.47546387 -6.5806274 3.6069336 -7.711151l62.20337 -22.457153c1.5037842 -0.5429077 3.16333 -0.4668274 4.6135254 0.21151733c1.4501953 0.6783447 2.5723267 1.9033813 3.1194458 3.4056091l8.251892 22.655945c1.1394043 3.1282349 -0.47546387 6.5806274 -3.6069336 7.7111816l-62.20337 22.457153l0 0c-3.1314087 1.1305237 -6.593628 -0.48892212 -7.732971 -3.617157z" fill-rule="evenodd"/><path fill="#00ff00" d="m250.35323 523.77484l0 0c0 -158.97974 105.34352 -287.85828 235.29134 -287.85828l0 0c62.403168 0 122.2504 30.327835 166.37613 84.31172c44.12567 53.983917 68.91522 127.20178 68.91522 203.54654l0 0c0 158.97974 -105.343506 287.85828 -235.29135 287.85828l0 0c-129.94781 0 -235.29134 -128.87854 -235.29134 -287.85828z" fill-rule="evenodd"/><path stroke="#000000" stroke-width="8.0" stroke-linejoin="round" stroke-linecap="butt" d="m250.35323 523.77484l0 0c0 -158.97974 105.34352 -287.85828 235.29134 -287.85828l0 0c62.403168 0 122.2504 30.327835 166.37613 84.31172c44.12567 53.983917 68.91522 127.20178 68.91522 203.54654l0 0c0 158.97974 -105.343506 287.85828 -235.29135 287.85828l0 0c-129.94781 0 -235.29134 -128.87854 -235.29134 -287.85828z" fill-rule="evenodd"/><path fill="#00ff00" d="m571.52374 201.58267l0 0c0 -79.22459 50.73633 -143.44882 113.322815 -143.44882l0 0c30.055115 0 58.87921 15.113312 80.13135 42.01519c21.252197 26.90187 33.19153 63.38864 33.19153 101.433624l0 0c0 79.22461 -50.73639 143.44882 -113.322876 143.44882l0 0c-62.586487 0 -113.322815 -64.22421 -113.322815 -143.44882z" fill-rule="evenodd"/><path stroke="#000000" stroke-width="8.0" stroke-linejoin="round" stroke-linecap="butt" d="m571.52374 201.58267l0 0c0 -79.22459 50.73633 -143.44882 113.322815 -143.44882l0 0c30.055115 0 58.87921 15.113312 80.13135 42.01519c21.252197 26.90187 33.19153 63.38864 33.19153 101.433624l0 0c0 79.22461 -50.73639 143.44882 -113.322876 143.44882l0 0c-62.586487 0 -113.322815 -64.22421 -113.322815 -143.44882z" fill-rule="evenodd"/><path fill="#eeeeee" d="m619.41284 201.58272l0 0c0 -62.943054 29.30243 -113.9685 65.44879 -113.9685l0 0c17.358093 0 34.00525 12.007362 46.279297 33.3806c12.274048 21.373238 19.169556 50.36158 19.169556 80.5879l0 0c0 62.94307 -29.30243 113.96852 -65.44885 113.96852l0 0c-36.146362 0 -65.44879 -51.02545 -65.44879 -113.96852z" fill-rule="evenodd"/><path stroke="#000000" stroke-width="8.0" stroke-linejoin="round" stroke-linecap="butt" d="m619.41284 201.58272l0 0c0 -62.943054 29.30243 -113.9685 65.44879 -113.9685l0 0c17.358093 0 34.00525 12.007362 46.279297 33.3806c12.274048 21.373238 19.169556 50.36158 19.169556 80.5879l0 0c0 62.94307 -29.30243 113.96852 -65.44885 113.96852l0 0c-36.146362 0 -65.44879 -51.02545 -65.44879 -113.96852z" fill-rule="evenodd"/><path fill="#00ff00" d="m166.52158 201.58267l0 0c0 -79.22459 50.73636 -143.44882 113.322845 -143.44882l0 0c30.055084 0 58.87918 15.113312 80.13135 42.01519c21.252136 26.90187 33.191467 63.38864 33.191467 101.433624l0 0c0 79.22461 -50.73636 143.44882 -113.322815 143.44882l0 0c-62.586487 0 -113.322845 -64.22421 -113.322845 -143.44882z" fill-rule="evenodd"/><path stroke="#000000" stroke-width="8.0" stroke-linejoin="round" stroke-linecap="butt" d="m166.52158 201.58267l0 0c0 -79.22459 50.73636 -143.44882 113.322845 -143.44882l0 0c30.055084 0 58.87918 15.113312 80.13135 42.01519c21.252136 26.90187 33.191467 63.38864 33.191467 101.433624l0 0c0 79.22461 -50.73636 143.44882 -113.322815 143.44882l0 0c-62.586487 0 -113.322845 -64.22421 -113.322845 -143.44882z" fill-rule="evenodd"/><path fill="#eeeeee" d="m214.41066 201.58272l0 0c0 -62.943054 29.302444 -113.9685 65.44884 -113.9685l0 0c17.358093 0 34.00525 12.007362 46.279297 33.3806c12.274017 21.373238 19.169495 50.36158 19.169495 80.5879l0 0c0 62.94307 -29.30243 113.96852 -65.44879 113.96852l0 0c-36.146393 0 -65.44884 -51.02545 -65.44884 -113.96852z" fill-rule="evenodd"/><path stroke="#000000" stroke-width="8.0" stroke-linejoin="round" stroke-linecap="butt" d="m214.41066 201.58272l0 0c0 -62.943054 29.302444 -113.9685 65.44884 -113.9685l0 0c17.358093 0 34.00525 12.007362 46.279297 33.3806c12.274017 21.373238 19.169495 50.36158 19.169495 80.5879l0 0c0 62.94307 -29.30243 113.96852 -65.44879 113.96852l0 0c-36.146393 0 -65.44884 -51.02545 -65.44884 -113.96852z" fill-rule="evenodd"/><path fill="#00ff00" d="m595.3012 684.98083l0 0c20.499756 -27.875122 87.276306 -13.809143 149.1496 31.417358l0 0c61.87329 45.22644 95.41315 104.487 74.91339 132.36218l0 0c-20.499756 27.875183 -87.276306 13.809143 -149.1496 -31.417297l0 0c-61.87329 -45.2265 -95.41315 -104.48706 -74.91339 -132.36224z" fill-rule="evenodd"/><path stroke="#000000" stroke-width="8.0" stroke-linejoin="round" stroke-linecap="butt" d="m595.3012 684.98083l0 0c20.499756 -27.875122 87.276306 -13.809143 149.1496 31.417358l0 0c61.87329 45.22644 95.41315 104.487 74.91339 132.36218l0 0c-20.499756 27.875183 -87.276306 13.809143 -149.1496 -31.417297l0 0c-61.87329 -45.2265 -95.41315 -104.48706 -74.91339 -132.36224z" fill-rule="evenodd"/><path fill="#00ff00" d="m348.7952 678.7664l0 0c24.517975 24.448364 0.3977661 88.0874 -53.873993 142.14172l0 0c-54.271774 54.05432 -118.14346 78.05469 -142.66144 53.606262l0 0c-24.51796 -24.448364 -0.3977356 -88.0874 53.874023 -142.14172l0 0c54.27176 -54.05432 118.14346 -78.05469 142.6614 -53.606262z" fill-rule="evenodd"/><path stroke="#000000" stroke-width="8.0" stroke-linejoin="round" stroke-linecap="butt" d="m348.7952 678.7664l0 0c24.517975 24.448364 0.3977661 88.0874 -53.873993 142.14172l0 0c-54.271774 54.05432 -118.14346 78.05469 -142.66144 53.606262l0 0c-24.51796 -24.448364 -0.3977356 -88.0874 53.874023 -142.14172l0 0c54.27176 -54.05432 118.14346 -78.05469 142.6614 -53.606262z" fill-rule="evenodd"/><path fill="#ffffff" d="m329.48264 643.777l0 0c0 -92.71423 68.64496 -167.87402 153.32285 -167.87402l0 0c40.663757 0 79.66199 17.686676 108.41559 49.16919c28.753601 31.482483 44.907227 74.181885 44.907227 118.704834l0 0c0 92.71423 -68.64496 167.87402 -153.32281 167.87402l0 0c-84.67789 0 -153.32285 -75.15979 -153.32285 -167.87402z" fill-rule="evenodd"/><path stroke="#000000" stroke-width="8.0" stroke-linejoin="round" stroke-linecap="butt" d="m329.48264 643.777l0 0c0 -92.71423 68.64496 -167.87402 153.32285 -167.87402l0 0c40.663757 0 79.66199 17.686676 108.41559 49.16919c28.753601 31.482483 44.907227 74.181885 44.907227 118.704834l0 0c0 92.71423 -68.64496 167.87402 -153.32281 167.87402l0 0c-84.67789 0 -153.32285 -75.15979 -153.32285 -167.87402z" fill-rule="evenodd"/><path fill="#000000" fill-opacity="0.0" d="m609.00256 357.8659l0 0c1.3600464 26.844635 -22.401245 51.954742 -61.8338 65.34384c-39.432526 13.389069 -88.14288 12.886322 -126.75867 -1.3083496c-38.615784 -14.194672 -60.875946 -39.779785 -57.92746 -66.579956l123.157776 4.7230225z" fill-rule="evenodd"/><path fill="#000000" fill-opacity="0.0" d="m609.00256 357.8659l0 0c1.3600464 26.844635 -22.401245 51.954742 -61.8338 65.34384c-39.432526 13.389069 -88.14288 12.886322 -126.75867 -1.3083496c-38.615784 -14.194672 -60.875946 -39.779785 -57.92746 -66.579956" fill-rule="evenodd"/><path stroke="#000000" stroke-width="16.0" stroke-linejoin="round" stroke-linecap="butt" d="m609.00256 357.8659l0 0c1.3600464 26.844635 -22.401245 51.954742 -61.8338 65.34384c-39.432526 13.389069 -88.14288 12.886322 -126.75867 -1.3083496c-38.615784 -14.194672 -60.875946 -39.779785 -57.92746 -66.579956" fill-rule="evenodd"/><path fill="#000000" d="m420.8861 303.24008l0 0c0 -6.801361 4.604065 -12.314972 10.283478 -12.314972l0 0c2.7273254 0 5.342987 1.2974854 7.271515 3.6069946c1.9284973 2.3094788 3.0119324 5.4418335 3.0119324 8.707977l0 0c0 6.801361 -4.604065 12.314972 -10.283447 12.314972l0 0c-5.679413 0 -10.283478 -5.513611 -10.283478 -12.314972z" fill-rule="evenodd"/><path stroke="#000000" stroke-width="1.0" stroke-linejoin="round" stroke-linecap="butt" d="m420.8861 303.24008l0 0c0 -6.801361 4.604065 -12.314972 10.283478 -12.314972l0 0c2.7273254 0 5.342987 1.2974854 7.271515 3.6069946c1.9284973 2.3094788 3.0119324 5.4418335 3.0119324 8.707977l0 0c0 6.801361 -4.604065 12.314972 -10.283447 12.314972l0 0c-5.679413 0 -10.283478 -5.513611 -10.283478 -12.314972z" fill-rule="evenodd"/><path fill="#000000" d="m520.1495 303.24008l0 0c0 -6.801361 4.604065 -12.314972 10.283447 -12.314972l0 0c2.727356 0 5.3430176 1.2974854 7.2715454 3.6069946c1.9285278 2.3094788 3.0119019 5.4418335 3.0119019 8.707977l0 0c0 6.801361 -4.604004 12.314972 -10.283447 12.314972l0 0c-5.6793823 0 -10.283447 -5.513611 -10.283447 -12.314972z" fill-rule="evenodd"/><path stroke="#000000" stroke-width="1.0" stroke-linejoin="round" stroke-linecap="butt" d="m520.1495 303.24008l0 0c0 -6.801361 4.604065 -12.314972 10.283447 -12.314972l0 0c2.727356 0 5.3430176 1.2974854 7.2715454 3.6069946c1.9285278 2.3094788 3.0119019 5.4418335 3.0119019 8.707977l0 0c0 6.801361 -4.604004 12.314972 -10.283447 12.314972l0 0c-5.6793823 0 -10.283447 -5.513611 -10.283447 -12.314972z" fill-rule="evenodd"/><path fill="#00ff00" d="m776.1227 352.11633l0 0c20.499817 -27.875153 48.237 -42.350098 61.95276 -32.33069l0 0c6.586548 4.811493 8.992737 14.74353 6.689148 27.611176c-2.30365 12.867645 -9.128235 27.616882 -18.972595 41.00299l0 0c-20.499756 27.875153 -48.23694 42.350098 -61.95276 32.33072l0 0c-13.71582 -10.019409 -8.216309 -40.739014 12.283447 -68.6142z" fill-rule="evenodd"/><path stroke="#000000" stroke-width="8.0" stroke-linejoin="round" stroke-linecap="butt" d="m776.1227 352.11633l0 0c20.499817 -27.875153 48.237 -42.350098 61.95276 -32.33069l0 0c6.586548 4.811493 8.992737 14.74353 6.689148 27.611176c-2.30365 12.867645 -9.128235 27.616882 -18.972595 41.00299l0 0c-20.499756 27.875153 -48.23694 42.350098 -61.95276 32.33072l0 0c-13.71582 -10.019409 -8.216309 -40.739014 12.283447 -68.6142z" fill-rule="evenodd"/><path fill="#00ff00" d="m182.50461 345.29684l0 0c-20.499756 -27.875153 -48.236954 -42.350098 -61.95275 -32.33069l0 0c-6.5865555 4.811493 -8.992699 14.74353 -6.689102 27.611176c2.3035965 12.867645 9.128235 27.616852 18.972572 41.00299l0 0c20.499756 27.875153 48.236954 42.350098 61.95276 32.33072l0 0c13.71579 -10.019409 8.216293 -40.739014 -12.283478 -68.6142z" fill-rule="evenodd"/><path stroke="#000000" stroke-width="8.0" stroke-linejoin="round" stroke-linecap="butt" d="m182.50461 345.29684l0 0c-20.499756 -27.875153 -48.236954 -42.350098 -61.95275 -32.33069l0 0c-6.5865555 4.811493 -8.992699 14.74353 -6.689102 27.611176c2.3035965 12.867645 9.128235 27.616852 18.972572 41.00299l0 0c20.499756 27.875153 48.236954 42.350098 61.95276 32.33072l0 0c13.71579 -10.019409 8.216293 -40.739014 -12.283478 -68.6142z" fill-rule="evenodd"/><path fill="#000000" d="m245.53152 201.59332l0 0c0 -29.4581 15.363342 -53.338593 34.314972 -53.338593l0 0c9.100891 0 17.82904 5.619583 24.264343 15.622513c6.4353027 10.00293 10.050598 23.569809 10.050598 37.71608l0 0c0 29.458084 -15.363312 53.338577 -34.31494 53.338577l0 0c-18.95163 0 -34.314972 -23.880493 -34.314972 -53.338577z" fill-rule="evenodd"/><path stroke="#000000" stroke-width="8.0" stroke-linejoin="round" stroke-linecap="butt" d="m245.53152 201.59332l0 0c0 -29.4581 15.363342 -53.338593 34.314972 -53.338593l0 0c9.100891 0 17.82904 5.619583 24.264343 15.622513c6.4353027 10.00293 10.050598 23.569809 10.050598 37.71608l0 0c0 29.458084 -15.363312 53.338577 -34.31494 53.338577l0 0c-18.95163 0 -34.314972 -23.880493 -34.314972 -53.338577z" fill-rule="evenodd"/><path fill="#000000" d="m652.2845 201.59332l0 0c0 -29.4581 15.363342 -53.338593 34.31494 -53.338593l0 0c9.100891 0 17.82904 5.619583 24.264343 15.622513c6.4353027 10.00293 10.050598 23.569809 10.050598 37.71608l0 0c0 29.458084 -15.363281 53.338577 -34.31494 53.338577l0 0c-18.9516 0 -34.31494 -23.880493 -34.31494 -53.338577z" fill-rule="evenodd"/><path stroke="#000000" stroke-width="8.0" stroke-linejoin="round" stroke-linecap="butt" d="m652.2845 201.59332l0 0c0 -29.4581 15.363342 -53.338593 34.31494 -53.338593l0 0c9.100891 0 17.82904 5.619583 24.264343 15.622513c6.4353027 10.00293 10.050598 23.569809 10.050598 37.71608l0 0c0 29.458084 -15.363281 53.338577 -34.31494 53.338577l0 0c-18.9516 0 -34.31494 -23.880493 -34.31494 -53.338577z" fill-rule="evenodd"/><path fill="#ff9900" d="m403.14 560.6825l153.72119 0l0 0c20.137878 0 36.46283 37.796753 36.46283 84.42139c0 46.624695 -16.324951 84.42145 -36.46283 84.42145l-153.72119 0l0 0c-20.137909 0 -36.46289 -37.796753 -36.46289 -84.42145c0 -46.624634 16.324982 -84.42139 36.46289 -84.42139z" fill-rule="evenodd"/><path stroke="#000000" stroke-width="12.0" stroke-linejoin="round" stroke-linecap="butt" d="m403.14 560.6825l153.72119 0l0 0c20.137878 0 36.46283 37.796753 36.46283 84.42139c0 46.624695 -16.324951 84.42145 -36.46283 84.42145l-153.72119 0l0 0c-20.137909 0 -36.46289 -37.796753 -36.46289 -84.42145c0 -46.624634 16.324982 -84.42139 36.46289 -84.42139z" fill-rule="evenodd"/><path fill="#783f04" d="m466.30682 561.15295l0 0c-0.3508911 -35.82959 18.883392 -65.93518 44.030457 -68.916626l1.4105835 23.990295l0 0c-12.314758 2.4472656 -21.60672 21.68274 -21.473694 44.453064z" fill-rule="evenodd"/><path stroke="#000000" stroke-width="12.0" stroke-linejoin="round" stroke-linecap="butt" d="m466.30682 561.15295l0 0c-0.3508911 -35.82959 18.883392 -65.93518 44.030457 -68.916626l1.4105835 23.990295l0 0c-12.314758 2.4472656 -21.60672 21.68274 -21.473694 44.453064z" fill-rule="evenodd"/><path fill="#000000" d="m432.1972 594.0461l0 0c8.184235 -5.0792847 19.13388 -2.244934 24.456665 6.3306885q4.8189087 7.763794 9.637817 15.527527q-7.4094543 4.5984497 -14.818909 9.196899l0 0c-8.184235 5.0792847 -19.13388 2.244873 -24.456696 -6.3307495l0 0c-5.322815 -8.575623 -3.0031433 -19.645142 5.181122 -24.724365z" fill-rule="evenodd"/><path stroke="#000000" stroke-width="8.0" stroke-linejoin="round" stroke-linecap="butt" d="m432.1972 594.0461l0 0c8.184235 -5.0792847 19.13388 -2.244934 24.456665 6.3306885q4.8189087 7.763794 9.637817 15.527527q-7.4094543 4.5984497 -14.818909 9.196899l0 0c-8.184235 5.0792847 -19.13388 2.244873 -24.456696 -6.3307495l0 0c-5.322815 -8.575623 -3.0031433 -19.645142 5.181122 -24.724365z" fill-rule="evenodd"/><path fill="#000000" d="m532.1404 594.0461l0 0c-8.184265 -5.0792847 -19.133911 -2.244934 -24.456696 6.3306885q-4.818878 7.763794 -9.637787 15.527527q7.4094543 4.5984497 14.818909 9.196899l0 0c8.184265 5.0792847 19.13385 2.244873 24.456665 -6.3307495l0 0c5.322815 -8.575623 3.0031738 -19.645142 -5.1810913 -24.724365z" fill-rule="evenodd"/><path stroke="#000000" stroke-width="8.0" stroke-linejoin="round" stroke-linecap="butt" d="m532.1404 594.0461l0 0c-8.184265 -5.0792847 -19.133911 -2.244934 -24.456696 6.3306885q-4.818878 7.763794 -9.637787 15.527527q7.4094543 4.5984497 14.818909 9.196899l0 0c8.184265 5.0792847 19.13385 2.244873 24.456665 -6.3307495l0 0c5.322815 -8.575623 3.0031738 -19.645142 -5.1810913 -24.724365z" fill-rule="evenodd"/><path fill="#000000" d="m462.56274 656.1292l19.97165 -30.737305l19.97165 30.737305z" fill-rule="evenodd"/><path stroke="#000000" stroke-width="8.0" stroke-linejoin="round" stroke-linecap="butt" d="m462.56274 656.1292l19.97165 -30.737305l19.97165 30.737305z" fill-rule="evenodd"/><path fill="#000000" d="m557.0806 645.1141l0 0c0 38.198975 -33.377686 69.165344 -74.55118 69.165344c-41.173492 0 -74.55118 -30.96637 -74.55118 -69.165344l0 0c17.599121 21.770264 45.21927 34.58264 74.55118 34.58264c29.33191 0 56.951996 -12.812378 74.55118 -34.58264z" fill-rule="evenodd"/><path stroke="#000000" stroke-width="8.0" stroke-linejoin="round" stroke-linecap="butt" d="m557.0806 645.1141l0 0c0 38.198975 -33.377686 69.165344 -74.55118 69.165344c-41.173492 0 -74.55118 -30.96637 -74.55118 -69.165344l0 0c17.599121 21.770264 45.21927 34.58264 74.55118 34.58264c29.33191 0 56.951996 -12.812378 74.55118 -34.58264z" fill-rule="evenodd"/><path fill="#303030" d="m358.94995 236.6663l0 0c0 -15.377914 55.252472 -27.844193 123.40988 -27.844193l0 0c68.15738 0 123.40988 12.466278 123.40988 27.844193l0 0c0 15.37793 -55.252502 27.844193 -123.40988 27.844193l0 0c-68.15741 0 -123.40988 -12.466263 -123.40988 -27.844193z" fill-rule="evenodd"/><path fill="#595959" d="m422.10657 231.14012l59.48761 -209.74117l1.5035706 0l59.48758 209.74117z" fill-rule="evenodd"/><path stroke="#000000" stroke-width="8.0" stroke-linejoin="round" stroke-linecap="butt" d="m422.10657 231.14012l59.48761 -209.74117l1.5035706 0l59.48758 209.74117z" fill-rule="evenodd"/><path fill="#595959" d="m536.8478 226.80052l0 8.692917l0 0c0 4.8009644 -24.395203 8.692917 -54.48819 8.692917c-30.093018 0 -54.48819 -3.8919525 -54.48819 -8.692917l0 -8.692917z" fill-rule="evenodd"/></g></svg>