<svg version="1.1" viewBox="0.0 0.0 960.0 960.0" fill="none" stroke="none" stroke-linecap="square" stroke-miterlimit="10" xmlns:xlink="http://www.w3.org/1999/xlink" xmlns="http://www.w3.org/2000/svg"><clipPath id="g2ce532296c7_0_20.0"><path d="m0 0l960.0 0l0 960.0l-960.0 0l0 -960.0z" clip-rule="nonzero"/></clipPath><g clip-path="url(#g2ce532296c7_0_20.0)"><path fill="#000000" fill-opacity="0.0" d="m0 0l960.0 0l0 960.0l-960.0 0z" fill-rule="evenodd"/><path fill="#00ff00" d="m270.61627 417.37866l0 0c1.1393738 -3.1282349 -0.47549438 -6.5806274 -3.6069336 -7.711151l-62.20337 -22.457153c-1.5037689 -0.5429077 -3.1632996 -0.4668274 -4.6135254 0.21151733c-1.4502106 0.6783447 -2.5723267 1.9033813 -3.1194763 3.4056091l-8.251892 22.655945c-1.1393738 3.1282349 0.47549438 6.5806274 3.6069336 7.7111816l62.203384 22.457123l0 0c3.131424 1.1305542 6.5936127 -0.4888916 7.7329865 -3.6171265z" fill-rule="evenodd"/><path stroke="#000000" stroke-width="8.0" stroke-linejoin="round" stroke-linecap="butt" d="m270.61627 417.37866l0 0c1.1393738 -3.1282349 -0.47549438 -6.5806274 -3.6069336 -7.711151l-62.20337 -22.457153c-1.5037689 -0.5429077 -3.1632996 -0.4668274 -4.6135254 0.21151733c-1.4502106 0.6783447 -2.5723267 1.9033813 -3.1194763 3.4056091l-8.251892 22.655945c-1.1393738 3.1282349 0.47549438 6.5806274 3.6069336 7.7111816l62.203384 22.457123l0 0c3.131424 1.1305542 6.5936127 -0.4888916 7.7329865 -3.6171265z" fill-rule="evenodd"/><path fill="#00ff00" d="m688.01105 424.19815l0 0c-1.1394043 -3.1282043 0.47546387 -6.5806274 3.6069336 -7.711151l62.20337 -22.457153c1.5037842 -0.5429077 3.16333 -0.4668274 4.6135254 0.21151733c1.4501953 0.6783447 2.5723267 1.9033813 3.1194458 3.4056091l8.251892 22.655945c1.1394043 3.1282349 -0.47546387 6.5806274 -3.6069336 7.7111816l-62.20337 22.457153l0 0c-3.1314087 1.1305237 -6.593628 -0.48892212 -7.732971 -3.617157z" fill-rule="evenodd"/><path stroke="#000000" stroke-width="8.0" stroke-linejoin="round" stroke-linecap="butt" d="m688.01105 424.19815l0 0c-1.1394043 -3.1282043 0.47546387 -6.5806274 3.6069336 -7.711151l62.20337 -22.457153c1.5037842 -0.5429077 3.16333 -0.4668274 4.6135254 0.21151733c1.4501953 0.6783447 2.5723267 1.9033813 3.1194458 3.4056091l8.251892 22.655945c1.1394043 3.1282349 -0.47546387 6.5806274 -3.6069336 7.7111816l-62.20337 22.457153l0 0c-3.1314087 1.1305237 -6.593628 -0.48892212 -7.732971 -3.617157z" fill-rule="evenodd"/><path fill="#00ff00" d="m250.35323 523.77484l0 0c0 -158.97974 105.34352 -287.85828 235.29134 -287.85828l0 0c62.403168 0 122.2504 30.327835 166.37613 84.31172c44.12567 53.983917 68.91522 127.20178 68.91522 203.54654l0 0c0 158.97974 -105.343506 287.85828 -235.29135 287.85828l0 0c-129.94781 0 -235.29134 -128.87854 -235.29134 -287.85828z" fill-rule="evenodd"/><path stroke="#000000" stroke-width="8.0" stroke-linejoin="round" stroke-linecap="butt" d="m250.35323 523.77484l0 0c0 -158.97974 105.34352 -287.85828 235.29134 -287.85828l0 0c62.403168 0 122.2504 30.327835 166.37613 84.31172c44.12567 53.983917 68.91522 127.20178 68.91522 203.54654l0 0c0 158.97974 -105.343506 287.85828 -235.29135 287.85828l0 0c-129.94781 0 -235.29134 -128.87854 -235.29134 -287.85828z" fill-rule="evenodd"/><path fill="#00ff00" d="m571.52374 201.58267l0 0c0 -79.22459 50.73633 -143.44882 113.322815 -143.44882l0 0c30.055115 0 58.87921 15.113312 80.13135 42.01519c21.252197 26.90187 33.19153 63.38864 33.19153 101.433624l0 0c0 79.22461 -50.73639 143.44882 -113.322876 143.44882l0 0c-62.586487 0 -113.322815 -64.22421 -113.322815 -143.44882z" fill-rule="evenodd"/><path stroke="#000000" stroke-width="8.0" stroke-linejoin="round" stroke-linecap="butt" d="m571.52374 201.58267l0 0c0 -79.22459 50.73633 -143.44882 113.322815 -143.44882l0 0c30.055115 0 58.87921 15.113312 80.13135 42.01519c21.252197 26.90187 33.19153 63.38864 33.19153 101.433624l0 0c0 79.22461 -50.73639 143.44882 -113.322876 143.44882l0 0c-62.586487 0 -113.322815 -64.22421 -113.322815 -143.44882z" fill-rule="evenodd"/><path fill="#eeeeee" d="m619.41284 201.58272l0 0c0 -62.943054 29.30243 -113.9685 65.44879 -113.9685l0 0c17.358093 0 34.00525 12.007362 46.279297 33.3806c12.274048 21.373238 19.169556 50.36158 19.169556 80.5879l0 0c0 62.94307 -29.30243 113.96852 -65.44885 113.96852l0 0c-36.146362 0 -65.44879 -51.02545 -65.44879 -113.96852z" fill-rule="evenodd"/><path stroke="#000000" stroke-width="8.0" stroke-linejoin="round" stroke-linecap="butt" d="m619.41284 201.58272l0 0c0 -62.943054 29.30243 -113.9685 65.44879 -113.9685l0 0c17.358093 0 34.00525 12.007362 46.279297 33.3806c12.274048 21.373238 19.169556 50.36158 19.169556 80.5879l0 0c0 62.94307 -29.30243 113.96852 -65.44885 113.96852l0 0c-36.146362 0 -65.44879 -51.02545 -65.44879 -113.96852z" fill-rule="evenodd"/><path fill="#00ff00" d="m166.52158 201.58267l0 0c0 -79.22459 50.73636 -143.44882 113.322845 -143.44882l0 0c30.055084 0 58.87918 15.113312 80.13135 42.01519c21.252136 26.90187 33.191467 63.38864 33.191467 101.433624l0 0c0 79.22461 -50.73636 143.44882 -113.322815 143.44882l0 0c-62.586487 0 -113.322845 -64.22421 -113.322845 -143.44882z" fill-rule="evenodd"/><path stroke="#000000" stroke-width="8.0" stroke-linejoin="round" stroke-linecap="butt" d="m166.52158 201.58267l0 0c0 -79.22459 50.73636 -143.44882 113.322845 -143.44882l0 0c30.055084 0 58.87918 15.113312 80.13135 42.01519c21.252136 26.90187 33.191467 63.38864 33.191467 101.433624l0 0c0 79.22461 -50.73636 143.44882 -113.322815 143.44882l0 0c-62.586487 0 -113.322845 -64.22421 -113.322845 -143.44882z" fill-rule="evenodd"/><path fill="#eeeeee" d="m214.41066 201.58272l0 0c0 -62.943054 29.302444 -113.9685 65.44884 -113.9685l0 0c17.358093 0 34.00525 12.007362 46.279297 33.3806c12.274017 21.373238 19.169495 50.36158 19.169495 80.5879l0 0c0 62.94307 -29.30243 113.96852 -65.44879 113.96852l0 0c-36.146393 0 -65.44884 -51.02545 -65.44884 -113.96852z" fill-rule="evenodd"/><path stroke="#000000" stroke-width="8.0" stroke-linejoin="round" stroke-linecap="butt" d="m214.41066 201.58272l0 0c0 -62.943054 29.302444 -113.9685 65.44884 -113.9685l0 0c17.358093 0 34.00525 12.007362 46.279297 33.3806c12.274017 21.373238 19.169495 50.36158 19.169495 80.5879l0 0c0 62.94307 -29.30243 113.96852 -65.44879 113.96852l0 0c-36.146393 0 -65.44884 -51.02545 -65.44884 -113.96852z" fill-rule="evenodd"/><path fill="#00ff00" d="m595.3012 684.98083l0 0c20.499756 -27.875122 87.276306 -13.809143 149.1496 31.417358l0 0c61.87329 45.22644 95.41315 104.487 74.91339 132.36218l0 0c-20.499756 27.875183 -87.276306 13.809143 -149.1496 -31.417297l0 0c-61.87329 -45.2265 -95.41315 -104.48706 -74.91339 -132.36224z" fill-rule="evenodd"/><path stroke="#000000" stroke-width="8.0" stroke-linejoin="round" stroke-linecap="butt" d="m595.3012 684.98083l0 0c20.499756 -27.875122 87.276306 -13.809143 149.1496 31.417358l0 0c61.87329 45.22644 95.41315 104.487 74.91339 132.36218l0 0c-20.499756 27.875183 -87.276306 13.809143 -149.1496 -31.417297l0 0c-61.87329 -45.2265 -95.41315 -104.48706 -74.91339 -132.36224z" fill-rule="evenodd"/><path fill="#00ff00" d="m348.7952 678.7664l0 0c24.517975 24.448364 0.3977661 88.0874 -53.873993 142.14172l0 0c-54.271774 54.05432 -118.14346 78.05469 -142.66144 53.606262l0 0c-24.51796 -24.448364 -0.3977356 -88.0874 53.874023 -142.14172l0 0c54.27176 -54.05432 118.14346 -78.05469 142.6614 -53.606262z" fill-rule="evenodd"/><path stroke="#000000" stroke-width="8.0" stroke-linejoin="round" stroke-linecap="butt" d="m348.7952 678.7664l0 0c24.517975 24.448364 0.3977661 88.0874 -53.873993 142.14172l0 0c-54.271774 54.05432 -118.14346 78.05469 -142.66144 53.606262l0 0c-24.51796 -24.448364 -0.3977356 -88.0874 53.874023 -142.14172l0 0c54.27176 -54.05432 118.14346 -78.05469 142.6614 -53.606262z" fill-rule="evenodd"/><path fill="#ffffff" d="m329.48264 643.777l0 0c0 -92.71423 68.64496 -167.87402 153.32285 -167.87402l0 0c40.663757 0 79.66199 17.686676 108.41559 49.16919c28.753601 31.482483 44.907227 74.181885 44.907227 118.704834l0 0c0 92.71423 -68.64496 167.87402 -153.32281 167.87402l0 0c-84.67789 0 -153.32285 -75.15979 -153.32285 -167.87402z" fill-rule="evenodd"/><path stroke="#000000" stroke-width="8.0" stroke-linejoin="round" stroke-linecap="butt" d="m329.48264 643.777l0 0c0 -92.71423 68.64496 -167.87402 153.32285 -167.87402l0 0c40.663757 0 79.66199 17.686676 108.41559 49.16919c28.753601 31.482483 44.907227 74.181885 44.907227 118.704834l0 0c0 92.71423 -68.64496 167.87402 -153.32281 167.87402l0 0c-84.67789 0 -153.32285 -75.15979 -153.32285 -167.87402z" fill-rule="evenodd"/><path fill="#000000" fill-opacity="0.0" d="m609.00256 357.8659l0 0c1.3600464 26.844635 -22.401245 51.954742 -61.8338 65.34384c-39.432526 13.389069 -88.14288 12.886322 -126.75867 -1.3083496c-38.615784 -14.194672 -60.875946 -39.779785 -57.92746 -66.579956l123.157776 4.7230225z" fill-rule="evenodd"/><path fill="#000000" fill-opacity="0.0" d="m609.00256 357.8659l0 0c1.3600464 26.844635 -22.401245 51.954742 -61.8338 65.34384c-39.432526 13.389069 -88.14288 12.886322 -126.75867 -1.3083496c-38.615784 -14.194672 -60.875946 -39.779785 -57.92746 -66.579956" fill-rule="evenodd"/><path stroke="#000000" stroke-width="16.0" stroke-linejoin="round" stroke-linecap="butt" d="m609.00256 357.8659l0 0c1.3600464 26.844635 -22.401245 51.954742 -61.8338 65.34384c-39.432526 13.389069 -88.14288 12.886322 -126.75867 -1.3083496c-38.615784 -14.194672 -60.875946 -39.779785 -57.92746 -66.579956" fill-rule="evenodd"/><path fill="#000000" d="m420.8861 303.24008l0 0c0 -6.801361 4.604065 -12.314972 10.283478 -12.314972l0 0c2.7273254 0 5.342987 1.2974854 7.271515 3.6069946c1.9284973 2.3094788 3.0119324 5.4418335 3.0119324 8.707977l0 0c0 6.801361 -4.604065 12.314972 -10.283447 12.314972l0 0c-5.679413 0 -10.283478 -5.513611 -10.283478 -12.314972z" fill-rule="evenodd"/><path stroke="#000000" stroke-width="1.0" stroke-linejoin="round" stroke-linecap="butt" d="m420.8861 303.24008l0 0c0 -6.801361 4.604065 -12.314972 10.283478 -12.314972l0 0c2.7273254 0 5.342987 1.2974854 7.271515 3.6069946c1.9284973 2.3094788 3.0119324 5.4418335 3.0119324 8.707977l0 0c0 6.801361 -4.604065 12.314972 -10.283447 12.314972l0 0c-5.679413 0 -10.283478 -5.513611 -10.283478 -12.314972z" fill-rule="evenodd"/><path fill="#000000" d="m520.1495 303.24008l0 0c0 -6.801361 4.604065 -12.314972 10.283447 -12.314972l0 0c2.727356 0 5.3430176 1.2974854 7.2715454 3.6069946c1.9285278 2.3094788 3.0119019 5.4418335 3.0119019 8.707977l0 0c0 6.801361 -4.604004 12.314972 -10.283447 12.314972l0 0c-5.6793823 0 -10.283447 -5.513611 -10.283447 -12.314972z" fill-rule="evenodd"/><path stroke="#000000" stroke-width="1.0" stroke-linejoin="round" stroke-linecap="butt" d="m520.1495 303.24008l0 0c0 -6.801361 4.604065 -12.314972 10.283447 -12.314972l0 0c2.727356 0 5.3430176 1.2974854 7.2715454 3.6069946c1.9285278 2.3094788 3.0119019 5.4418335 3.0119019 8.707977l0 0c0 6.801361 -4.604004 12.314972 -10.283447 12.314972l0 0c-5.6793823 0 -10.283447 -5.513611 -10.283447 -12.314972z" fill-rule="evenodd"/><path fill="#00ff00" d="m776.1227 352.11633l0 0c20.499817 -27.875153 48.237 -42.350098 61.95276 -32.33069l0 0c6.586548 4.811493 8.992737 14.74353 6.689148 27.611176c-2.30365 12.867645 -9.128235 27.616882 -18.972595 41.00299l0 0c-20.499756 27.875153 -48.23694 42.350098 -61.95276 32.33072l0 0c-13.71582 -10.019409 -8.216309 -40.739014 12.283447 -68.6142z" fill-rule="evenodd"/><path stroke="#000000" stroke-width="8.0" stroke-linejoin="round" stroke-linecap="butt" d="m776.1227 352.11633l0 0c20.499817 -27.875153 48.237 -42.350098 61.95276 -32.33069l0 0c6.586548 4.811493 8.992737 14.74353 6.689148 27.611176c-2.30365 12.867645 -9.128235 27.616882 -18.972595 41.00299l0 0c-20.499756 27.875153 -48.23694 42.350098 -61.95276 32.33072l0 0c-13.71582 -10.019409 -8.216309 -40.739014 12.283447 -68.6142z" fill-rule="evenodd"/><path fill="#00ff00" d="m182.50461 345.29684l0 0c-20.499756 -27.875153 -48.236954 -42.350098 -61.95275 -32.33069l0 0c-6.5865555 4.811493 -8.992699 14.74353 -6.689102 27.611176c2.3035965 12.867645 9.128235 27.616852 18.972572 41.00299l0 0c20.499756 27.875153 48.236954 42.350098 61.95276 32.33072l0 0c13.71579 -10.019409 8.216293 -40.739014 -12.283478 -68.6142z" fill-rule="evenodd"/><path stroke="#000000" stroke-width="8.0" stroke-linejoin="round" stroke-linecap="butt" d="m182.50461 345.29684l0 0c-20.499756 -27.875153 -48.236954 -42.350098 -61.95275 -32.33069l0 0c-6.5865555 4.811493 -8.992699 14.74353 -6.689102 27.611176c2.3035965 12.867645 9.128235 27.616852 18.972572 41.00299l0 0c20.499756 27.875153 48.236954 42.350098 61.95276 32.33072l0 0c13.71579 -10.019409 8.216293 -40.739014 -12.283478 -68.6142z" fill-rule="evenodd"/><path fill="#000000" d="m245.53152 201.59332l0 0c0 -29.4581 15.363342 -53.338593 34.314972 -53.338593l0 0c9.100891 0 17.82904 5.619583 24.264343 15.622513c6.4353027 10.00293 10.050598 23.569809 10.050598 37.71608l0 0c0 29.458084 -15.363312 53.338577 -34.31494 53.338577l0 0c-18.95163 0 -34.314972 -23.880493 -34.314972 -53.338577z" fill-rule="evenodd"/><path stroke="#000000" stroke-width="8.0" stroke-linejoin="round" stroke-linecap="butt" d="m245.53152 201.59332l0 0c0 -29.4581 15.363342 -53.338593 34.314972 -53.338593l0 0c9.100891 0 17.82904 5.619583 24.264343 15.622513c6.4353027 10.00293 10.050598 23.569809 10.050598 37.71608l0 0c0 29.458084 -15.363312 53.338577 -34.31494 53.338577l0 0c-18.95163 0 -34.314972 -23.880493 -34.314972 -53.338577z" fill-rule="evenodd"/><path fill="#000000" d="m652.2845 201.59332l0 0c0 -29.4581 15.363342 -53.338593 34.31494 -53.338593l0 0c9.100891 0 17.82904 5.619583 24.264343 15.622513c6.4353027 10.00293 10.050598 23.569809 10.050598 37.71608l0 0c0 29.458084 -15.363281 53.338577 -34.31494 53.338577l0 0c-18.9516 0 -34.31494 -23.880493 -34.31494 -53.338577z" fill-rule="evenodd"/><path stroke="#000000" stroke-width="8.0" stroke-linejoin="round" stroke-linecap="butt" d="m652.2845 201.59332l0 0c0 -29.4581 15.363342 -53.338593 34.31494 -53.338593l0 0c9.100891 0 17.82904 5.619583 24.264343 15.622513c6.4353027 10.00293 10.050598 23.569809 10.050598 37.71608l0 0c0 29.458084 -15.363281 53.338577 -34.31494 53.338577l0 0c-18.9516 0 -34.31494 -23.880493 -34.31494 -53.338577z" fill-rule="evenodd"/><path fill="#783f04" d="m438.33633 142.239l-21.12622 30.384506l6.38562 -35.787933z" fill-rule="evenodd"/><path stroke="#783f04" stroke-width="1.0" stroke-linejoin="round" stroke-linecap="butt" d="m438.33633 142.239l-21.12622 30.384506l6.38562 -35.787933z" fill-rule="evenodd"/><path fill="#783f04" d="m533.2806 139.4714l23.415833 29.545197l-8.675232 -34.948624z" fill-rule="evenodd"/><path stroke="#783f04" stroke-width="1.0" stroke-linejoin="round" stroke-linecap="butt" d="m533.2806 139.4714l23.415833 29.545197l-8.675232 -34.948624z" fill-rule="evenodd"/><path fill="#303030" d="m405.51746 231.13991l40.74948 -209.74118l81.49893 0l40.74945 209.74118z" fill-rule="evenodd"/><path stroke="#000000" stroke-width="1.0" stroke-linejoin="round" stroke-linecap="butt" d="m405.51746 231.13991l40.74948 -209.74118l81.49893 0l40.74945 209.74118z" fill-rule="evenodd"/><path fill="#783f04" d="m563.6016 160.35423l0 0c-42.622314 35.848602 -108.17691 38.477585 -154.22336 6.1849365l24.506287 -27.887619l0 0c31.0112 19.461716 73.93042 17.849365 102.77585 -3.8610077z" fill-rule="evenodd"/><path stroke="#783f04" stroke-width="1.0" stroke-linejoin="round" stroke-linecap="butt" d="m563.6016 160.35423l0 0c-42.622314 35.848602 -108.17691 38.477585 -154.22336 6.1849365l24.506287 -27.887619l0 0c31.0112 19.461716 73.93042 17.849365 102.77585 -3.8610077z" fill-rule="evenodd"/><path fill="#000000" fill-opacity="0.0" d="m462.53955 149.24646l46.532593 0l0 35.811493l-46.532593 0z" fill-rule="evenodd"/><path stroke="#f1c232" stroke-width="16.0" stroke-linejoin="round" stroke-linecap="butt" d="m462.53955 149.24646l46.532593 0l0 35.811493l-46.532593 0z" fill-rule="evenodd"/><path fill="#303030" d="m358.94995 236.6663l0 0c0 -15.377914 55.252472 -27.844193 123.40988 -27.844193l0 0c68.15738 0 123.40988 12.466278 123.40988 27.844193l0 0c0 15.37793 -55.252502 27.844193 -123.40988 27.844193l0 0c-68.15741 0 -123.40988 -12.466263 -123.40988 -27.844193z" fill-rule="evenodd"/><path fill="#000000" fill-opacity="0.0" d="m421.31366 521.18634l116.0 0l0 130.01575l-116.0 0z" fill-rule="evenodd"/><path fill="#b45f06" d="m360.6929 653.20734l30.885132 -8.883118l-28.545746 -14.690491l32.03839 -2.7332764l-25.10791 -19.934082l31.959808 3.5198975l-20.706146 -24.41101l30.653412 9.639893l-15.508545 -27.950806l28.169373 15.388184l-9.715271 -30.415588l24.601898 20.545532l-3.5474548 -31.711853l20.089966 24.913086l2.7546692 -31.789795l14.805328 28.32428l8.952637 -30.645508l8.952606 30.645508l14.805359 -28.32428l2.7546692 31.789795l20.089935 -24.913086l-3.5474243 31.711853l24.601929 -20.545532l-9.715271 30.415588l28.169312 -15.388184l-15.508545 27.950806l30.653442 -9.639893l-20.706177 24.41101l31.959839 -3.5198975l-25.10791 19.934082l32.03839 2.7332764l-28.545715 14.690491l30.88507 8.883118l-30.88507 8.883179l28.545715 14.690491l-32.03839 2.7332764l25.10791 19.934082l-31.959839 -3.5198975l20.706177 24.41101l-30.653442 -9.639893l15.508545 27.950745l-28.169312 -15.388184l9.715271 30.415588l-24.601929 -20.545532l3.5474243 31.711853l-20.089935 -24.913086l-2.7546692 31.789795l-14.805359 -28.324219l-8.952606 30.645447l-8.952637 -30.645447l-14.805328 28.324219l-2.7546692 -31.789795l-20.089966 24.913086l3.5474548 -31.711853l-24.601898 20.545532l9.715271 -30.415588l-28.169373 15.388184l15.508545 -27.950745l-30.653412 9.639893l20.706146 -24.41101l-31.959808 3.5198975l25.10791 -19.934082l-32.03839 -2.7332764l28.545746 -14.690491z" fill-rule="evenodd"/><path stroke="#000000" stroke-width="8.0" stroke-linejoin="round" stroke-linecap="butt" d="m360.6929 653.20734l30.885132 -8.883118l-28.545746 -14.690491l32.03839 -2.7332764l-25.10791 -19.934082l31.959808 3.5198975l-20.706146 -24.41101l30.653412 9.639893l-15.508545 -27.950806l28.169373 15.388184l-9.715271 -30.415588l24.601898 20.545532l-3.5474548 -31.711853l20.089966 24.913086l2.7546692 -31.789795l14.805328 28.32428l8.952637 -30.645508l8.952606 30.645508l14.805359 -28.32428l2.7546692 31.789795l20.089935 -24.913086l-3.5474243 31.711853l24.601929 -20.545532l-9.715271 30.415588l28.169312 -15.388184l-15.508545 27.950806l30.653442 -9.639893l-20.706177 24.41101l31.959839 -3.5198975l-25.10791 19.934082l32.03839 2.7332764l-28.545715 14.690491l30.88507 8.883118l-30.88507 8.883179l28.545715 14.690491l-32.03839 2.7332764l25.10791 19.934082l-31.959839 -3.5198975l20.706177 24.41101l-30.653442 -9.639893l15.508545 27.950745l-28.169312 -15.388184l9.715271 30.415588l-24.601929 -20.545532l3.5474243 31.711853l-20.089935 -24.913086l-2.7546692 31.789795l-14.805359 -28.324219l-8.952606 30.645447l-8.952637 -30.645447l-14.805328 28.324219l-2.7546692 -31.789795l-20.089966 24.913086l3.5474548 -31.711853l-24.601898 20.545532l9.715271 -30.415588l-28.169373 15.388184l15.508545 -27.950745l-30.653412 9.639893l20.706146 -24.41101l-31.959808 3.5198975l25.10791 -19.934082l-32.03839 -2.7332764l28.545746 -14.690491z" fill-rule="evenodd"/><path fill="#b45f06" d="m368.75592 652.9029l0 0c0 -62.803894 50.912598 -113.71655 113.71652 -113.71655l0 0c30.159515 0 59.08377 11.980835 80.40976 33.306824c21.325989 21.325989 33.306763 50.250244 33.306763 80.40973l0 0c0 62.803894 -50.912598 113.71655 -113.71652 113.71655l0 0c-62.803925 0 -113.71652 -50.91266 -113.71652 -113.71655z" fill-rule="evenodd"/><path fill="#ff9900" d="m384.75592 652.52496l0 0c0 -53.758667 43.579956 -97.33862 97.33856 -97.33862l0 0c25.815796 0 50.57428 10.25531 68.8288 28.509827c18.254517 18.254517 28.509766 43.013 28.509766 68.8288l0 0c0 53.758606 -43.579956 97.33856 -97.33856 97.33856l0 0c-53.758606 0 -97.33856 -43.579956 -97.33856 -97.33856z" fill-rule="evenodd"/><path stroke="#000000" stroke-width="8.0" stroke-linejoin="round" stroke-linecap="butt" d="m384.75592 652.52496l0 0c0 -53.758667 43.579956 -97.33862 97.33856 -97.33862l0 0c25.815796 0 50.57428 10.25531 68.8288 28.509827c18.254517 18.254517 28.509766 43.013 28.509766 68.8288l0 0c0 53.758606 -43.579956 97.33856 -97.33856 97.33856l0 0c-53.758606 0 -97.33856 -43.579956 -97.33856 -97.33856z" fill-rule="evenodd"/><path fill="#000000" d="m542.8853 588.53284c-0.48913574 5.6798096 -4.4976807 8.519714 -12.025452 8.519714c-8.017029 0 -20.04248 -0.4076538 -36.076477 -1.2229004c-16.006805 -0.84246826 -28.018677 -1.2637329 -36.035675 -1.2637329c-16.713379 0 -27.624634 2.595337 -32.733795 7.7860107c-5.0819397 5.163513 -8.112091 16.251404 -9.090424 33.263733l7.011444 0c0.6522522 -4.15802 2.0246277 -6.984314 4.117218 -8.479004c2.0925598 -1.5218506 5.39447 -2.282837 9.905731 -2.282837l13.003815 0c0 46.93341 -7.011444 70.400085 -21.034393 70.400085c-5.1634827 0 -7.7452393 -4.932495 -7.7452393 -14.797485l-8.030579 0c-0.32611084 5.3536987 -0.48916626 9.362244 -0.48916626 12.025513c0 6.522278 1.5762329 12.161316 4.728668 16.917175c3.1796265 4.7558594 7.949066 7.133789 14.308289 7.133789c18.017853 0 27.026764 -27.298523 27.026764 -81.89563l0 -9.783447l28.820404 0c0 6.359253 -0.21740723 15.84375 -0.6522217 28.453552c-0.4076538 12.582581 -0.6114807 22.053528 -0.6114807 28.41272c0 10.354187 2.2963867 18.751648 6.8891907 25.192383c4.5927734 6.4136353 11.808075 9.620422 21.645874 9.620422c6.685364 0 12.242859 -1.0463257 16.672607 -3.138855c4.4297485 -2.0925903 7.7724 -5.258606 10.028015 -9.498108c2.2556152 -4.2666626 3.7910767 -8.574097 4.6063843 -12.922302c0.84246826 -4.3482056 1.5218506 -9.851379 2.038208 -16.509583l-8.519714 0c-1.331665 19.186401 -5.421692 28.779663 -12.270081 28.779663c-2.6904907 0 -4.6607666 -1.0870361 -5.9108276 -3.2611694c-1.2501221 -2.1741333 -1.8751831 -4.6743164 -1.8751831 -7.5006104c0 -7.5006714 0.12231445 -18.765198 0.36688232 -33.7937c0.27178955 -15.028442 0.4076538 -26.30658 0.4076538 -33.83441c3.994873 -0.1630249 7.4055176 -0.48913574 10.231873 -0.9783325c2.8534546 -0.5163574 5.272156 -1.3180542 7.2560425 -2.4050903c2.0110474 -1.0870361 3.6416016 -2.3779297 4.8917236 -3.8726196c1.2772827 -1.49469 2.2827759 -3.206787 3.0165405 -5.1362915c0.7609253 -1.9295044 1.3452148 -4.1036377 1.7528687 -6.522278c0.43481445 -2.4187012 0.73376465 -5.08197 0.89678955 -7.989807c0.16308594 -2.9350586 0.32617188 -6.0739136 0.48919678 -9.416565z" fill-rule="evenodd"/><path stroke="#595959" stroke-width="1.0" stroke-linejoin="round" stroke-linecap="butt" d="m542.8853 588.53284c-0.48913574 5.6798096 -4.4976807 8.519714 -12.025452 8.519714c-8.017029 0 -20.04248 -0.4076538 -36.076477 -1.2229004c-16.006805 -0.84246826 -28.018677 -1.2637329 -36.035675 -1.2637329c-16.713379 0 -27.624634 2.595337 -32.733795 7.7860107c-5.0819397 5.163513 -8.112091 16.251404 -9.090424 33.263733l7.011444 0c0.6522522 -4.15802 2.0246277 -6.984314 4.117218 -8.479004c2.0925598 -1.5218506 5.39447 -2.282837 9.905731 -2.282837l13.003815 0c0 46.93341 -7.011444 70.400085 -21.034393 70.400085c-5.1634827 0 -7.7452393 -4.932495 -7.7452393 -14.797485l-8.030579 0c-0.32611084 5.3536987 -0.48916626 9.362244 -0.48916626 12.025513c0 6.522278 1.5762329 12.161316 4.728668 16.917175c3.1796265 4.7558594 7.949066 7.133789 14.308289 7.133789c18.017853 0 27.026764 -27.298523 27.026764 -81.89563l0 -9.783447l28.820404 0c0 6.359253 -0.21740723 15.84375 -0.6522217 28.453552c-0.4076538 12.582581 -0.6114807 22.053528 -0.6114807 28.41272c0 10.354187 2.2963867 18.751648 6.8891907 25.192383c4.5927734 6.4136353 11.808075 9.620422 21.645874 9.620422c6.685364 0 12.242859 -1.0463257 16.672607 -3.138855c4.4297485 -2.0925903 7.7724 -5.258606 10.028015 -9.498108c2.2556152 -4.2666626 3.7910767 -8.574097 4.6063843 -12.922302c0.84246826 -4.3482056 1.5218506 -9.851379 2.038208 -16.509583l-8.519714 0c-1.331665 19.186401 -5.421692 28.779663 -12.270081 28.779663c-2.6904907 0 -4.6607666 -1.0870361 -5.9108276 -3.2611694c-1.2501221 -2.1741333 -1.8751831 -4.6743164 -1.8751831 -7.5006104c0 -7.5006714 0.12231445 -18.765198 0.36688232 -33.7937c0.27178955 -15.028442 0.4076538 -26.30658 0.4076538 -33.83441c3.994873 -0.1630249 7.4055176 -0.48913574 10.231873 -0.9783325c2.8534546 -0.5163574 5.272156 -1.3180542 7.2560425 -2.4050903c2.0110474 -1.0870361 3.6416016 -2.3779297 4.8917236 -3.8726196c1.2772827 -1.49469 2.2827759 -3.206787 3.0165405 -5.1362915c0.7609253 -1.9295044 1.3452148 -4.1036377 1.7528687 -6.522278c0.43481445 -2.4187012 0.73376465 -5.08197 0.89678955 -7.989807c0.16308594 -2.9350586 0.32617188 -6.0739136 0.48919678 -9.416565z" fill-rule="evenodd"/></g></svg>